<svg xmlns="http://www.w3.org/2000/svg" width="400" height="412.5"><g fill="#0000000" fill-rule="evenodd"><path d="M53.621 94.545c-.258.678-.87 1.073-2.167 1.4-2.324.585-2.475.577-3.225-.174-.572-.571-.629-.56-.629.12 0 1.671-2.265 2.317-3.669 1.047-.685-.621-.731-.611-.731.151 0 1.115-.873 1.743-2.778 1.999-.886.119-1.815.462-2.065.764-.25.301-.774.548-1.163.548-.39 0-.817.283-.949.628-.145.377-.602.577-1.143.5-.586-.083-1.046.152-1.312.672-.226.44-.811.858-1.3.928-.49.07-.89.301-.89.513 0 .211-.336.514-.748.672-.67.257-3.763 2.741-5.713 4.587-.406.385-.89.7-1.074.7-.184 0-1.039.805-1.9 1.789-.861.984-1.79 1.794-2.065 1.8-.275.006-.5.331-.5.722 0 .391-.54 1.302-1.2 2.025-.66.722-1.2 1.406-1.2 1.52 0 .114-.696.895-1.546 1.737-.85.842-1.939 2.313-2.42 3.269a61.52 61.52 0 01-1.225 2.338c-.193.33-.449.915-.568 1.3-.134.435-.637.712-1.328.732-.612.017-.888.122-.613.233.854.344.602 2.183-.332 2.428-.608.158-.774.44-.617 1.041.265 1.014-.387 1.866-1.429 1.866-.701 0-.718.062-.164.615.717.717.469 2.922-.407 3.629-.323.26-.551 1.202-.551 2.272C6 140.799 5.277 142 4.143 142c-.504 0-.491.109.076.676.602.603.638 1.239.328 5.9-.356 5.365-.487 203.388-.14 212.936.161 4.433.094 5.376-.407 5.694-.468.298-.367.383.457.388 1.603.009 2.147 2.276.881 3.675-.625.69-.605.731.357.731 1.102 0 1.505.636 1.505 2.372 0 .608.36 1.521.8 2.028.44.507.8 1.236.8 1.618 0 .383.27.8.6.927.33.126.6.646.6 1.154 0 .508.375 1.244.833 1.637.496.424.736.969.591 1.345-.147.383.076.854.567 1.198.445.311.809.788.809 1.06 0 .271.732 1.296 1.627 2.277.895.981 2.38 2.665 3.3 3.742.92 1.076 2.113 2.336 2.651 2.8a59.227 59.227 0 011.919 1.742c.516.495 1.111.9 1.321.9.21 0 .382.27.382.6 0 .33.274.6.61.6.335 0 .781.45.99 1 .233.612.694 1 1.19 1 .446 0 .81.167.81.372s.405.43.9.5c.551.078.946.449 1.018.956.097.676.34.796 1.325.651.984-.144 1.249-.015 1.436.702.176.672.439.826 1.119.655.59-.148 1.132.045 1.608.57.395.437 1.044.794 1.442.794.398 0 .898.325 1.111.723.293.548.734.682 1.819.555 1.609-.187 2.622.431 2.622 1.6 0 .708.057.722.629.151.739-.74 1.075-.762 3.071-.208 1.212.337 1.5.605 1.5 1.398 0 1.15 1.557 1.397 2.4.381.43-.518 3.048-.6 19.052-.6h18.554l-.103-23.1L87 363l-15.733-.2c-13.946-.177-15.786-.274-16.21-.853-.262-.36-.828-.721-1.257-.804-.429-.082-.966-.522-1.192-.978-.227-.455-.743-1.157-1.147-1.561-.578-.579-.67-1.037-.432-2.169.55-2.624.667-200.432.119-202.146-.648-2.025-.081-4.441 1.08-4.607.672-.096.795-.341.655-1.3-.104-.706.006-1.182.272-1.182.245 0 .445-.238.445-.528 0-1.671 5.461-4.804 6.4-3.672.757.912 1.924.743 2.072-.3l.128-.9 55.4-.2 55.4-.2.103-23.3.103-23.3h-58.215c-51.379 0-58.243-.07-58.446-.6-.387-1.008-2.504-.759-2.924.345M230 172.377c0 .428-.332 1.013-.737 1.3-.405.288-.915 1.063-1.133 1.723-.283.858-.729 1.272-1.563 1.453-.642.139-.852.274-.467.3.985.066 1.082 13.125.1 13.502-.963.37-.805 2.945.181 2.945 2.129 0 2.279 9.617.163 10.421-1.097.417-1.262 1.806-.357 3.003.956 1.263.879 15.186-.087 15.731-.793.447-.373 1.081.865 1.306.453.083.953.7 1.228 1.518.772 2.294 5.017 2.686 6.39.59.35-.533.991-.969 1.426-.969.656 0 .791-.273.791-1.6 0-1.34-.132-1.6-.81-1.6-2.265 0-2.391-15.163-.134-16.021 1.141-.434 1.383-3.516.344-4.379-.881-.731-.731-2.721.3-4.003.495-.615 1.312-1.659 1.815-2.32.504-.662 1.989-2.323 3.3-3.693 1.312-1.37 2.385-2.647 2.385-2.837 0-.191.18-.347.401-.347.22 0 .985-.603 1.7-1.339.714-.737 1.569-1.464 1.899-1.616.33-.152 1.047-.532 1.594-.845 1.042-.595 2.787-.404 3.3.362.52.775.329 2.654-.294 2.893-.957.368-.806 2.945.173 2.945 1.062 0 1.143.423 1.64 8.53.426 6.944.307 9.47-.445 9.47-.202 0-.368.54-.368 1.2 0 .911.183 1.2.757 1.2 1.202 0 1.377.963 1.554 8.511.143 6.072.072 7.255-.481 8.1-.631.963-.622.989.373.989.607 0 1.129.285 1.285.7.757 2.017 4.081 2.622 5.537 1.007.995-1.104.997-1.124.886-8.274-.084-5.458.008-7.206.389-7.333.864-.288.632-2.9-.257-2.9-1.458 0-2.493-9.299-1.095-9.835 1.053-.404.965-8.165-.093-8.165-1.312 0-.544-2.031 1.475-3.9 1.01-.935 1.981-1.7 2.157-1.7.177 0 1.218-.63 2.313-1.4 1.095-.77 2.289-1.4 2.652-1.4s.86-.264 1.104-.587c.244-.322 1.201-.704 2.126-.848 1.772-.275 1.76-.283 4.752 3.069.311.348.566 1.299.566 2.112 0 .897.22 1.563.559 1.693.895.344 1.218 3.631.47 4.774-.83 1.265-.796 1.523.258 1.992 1.511.673 2.239 10.42.813 10.895-.852.284-.594 1.7.31 1.7 1.51 0 2.698 8.909 1.415 10.607-.849 1.123-.783 2.193.136 2.193.881 0 1.639 1.79 1.639 3.87 0 1.182.15 1.38 1.208 1.592.665.133 1.294.379 1.398.548.867 1.403 4.594-1.441 4.594-3.505 0-.854.264-1.901.587-2.329.864-1.141.783-2.576-.144-2.576-1.471 0-2.44-8.841-1.091-9.96.899-.746.811-1.64-.162-1.64-1.454 0-2.632-6.901-1.39-8.143.911-.911.757-2.179-.284-2.329-1.498-.217-2.254-7.533-.916-8.871.83-.83.75-1.457-.186-1.457-1.08 0-1.614-1.177-1.614-3.56 0-1.602-.163-2.099-.8-2.44-.44-.235-.8-.782-.8-1.214 0-.432-.151-.786-.336-.786-.184 0-.543-.455-.796-1.011-.254-.556-.778-1.124-1.165-1.261-.386-.137-1.037-.537-1.445-.889-.608-.523-1.715-.629-6.1-.587-3.747.037-5.36-.083-5.364-.4-.003-.248-.23-.01-.503.531-.274.54-.897 1.08-1.386 1.2-.488.119-1.96 1.162-3.27 2.317-2.355 2.076-4.435 2.803-4.435 1.549 0-.303-.27-.775-.6-1.049-.33-.274-.6-.826-.6-1.226 0-.401-.54-1.048-1.2-1.438-.66-.39-1.2-.85-1.2-1.022 0-.173-.422-.314-.938-.314-.968 0-2.262-1.105-2.262-1.931 0-.601-.509-.6-1.109 0-.359.359-.711.359-1.499 0-1.412-.643-1.792-.59-1.792.251 0 1.039-.794 1.68-2.08 1.68-.729 0-1.12.21-1.12.6 0 .33-.21.6-.466.6-.257 0-.752.267-1.1.594-4.343 4.068-6.668 6.652-7.039 7.823-.139.435-.761 1.055-1.383 1.377-1.894.979-2.156.21-1.942-5.704.229-6.347.067-7.24-1.47-8.088-.66-.364-1.258-1.054-1.328-1.532-.166-1.128-1.672-1.211-1.672-.093m128 2.691l-1 1.054.129 8.488c.142 9.289-.186 11.79-1.544 11.79-.987 0-1.068 1.709-.168 3.513.523 1.05.599 3.085.5 13.462-.09 9.389-.004 12.225.369 12.225.267 0 .679.36.914.8.353.659.838.8 2.752.8 3.67 0 3.593.234 3.569-10.834-.021-9.978.167-11.166 1.77-11.166.803 0 .814-.035.154-.518-1.01-.738-.736-3.12.426-3.696.587-.29.764-.606.541-.966-.374-.606.275-2.82.827-2.82.199 0 .361-.344.361-.764 0-1.035 2.006-4.036 2.698-4.036.368 0 .473-.262.31-.774-.174-.548.167-1.198 1.173-2.234.781-.803 1.427-1.58 1.436-1.726.022-.343 3.801-3.262 4.246-3.28.185-.007 1.057-.361 1.937-.786 2.583-1.248 5-.772 5 .985 0 .291.429.636.954.768 1.19.298 1.645 2.406.806 3.733-.744 1.178-.726 2.153.034 1.861 1.144-.439 1.784 3.061 1.145 6.256-.157.788-.553 1.38-1 1.497-1.148.3-1.134 10.5.014 10.5 1.411 0 2.377 9.213 1.1 10.49-.897.897-.827 1.91.133 1.91 1.054 0 1.614 1.165 1.614 3.356 0 3.231 5.313 5.84 6.2 3.044.167-.525.623-.811 1.327-.832.59-.017.848-.122.573-.233-.786-.317-.694-7.686.1-7.99.882-.339.76-1.745-.151-1.745-1.642 0-2.866-6.326-1.49-7.702.965-.965.848-3.351-.178-3.619-.78-.204-.815-.478-.748-5.746.038-3.043-.13-6.793-.374-8.333-.695-4.39-.602-7.369.241-7.702.552-.217.449-.321-.485-.488-.94-.169-1.268-.503-1.582-1.611-.217-.77-.629-1.637-.914-1.928-.286-.29-.519-.687-.519-.881 0-.562-1.903-2.313-2.676-2.462-.387-.074-.891-.511-1.12-.97-.281-.563-.646-.754-1.122-.587-.389.137-2.337.215-4.33.175-3.095-.063-3.736.038-4.388.69-.42.42-1.102.764-1.515.764-.413 0-.975.27-1.249.6-.274.33-.836.6-1.249.6-.42 0-.751.281-.751.637 0 .351-.36.732-.8.847-.44.115-.8.458-.8.763a.565.565 0 01-.573.553c-.315 0-.687.36-.827.8-.14.44-.512.8-.827.8-.315 0-.573.171-.573.379 0 .756-1.97 2.485-2.677 2.35-1.007-.192-1.318-6.203-.34-6.578.922-.353.744-1.277-.273-1.423-.489-.07-1.082-.514-1.316-.985-1.245-2.508-3.957-3.011-5.794-1.075m-249.521-.014c-.299.32-.897.456-1.423.324-.943-.236-1.743.518-2.782 2.622-.272.55-.895 1.058-1.384 1.128-1.043.15-1.264 1.843-.29 2.217.521.199.6 2.547.6 17.767v17.538l-1.184.875c-1.245.92-5.216 1.282-5.216.475 0-.22-.18-.4-.4-.4-.22 0-.4.341-.4.757 0 2.379-11.183 2.203-11.611-.182-.167-.929-.269-1.028-.487-.475-.566 1.431-1.831.801-2.89-1.439-1.128-2.383-1.291-4.858-.399-6.037.753-.996.789-2.676.051-2.393-1.384.531-1.661-.944-1.798-9.592-.142-8.981.096-10.639 1.524-10.639.995 0 1.174-2.175.21-2.545-.475-.182-.6-1.023-.6-4.042 0-4.758-.455-5.413-3.757-5.413-1.549 0-2.222.169-2.388.6-.126.33-.72.6-1.319.6-1.01 0-1.036.039-.353.538 1.372 1.003.199 6.262-1.397 6.262-.949 0-1.067 1.269-.186 2 .474.394.6 1.537.6 5.462 0 4.043-.111 5.006-.6 5.193-.431.166-.6.839-.6 2.388 0 1.651.141 2.157.6 2.157.43 0 .6.439.6 1.551 0 .891-.255 1.763-.6 2.049-.771.64-.826 2.972-.064 2.68 1.927-.739 3.241 8.999 1.375 10.184-.35.222-.232.326.375.33 1.051.007 1.714 1.083 1.714 2.78 0 .823.197 1.226.6 1.226.33 0 .6.178.6.395 0 .217.72 1.072 1.599 1.9.88.828 1.6 1.705 1.6 1.95.001.252.412.365.952.262.626-.119 1.139.077 1.5.575.506.698 1.118.752 7.888.706 5.75-.039 7.383.065 7.542.479.112.291.367.427.567.303.201-.124.27-.378.155-.565-.442-.716 1.115-1.679 2.46-1.522 1.019.119 1.388-.014 1.563-.563.259-.819 1.615-.976 1.887-.22.098.275.017.815-.181 1.2-.285.553-.193.7.44.7.44 0 .993.36 1.228.8.353.659.838.8 2.752.8 3.875 0 3.583 1.857 3.752-23.807.15-22.885.234-24.193 1.543-24.193.57 0 .753-.291.753-1.2 0-1.025-.151-1.2-1.037-1.2-.701 0-1.106-.259-1.247-.8-.115-.44-.377-.8-.582-.8-.205 0-.59-.517-.856-1.149-.405-.964-.567-1.06-.999-.597m42.206.141c-.404 1.547-4.667 2.255-5.453.905-.348-.597-.409-.536-.42.413-.007.7-.271 1.195-.712 1.335-1.448.461-4.9 2.259-4.9 2.553 0 .168-.315.42-.7.559-1.182.427-2.504 1.294-3.337 2.188-1.546 1.659-3.001.563-3.424-2.577-.445-3.301-3.667-5.1-5.626-3.141-1.348 1.348-1.916 47.767-.612 50.046.809 1.413 3.803 1.689 5.089.469l.996-.945.007-14.651c.006-12.529.094-14.723.607-15.149.33-.274.6-.823.6-1.22 0-.398.242-.964.537-1.26.295-.295.751-.938 1.014-1.428.262-.491.741-.892 1.063-.892.322 0 .592-.315.599-.7.014-.781 1.728-2.9 2.345-2.9.218 0 .633-.315.921-.7.88-1.175 3.033-2.5 4.062-2.5.535 0 1.077-.27 1.204-.6.163-.425.826-.6 2.271-.6 1.281 0 2.265-.223 2.641-.6.809-.809 3.186-.787 3.5.033.494 1.286.256 4.858-.357 5.367-1.011.839-.792 3.517.3 3.672.54.077 1.14.627 1.5 1.376.553 1.15.722 1.231 2.161 1.039 1.215-.162 1.68-.045 2.1.529.501.685.539.662.539-.336 0-.64.323-1.275.8-1.573.741-.463.8-.933.8-6.416 0-4.89.104-5.956.6-6.146.343-.132.58-.683.554-1.288-.03-.677-.112-.806-.23-.357-.285 1.091-1.676.846-2.233-.395-.27-.601-.763-1.366-1.096-1.7-.334-.333-1.099-.826-1.7-1.096-.67-.301-1.095-.806-1.095-1.3 0-1.212-4.598-1.225-4.915-.014m35.653 1.183c-.076.517-.408 1.084-.738 1.26a93.896 93.896 0 01-3.9 1.931c-.495.226-.9.596-.9.821 0 .226-.166.41-.368.41-.484 0-3.632 3.122-3.632 3.601 0 .204-.36.564-.8.799-.44.235-.8.771-.8 1.19 0 .42-.164.864-.365.989-.525.324-2.035 3.55-2.035 4.347 0 .371-.36 1.034-.8 1.474-.584.584-.8 1.333-.8 2.774 0 2.6-.563 4.026-1.59 4.026-.981 0-1.063 1.023-.212 2.654.765 1.468.774 4.566.015 5.57-.795 1.05-.811 2.738-.025 2.436.94-.361 1.812.864 1.812 2.545 0 .851.198 1.67.441 1.82.242.15.703.836 1.024 1.524 1.586 3.403 4.564 6.651 6.099 6.651.218 0 .54.227.716.505.176.278.859.687 1.518.909.88.297 1.254.719 1.411 1.595.167.937.272 1.042.489.491.551-1.394 3.493-.545 3.514 1.014.011.794.055.813.42.186.52-.894 14.484-1.083 15.027-.204.207.335.383.172.54-.5.27-1.157 3.033-1.704 3.654-.724.238.376.337.272.341-.358.006-.944 1.053-1.714 2.331-1.714.427 0 1.001-.27 1.275-.6.274-.33.796-.6 1.16-.6.364 0 .944-.315 1.289-.7.344-.385 1.026-.97 1.514-1.3 2.32-1.569 3.351-6.248 1.706-7.738-1.506-1.362-3.284-.857-5.432 1.544-1.08 1.207-2.183 2.194-2.451 2.194-.268 0-.712.27-.986.6-.274.33-1.097.6-1.829.6-.836 0-1.473.252-1.711.678-.472.844-4.888 1.034-5.16.222-.269-.806-1.3-.574-1.3.292 0 1.603-4.901 1.705-5.128.108-.151-1.067-.112-1.061-1.927-.303-1.534.641-3.027.468-3.778-.436-.256-.309-.899-.561-1.429-.561-.529 0-1.067-.27-1.193-.6-.127-.33-.448-.6-.714-.6-.266 0-1.042-.63-1.723-1.4-.682-.77-1.414-1.4-1.627-1.4-.213 0-.493-.315-.623-.7-.129-.385-.465-1.017-.746-1.405-.61-.839 1.095-2.524 2.979-2.947.6-.134 1.297-.493 1.549-.796.252-.304.888-.552 1.413-.552s1.263-.36 1.64-.8c.861-1.006 2.489-1.07 2.554-.1.026.385.163.16.303-.5.28-1.318 1.877-1.916 2.499-.935.247.39.34.305.345-.316.008-1.108.835-1.771 1.872-1.5.601.157.883-.009 1.041-.617.15-.573.541-.832 1.256-.832.57 0 1.397-.36 1.837-.8.44-.44 1.138-.8 1.551-.8.413 0 .975-.27 1.249-.6.274-.33.907-.6 1.406-.6.5 0 1.006-.253 1.124-.562.119-.31.768-.684 1.443-.832.675-.148 1.227-.44 1.227-.648 0-.208.405-.553.9-.767 2.265-.979 2.66-1.375 4.337-4.351.647-1.15 1.36-1.888 1.9-1.968 1.011-.15 1.1-.577.263-1.272-.33-.274-.6-.724-.6-1s.27-.726.6-1c1.003-.832.738-1.931-.5-2.073-.917-.106-1.121-.344-1.225-1.427-.078-.805-.344-1.3-.7-1.3-.316 0-.575-.154-.575-.342 0-.54-1.911-2.458-2.449-2.458-.269 0-.772-.255-1.12-.566-.347-.311-1.261-.728-2.031-.925-1.101-.283-1.454-.611-1.653-1.534-.139-.646-.274-.867-.3-.491-.068.994-14.662.976-15.219-.019-.288-.515-.376-.459-.49.313m133.519.922c-.1.385-.514.703-.92.707-.405.003-1.727.536-2.937 1.184-1.21.647-2.61 1.362-3.11 1.587-.501.226-1.015.683-1.143 1.016-.128.333-.4.606-.605.606-.204 0-1.13.805-2.057 1.79-2.883 3.062-3.025 3.252-4.543 6.11-.379.715-.837 1.3-1.016 1.3-.179 0-.326.504-.326 1.12 0 1.316-.645 2.08-1.756 2.08-.763 0-.766.023-.065.535.945.691.109 7.15-.907 7.008-1.06-.148-1.272.194-1.272 2.057 0 1.72.11 2 .785 2 .998 0 1.684 2.345 1.764 6.032.042 1.911.248 2.823.754 3.329.789.788.904 1.872.268 2.508-.306.306-.133.504.6.688.626.157 1.029.539 1.029.974 0 1.002 3.504 4.515 5.413 5.428.873.417 1.857.885 2.187 1.04.33.156.658.67.728 1.143.114.764.194.793.728.259.74-.74 1.562-.749 5.194-.057 1.567.299 3.097.409 3.4.245 1.436-.78 3.998-.869 4.775-.166.747.676.775.665.775-.318 0-.992.638-1.505 1.87-1.505.332 0 1.061-.36 1.621-.8.559-.44 1.331-.8 1.714-.8s.921-.27 1.195-.6c.907-1.092 2.187-.676 4.042 1.314 1.863 1.997 4.259 3.691 5.205 3.679 2.161-.027 3.156-5.201 1.378-7.166-.83-.917-.793-2.289.075-2.795.597-.348.536-.409-.413-.42-1.213-.013-1.583-.587-1.647-2.554-.022-.689-.355-1.569-.74-1.956-.895-.898-.958-4.916-.102-6.556.83-1.593.822-9.221-.011-10.322-.86-1.138-.817-8.784.058-10.424 1.386-2.596-.378-7-2.803-7-.299 0-.756-.256-1.016-.569-.26-.313-1.168-.686-2.018-.83-.85-.143-1.641-.509-1.757-.813-.362-.943-14.149-1.027-14.394-.088M197.3 183.464c.165.101.3.545.3.988 0 .743.05.755.649.156.466-.466 1.005-.574 1.9-.382 1.687.362 1.851.489 1.851 1.447 0 .654.114.731.549.369.65-.539 1.851-.177 1.851.558 0 .283.27.618.6.745 1.139.437-.631 3.005-2.097 3.042-.273.007-.721.373-.996.813-.275.44-.743.8-1.04.8-.298 0-.998.36-1.558.8-.559.44-1.263.8-1.563.8-.3 0-.546.177-.546.392 0 .216-.495.514-1.1.661-.605.148-1.529.602-2.054 1.008-.525.406-1.212.739-1.529.739-.316 0-.844.27-1.174.6-.33.33-.925.6-1.323.6-.397 0-.937.258-1.199.574-.262.316-.991.688-1.621.826s-1.359.51-1.621.826c-.262.316-.883.574-1.379.574s-1.126.27-1.4.6c-.274.33-.973.6-1.553.6-.621 0-1.26.329-1.554.8-.603.965-1.798 1.038-2.531.154-.459-.552-.409-.749.345-1.359.713-.578.768-.757.287-.942-1.422-.546-.335-3.429 1.32-3.499.677-.029.822-.116.386-.23-.78-.203-1.013-2.684-.294-3.128.223-.138.678-.823 1.011-1.523.332-.7.825-1.641 1.094-2.091.617-1.031 3.725-4.182 4.126-4.182.165 0 .623-.292 1.018-.65.859-.777 2.708-.856 3.154-.135.221.357.36.221.455-.448.19-1.344 5.444-2 7.236-.903m133.279.239c.252.346.99.689 1.64.763 1.427.162 1.316-.833 1.467 13.105.087 8.051-.005 10.691-.386 11.072-.682.682-.644 2.557.051 2.557.757 0 1.292.767 1.573 2.254.245 1.293-2.636 4.946-3.902 4.946-.274 0-.824.36-1.222.8-.398.44-1.101.806-1.562.813-.461.007-1.187.277-1.614.6-.566.427-1.89.587-4.868.587-4.828 0-5.356-.15-5.356-1.523 0-.807-.107-.93-.48-.557-1.048 1.048-5.12-2.061-5.12-3.909 0-.343-.36-1.295-.8-2.115-.972-1.815-1.092-5.009-.2-5.351.801-.308.803-3.665.002-5.199-.905-1.736-.771-4.014.298-5.078.584-.582.856-1.268.776-1.955-.087-.742.123-1.191.7-1.5.453-.243.824-.773.824-1.178 0-.405.27-.961.6-1.235.33-.274.6-.746.6-1.049 0-.303.27-.551.6-.551.33 0 .6-.227.6-.504 0-.278.559-.953 1.242-1.5.683-.548 1.48-1.221 1.771-1.496.292-.275.903-.5 1.358-.5.456 0 .85.225.876.5.026.275.162-.04.302-.7.216-1.019.465-1.22 1.653-1.331.769-.072 1.668-.364 1.998-.648 1.397-1.203 5.729-1.28 6.579-.118M86.515 229.896c1.273.08 3.253.079 4.4-.002 1.147-.08.105-.145-2.315-.144-2.42.001-3.358.066-2.085.146m106.992-.006c.719.089 1.799.087 2.4-.004s.013-.164-1.307-.162c-1.32.002-1.812.077-1.093.166m36.793-.001c.715.089 1.885.089 2.6 0 .715-.088.13-.161-1.3-.161-1.43 0-2.015.073-1.3.161m87.616.008c1.383.078 3.543.077 4.8-.002 1.256-.079.124-.143-2.516-.142-2.64 0-3.668.065-2.284.144m41.384-.021c.385.1 1.015.1 1.4 0 .385-.101.07-.183-.7-.183s-1.085.082-.7.183m-115.446 33.926c-.997.521-7.249.598-48.3.598H148.4v22.957c0 20.565.066 22.983.633 23.2.348.134 5.728.243 11.957.243 13.36 0 13.353-.004 9.01 4.477-.33.34-1.77 1.929-3.2 3.531a200.1 200.1 0 01-5.3 5.666c-1.485 1.515-2.7 2.829-2.7 2.922 0 .337-2.048 2.204-2.418 2.204-.21 0-.382.196-.382.436 0 .239-.765 1.199-1.7 2.132a77.099 77.099 0 00-3.5 3.812 122.203 122.203 0 01-3.9 4.312c-1.155 1.208-2.1 2.247-2.1 2.309 0 .061-2.25 2.405-5 5.207s-5 5.212-5 5.355c0 .142-.315.541-.7.884-.385.344-1.87 1.943-3.3 3.553-1.43 1.61-4.175 4.542-6.1 6.515-1.925 1.973-3.5 3.664-3.5 3.759 0 .094-.895 1.029-1.988 2.077-1.094 1.049-2.596 2.674-3.338 3.612l-1.349 1.705 2.553 2.566c1.405 1.411 2.686 2.566 2.849 2.566.162 0 .588.315.946.7.358.385 1.598 1.51 2.756 2.5 1.158.99 2.768 2.475 3.577 3.3.808.825 1.695 1.5 1.969 1.5.416 0 6.425-5.829 6.425-6.233 0-.31 2.072-2.167 2.418-2.167.21 0 .382-.23.382-.511 0-.554 2.256-2.689 2.841-2.689.198 0 .361-.225.364-.5.003-.275.678-1.233 1.5-2.128s2.935-3.215 4.695-5.155c1.76-1.94 5.18-5.556 7.6-8.035 2.42-2.478 4.94-5.18 5.6-6.002.66-.823 2.145-2.48 3.3-3.683 1.155-1.202 2.1-2.255 2.1-2.34 0-.084 1.53-1.7 3.4-3.591 1.87-1.892 3.4-3.503 3.4-3.582 0-.373 1.946-2.184 2.346-2.184.25 0 .454-.18.454-.4 0-.22.72-1.12 1.6-2 .88-.88 1.6-1.676 1.6-1.769 0-.188 2.671-3.14 5.9-6.521 1.155-1.21 2.1-2.359 2.1-2.555 0-.195.27-.355.6-.355.33 0 .6-.18.6-.4 0-.22 1.305-1.723 2.9-3.341 6.87-6.968 7.97-8.639 6.495-9.863-1.833-1.521-.595-1.607 21.557-1.499L240.6 311l.12.841c.094.655.335.799 1.095.654.695-.133 1.055.028 1.254.559.153.41.605.981 1.005 1.269.399.287.726.993.726 1.568 0 .575.289 1.365.642 1.755.991 1.096 1.305 8.764.415 10.124-.85 1.296-.831 1.83.063 1.83 1.683 0 2.468 3.501.98 4.368-.597.348-.537.409.41.42 1.256.014 1.89 1.151 1.89 3.389 0 .729.27 1.549.6 1.823.33.274.6.932.6 1.462 0 .529.257 1.062.572 1.183.315.12.762.7.994 1.287.232.587.605 1.383.828 1.768 1.018 1.756 1.23 2.151 1.562 2.908.333.759 1.766 2.582 3.344 4.251.385.408.7.898.7 1.089 0 .192 1.08 1.432 2.4 2.756 1.32 1.324 2.4 2.607 2.4 2.852 0 .244.289.444.642.444.628 0 3.243 1.835 4.674 3.278.393.397.888.722 1.1.722.211 0 .384.27.384.6 0 .375.379.6 1.013.6.556 0 1.111.259 1.233.576.121.316.733.688 1.36.825.626.138 1.353.509 1.615.825.262.316.793.574 1.179.574s.926.27 1.2.6c.274.33.722.6.995.6s.955.36 1.514.8c.622.489 1.623.8 2.574.8 1.731 0 2.511.549 2.529 1.78.011.749.048.759.42.12.884-1.518 4.985-.545 4.669 1.107-.221 1.156 1.814 1.512 2.244.393.342-.892 31.903-.906 32.643-.015.394.475.291.766-.551 1.546-.571.528-1.037 1.091-1.037 1.249 0 .255-1.071 1.514-3.3 3.878-.385.408-.7.826-.7.928 0 .103-1.53 1.755-3.4 3.672-1.87 1.917-3.4 3.633-3.4 3.814 0 .18-.27.328-.6.328-.33 0-.6.208-.6.463s-1.037 1.47-2.306 2.7c-1.268 1.23-2.921 3.047-3.673 4.037-.752.99-1.88 2.29-2.506 2.888l-1.139 1.089 3.051 3.011c1.678 1.657 3.214 3.012 3.412 3.012.199 0 .361.227.361.504 0 .753 1.391 1.476 2.354 1.224.465-.122.846-.382.846-.577 0-.196 1.575-1.953 3.5-3.904 3.877-3.929 6.5-6.802 6.5-7.12 0-.114.801-1.044 1.781-2.067 5.957-6.221 7.819-8.254 7.819-8.539 0-.177.27-.321.6-.321.33 0 .6-.183.6-.408 0-.224.986-1.439 2.192-2.7 5.052-5.283 6.014-6.931 4.408-7.547-1.592-.611-.486-1.532 2.2-1.833l1-.112.103-23.09.103-23.091-22.303-.109-22.303-.11-2.1-1.394c-1.155-.766-2.1-1.646-2.1-1.955 0-.31-.298-.78-.661-1.046-.837-.612-1.041-5.835-.239-6.104.882-.296.649-3.701-.253-3.701-.89 0-1.145-.776-1.51-4.6-.147-1.54-.486-2.98-.753-3.2-.822-.678-1.034-2.893-.342-3.585.554-.553.534-.615-.199-.615-.984 0-1.643-1.112-1.643-2.774 0-.674-.178-1.226-.395-1.226-.217 0-.648-.608-.959-1.351-.31-.743-.763-1.474-1.005-1.624-.243-.15-.441-.602-.441-1.006 0-.403-.27-.837-.6-.964-.33-.126-.6-.536-.6-.911s-.299-1.011-.664-1.415c-.773-.854-1.615-2.23-1.976-3.229-.139-.385-.508-.7-.819-.7-.311 0-.685-.315-.83-.7-.292-.775-7.073-7.7-7.54-7.7-.162 0-.941-.689-1.732-1.531-.792-.842-2.293-1.938-3.337-2.435-1.044-.497-1.999-1.068-2.123-1.269-.125-.201-.554-.365-.954-.365-.4 0-.951-.27-1.225-.6-.274-.33-.812-.6-1.195-.6s-1.155-.36-1.714-.8c-.56-.44-1.268-.8-1.574-.8-.306 0-.782-.225-1.057-.5-.275-.275-1.436-.68-2.58-.9-1.854-.357-2.094-.519-2.207-1.5-.138-1.199-.652-1.452-1.018-.5-.488 1.273-5.055.334-5.055-1.039 0-.941-1.311-1.011-2.946-.159m-140.363 86.887c.71.088 1.97.09 2.8.003.83-.087.249-.159-1.291-.161-1.54-.002-2.219.069-1.509.158m10.809 0c.715.089 1.885.089 2.6 0 .715-.088.13-.161-1.3-.161-1.43 0-2.015.073-1.3.161"/><path d="M59.2 2.751c0 .957-1.575 1.616-4.315 1.806-1.276.089-2.421.423-2.886.844a2.101 2.101 0 01-1.799.501c-.73-.14-1.144.02-1.428.551-.22.411-.585.747-.811.747-.691 0-4.761 2.037-4.761 2.382 0 .179-.315.439-.7.578-1.301.47-2.371 1.246-3.786 2.746-.774.822-1.612 1.494-1.861 1.494-.249 0-.453.27-.453.6 0 .33-.27.6-.6.6-.33 0-.6.276-.6.613 0 .336-.259.711-.575.833-.315.121-1.417 1.465-2.447 2.987-1.298 1.916-2.136 2.777-2.726 2.799-.469.017-.627.122-.352.233.767.31.594 1.657-.273 2.121-.426.227-.831.909-.9 1.514-.091.788-.383 1.136-1.027 1.228-.874.124-1.303.872-.5.872.522 0 .513 1.441-.014 2.426-.228.426-.768.774-1.2.774-.952 0-.987.256-.15 1.093 1.179 1.179.333 4.71-1.275 5.322-1.494.568-1.508 10.597-.016 11.164 1.105.42 1.333.908 1.692 3.613.181 1.365.106 2.195-.235 2.605-.417.503-.367.603.306.603.845 0 1.292.716 1.292 2.07 0 .442.36 1.261.8 1.821.44.559.8 1.331.8 1.714s.27.921.6 1.195c.33.274.6.724.6 1s.27.726.6 1c.33.274.6.77.6 1.102 0 .332.594 1.165 1.32 1.851.726.686 1.441 1.562 1.588 1.947.147.385.453.7.679.7.227 0 .413.201.413.447 0 .61 2.518 3.047 5.3 5.128 1.265.947 2.3 1.953 2.3 2.236 0 .3.303.435.728.324.4-.105.962.092 1.249.437.286.345.852.628 1.256.628.405 0 1.058.344 1.451.765.394.421 1.256.826 1.916.9.981.11 1.224.342 1.33 1.27.119 1.043.173 1.077.654.419.769-1.051 3.56-.345 3.744.946.141.992 1.205 1.207 2.007.405.693-.693 16.248-.682 16.942.012.734.734 1.523.578 1.523-.303 0-.948 1.124-1.614 2.725-1.614.647 0 1.401-.27 1.675-.6.603-.727 2.654-.796 2.935-.1.111.275.216.117.233-.351.048-1.287 1.11-2.018 2.064-1.422.663.414.768.368.768-.334 0-.49.381-.958.961-1.178.529-.201 1.079-.557 1.224-.79.144-.234.612-.425 1.039-.425.443 0 .776-.273.776-.637 0-.351.36-.732.8-.847.44-.115.8-.458.8-.763 0-.304.166-.553.369-.553.68 0 4.571-4.227 6.463-7.02 2.148-3.172 2.353-3.511 2.813-4.68.238-.605.74-1.1 1.114-1.1.534 0 .647-.284.526-1.322-.102-.871.062-1.502.48-1.849.349-.29.635-1.033.635-1.652 0-1.805.67-3.103 1.674-3.246 1.1-.157 1.478-1.502.567-2.012-.966-.541-.96-15.143.007-16.109.708-.709.616-.906-.741-1.58-1.339-.664-1.935-3.328-.912-4.076.718-.525.703-.554-.276-.554-1.05 0-1.519-.631-1.519-2.045 0-.429-.27-.884-.6-1.01-.33-.127-.6-.655-.6-1.174 0-.533-.347-1.129-.8-1.371-.44-.235-.8-.774-.8-1.196 0-.422-.405-1.198-.9-1.724-2.161-2.298-3.1-3.431-3.102-3.744-.005-.884-7.346-7.336-8.347-7.336-.201 0-.464-.256-.584-.569-.12-.313-.633-.628-1.14-.7-.668-.095-.98-.462-1.133-1.331-.139-.789-.319-1.029-.526-.7-.439.697-2.134.626-2.413-.1-.132-.346-.73-.6-1.41-.6-1.791 0-2.445-.388-2.445-1.452 0-.921-.044-.937-.933-.355-1.603 1.05-5.867.021-5.867-1.417C70.8 2.044 70.475 2 65 2c-5.408 0-5.8.051-5.8.751M51.795 94.5c-.217.495-1.025 1.129-1.795 1.41l-1.4.509 1.543-.235c2.348-.359 3.326-.84 3.565-1.753.314-1.202-1.383-1.14-1.913.069m37.305.2c15.455.058 40.745.058 56.2 0 15.455-.058 2.81-.105-28.1-.105s-43.555.047-28.1.105m-42.372 1.4c-.152 1.072-1.636 1.425-2.65.631-.61-.478-.623-.46-.129.169 1.067 1.361 3.651.667 3.651-.98 0-1.037-.72-.888-.872.18M42.4 97.186c0 1.377-3.634 2.356-4.135 1.114-.111-.275-.216-.131-.233.32-.018.451-.248 1.036-.512 1.3-.313.313-.33.48-.049.48.237 0 .636-.247.886-.548.25-.302 1.179-.645 2.065-.764 2.153-.289 4.276-2.688 2.378-2.688-.22 0-.4.354-.4.786m-6.584 3.589c-.146.235-.689.321-1.208.191-.769-.193-.968-.064-1.076.699-.1.708-.383.932-1.165.924-.688-.007-1.176.294-1.462.9-.46.975.04 1.284.575.356.176-.306.675-.622 1.11-.704.434-.081.974-.511 1.2-.954.246-.482.707-.746 1.152-.658.774.152 1.778-.543 1.371-.949-.128-.128-.352-.041-.497.195m-7.64 4.732c-1.359 1.279-2.759 2.01-4.165 2.176-.743.088-1.091.465-1.4 1.517-.508 1.73-2.109 3.6-3.083 3.6-.4 0-.728.191-.728.424 0 .233-.2.3-.445.148-.666-.411-1.145.655-.65 1.448.348.556.168 1.025-.914 2.391-1.086 1.371-1.176 1.609-.469 1.231.483-.259.878-.633.878-.831 0-.199.54-.953 1.2-1.675.66-.723 1.2-1.634 1.2-2.025s.225-.716.5-.722c.275-.006 1.204-.816 2.065-1.8.861-.984 1.697-1.789 1.859-1.789.309 0 1.781-1.201 4.529-3.695.906-.822 1.456-1.497 1.223-1.5-.233-.003-.953.493-1.6 1.102M14.235 120.2c-.51.55-1.223 1-1.584 1-.554 0-.58.124-.166.787.469.751.527.728 1.292-.5.44-.708 1.076-1.506 1.412-1.774.336-.268.467-.493.292-.5-.176-.007-.736.437-1.246.987m-2.019 3.373c-.145.235-.649.427-1.12.427-.666 0-.749.107-.376.48.739.739.572 1.507-.42 1.929-.889.378-.887.382.096.287.637-.061 1.048-.385 1.141-.896.08-.44.426-1.116.769-1.502.342-.387.522-.804.398-.927-.123-.123-.343-.032-.488.202m-2.726 4.451c.159.605-.01.882-.637 1.046-.622.163-.853.536-.853 1.377 0 .886-.185 1.153-.8 1.153-.44 0-.8.18-.8.4 0 .58 1.427.491 1.934-.121.238-.286.336-.891.217-1.345-.157-.601.009-.883.617-1.041.835-.219 1.26-2.293.469-2.293-.199 0-.265.371-.147.824M6.846 135.3c-.031.468-.378.7-1.046.7-1.01 0-1.337.545-.6 1 1.029.636.314 4.2-.843 4.2-.416 0-.757.18-.757.4 0 .613 1.068.475 1.771-.229.388-.388.629-1.328.629-2.455 0-1.218.215-1.985.643-2.298a1.24 1.24 0 00.447-1.244c-.167-.656-.204-.667-.244-.074m110.754 6.3l-55.4.2-.128.9c-.086.605.078.9.5.9.345 0 .628-.27.628-.6 0-.53 6.353-.6 54.776-.6 50.521 0 56.733-.104 55.164-.927-.077-.04-25.07.017-55.54.127M4.304 145.108c.201 3.859.397 4.341.443 1.092.023-1.54-.1-3.021-.272-3.292-.171-.27-.249.72-.171 2.2m52.874-1.714c-2.87 2.069-3.578 2.712-3.578 3.251 0 .305-.2.555-.445.555-.268 0-.375.48-.27 1.2.142.965.031 1.2-.564 1.2-.875 0-1.542 1.51-1.471 3.326.046 1.176.07 1.151.314-.326.34-2.06.694-2.6 1.703-2.6.669 0 .775-.179.575-.975-.135-.537-.064-1.088.157-1.224.22-.137.401-.598.401-1.025 0-.427.173-.776.384-.776.212 0 .738-.379 1.17-.843.433-.464 1.023-.765 1.313-.668.29.097.717-.199.95-.657.241-.474.793-.819 1.283-.802.473.016.769-.119.657-.3-.353-.57-1.155-.364-2.579.664M3.995 150.5c-.009 2.079-.418 3.1-1.242 3.1C2.018 153.6 2 155.96 2 255c0 100.35.008 101.4.782 101.4.749 0 .957.553 1.345 3.572.04.314.073-46.981.073-105.1 0-58.12-.045-105.672-.1-105.672-.055 0-.102.585-.105 1.3M51.4 254.8c0 55.178.135 100.24.3 100.138.165-.102.3-45.164.3-100.138 0-54.974-.135-100.036-.3-100.138-.165-.102-.3 44.96-.3 100.138m178.246-82.52c-.025.484-.329 1.039-.675 1.232-.347.194-.846.788-1.11 1.32-.265.533-.882 1.026-1.371 1.096-1.276.183-1.104.95.179.799.776-.092 1.177-.452 1.462-1.313.216-.652.745-1.471 1.176-1.82.477-.386.705-.938.584-1.414-.178-.7-.203-.689-.245.1m2.026.19c.07.478.668 1.168 1.328 1.532 1.537.848 1.699 1.741 1.47 8.088-.214 5.914.048 6.683 1.942 5.704.622-.322 1.244-.942 1.383-1.377.401-1.265 5.833-7.217 6.586-7.217.183 0 .45-.305.593-.678.245-.636.215-.636-.488 0-.412.373-.941.678-1.175.678-.234 0-.529.27-.656.6-.126.33-.506.6-.842.6-.337 0-.613.255-.613.567 0 .311-.159.626-.354.7-.472.177-3.246 3.844-3.246 4.29 0 .536-1.97 1.709-2.411 1.436-1.034-.639-.248-8.393.851-8.393.314 0 .616-.484.687-1.1.1-.869-.039-1.1-.658-1.1-.928 0-1.358-.905-1.038-2.182.201-.799.045-.952-1.2-1.186-1.062-.199-1.431-.47-1.431-1.05 0-.43-.193-.782-.428-.782s-.37.391-.3.87m131.211 1.145c-.296.474-.298.81-.008 1.1.23.23.626.838.881 1.351.461.928 2.244 1.555 2.244.79 0-.22-.405-.458-.9-.528-.785-.112-.887-.336-.8-1.761.107-1.757-.612-2.24-1.417-.952m-5.183.983c-.658.748-.633 1.028.069.759.601-.231 1.21-1.368.718-1.342-.158.009-.512.271-.787.583M109.2 175c0 .33.329.929.731 1.331.401.401.846 1.031.987 1.4.163.425.662.649 1.369.615.98-.048 1.002-.076.189-.231-.509-.098-1.035-.478-1.17-.846s-.484-.813-.776-.989c-.291-.176-.53-.671-.53-1.1 0-.429-.18-.78-.4-.78-.22 0-.4.27-.4.6m40.4-.014c0 .854-1.491 1.514-3.017 1.336-.73-.085-1.239-.012-1.131.162.304.492 3.037.361 4.144-.2 1.151-.582 1.589-1.884.633-1.884-.346 0-.629.264-.629.586m6 .223c0 .494.425.999 1.095 1.3.601.27 1.366.763 1.7 1.096.333.334.826 1.099 1.096 1.7.472 1.052 2.109 1.591 2.109.695 0-.22-.364-.4-.81-.4-.471 0-.954-.376-1.154-.9-.385-1.006-1.477-2.051-2.536-2.427-.385-.136-.7-.614-.7-1.06 0-.447-.18-.813-.4-.813-.22 0-.4.364-.4.809m93.2.004c0 .962-1.062 1.485-1.707.84-.643-.643-1.109-.561-.838.147.276.717 2.188.797 2.865.12.581-.581.637-1.92.08-1.92-.22 0-.4.366-.4.813m5.2-.275c0 .795 1.336 1.862 2.331 1.862.478 0 .869.141.869.314 0 .172.54.632 1.2 1.022.66.39 1.2 1.037 1.2 1.438 0 .4.27.952.6 1.226.378.314.6.341.6.073 0-.234-.195-.546-.432-.693-.238-.147-.325-.698-.193-1.224.187-.746.08-.956-.487-.956-.951 0-1.68-.755-1.72-1.78-.017-.451-.122-.595-.233-.32-.111.275-.615.5-1.119.5-1.038 0-2.017-.952-1.627-1.582.142-.23-.022-.418-.365-.418-.343 0-.624.242-.624.538m21.772-.183c.399.646-.843 1.257-3.223 1.585-1.89.261-1.308.318 2.98.292 3.975-.024 4.953-.121 3.849-.384-.918-.218-1.554-.636-1.676-1.1-.123-.473-.554-.748-1.172-.748-.538 0-.879.16-.758.355m110.628.082c-.528.373-.528.404-.003.261.328-.089.783.21 1.01.666.227.456.73.89 1.117.964.773.149 2.676 1.9 2.676 2.462 0 .194.233.591.519.881.285.291.696 1.159.912 1.929.329 1.169.59 1.412 1.582 1.472.699.042.858-.013.387-.134-1.035-.266-1.8-1.265-1.8-2.352 0-.864-3.596-4.986-4.35-4.986-.218 0-.51-.36-.65-.8-.287-.904-.542-.97-1.4-.363m-281.211.663c-.324.385-.81 1.195-1.08 1.8-.302.675-.804 1.1-1.3 1.1-.445 0-.809.193-.809.428 0 .92 1.812.13 2.359-1.028.311-.66.997-1.605 1.524-2.1.569-.535.742-.9.427-.9-.293 0-.797.315-1.121.7m271.895.1c-.115.44-.497.8-.848.8s-1.311.36-2.132.8c-1.137.61-1.291.8-.647.8.465 0 1.069-.27 1.343-.6.274-.33.827-.6 1.228-.6.402 0 1.216-.45 1.81-1 .989-.917 1.011-1 .267-1-.475 0-.898.332-1.021.8m4.821-.517c.497.096 1.217.092 1.6-.008.382-.1-.025-.179-.905-.174-.88.004-1.193.086-.695.182m-308.185.679c-.176.308-.77.644-1.32.745-.972.179-.969.186.113.239.659.032 1.206-.19 1.342-.546.166-.431.839-.6 2.388-.6 3.297 0 3.757.659 3.757 5.376 0 2.077.135 3.861.3 3.963.805.501.044-7.941-.797-8.839-1.016-1.085-5.218-1.331-5.783-.338m50.827.338c.041.275.208.712.371.972.628 1.006-.582 8.128-1.382 8.128-.705 0-.736.853-.736 20.172v20.172l.9.128c.8.114.893.339.835 2.028-.063 1.866.381 2.398 1.285 1.539.209-.199.74-.448 1.18-.554.733-.176.726-.196-.086-.239-1.847-.096-1.907-.691-2.031-20.246-.127-19.981.252-30.065 1.15-30.621.426-.262.338-.51-.407-1.156-1.111-.964-1.18-.984-1.079-.323m19.899.18c-.025.484-.361 1.064-.746 1.288-.663.386-.663.408.013.42.815.014 1.241-.808.967-1.865-.151-.585-.196-.555-.234.157m41.082.212c-.166 1.158-2.194 1.966-2.745 1.093-.302-.477-.372-.442-.377.186-.003.424-.591 1.272-1.306 1.884-.715.612-1.075 1.12-.8 1.129.275.009.5-.168.5-.394 0-.225.405-.595.9-.821a93.896 93.896 0 003.9-1.931c.686-.366 1.06-2.038.456-2.038-.22 0-.458.401-.528.892m17 .105c.051.851.303 1.236.872 1.336.73.127.742.092.134-.397-.367-.295-.759-.896-.872-1.336-.12-.466-.176-.301-.134.397m66.672-.217c0 .429-.315.964-.7 1.188-.614.357-.62.409-.049.42.699.013 1.275-.567 1.674-1.688.165-.462.05-.7-.338-.7-.323 0-.587.351-.587.78m50 .187c0 .531-.225 1.057-.5 1.168-.285.115-.183.215.237.233.41.018.828-.311.94-.74.133-.508.428-.695.862-.547.479.164.44.05-.139-.414-1.106-.887-1.4-.823-1.4.3m14.224-.354c-.69.522-.7.587-.088.587.379 0 .793.27.919.6.127.33.526.586.888.568.415-.02.473-.106.157-.233-.275-.111-.5-.637-.5-1.168 0-1.108-.283-1.181-1.376-.354m-146.387.24c.084.139 3.08.244 6.658.234 4.988-.015 5.992-.097 4.305-.35-2.463-.37-11.199-.277-10.963.116M323.8 176.4c-1.386.19-.403.278 3.2.287 3.803.009 4.717-.073 3.4-.307-2.08-.371-3.791-.365-6.6.02m32.855.2c-.126.33-.596.6-1.042.6-.727 0-.813.254-.813 2.4 0 2.077.101 2.4.748 2.4.86 0 1.24 1.598 1.248 5.244.007 3.973-.409 5.956-1.25 5.956-.604 0-.746.306-.746 1.6 0 2.33 1.382 2.295 2.014-.051.346-1.284.466-18.746.129-18.749-.032 0-.161.27-.288.6m-228.055.095c.66.096 1.522.519 1.916.94.393.421.83.765.969.765.14 0-.168-.45-.685-1-.647-.689-1.322-.981-2.17-.94l-1.23.06 1.2.175m153.4.705c.274.33.754.6 1.068.6.313 0 .876.539 1.251 1.197.374.659.816 1.199.981 1.2.165.002.3.342.3.757 0 .88 1.831 2.244 2.203 1.641.135-.218-.216-.572-.779-.786-1.079-.41-1.415-1.785-.524-2.144.275-.111.091-.216-.409-.233-.557-.02-1.081-.411-1.355-1.012-.245-.539-.988-1.169-1.651-1.4-1.576-.55-1.677-.533-1.085.18m-209.687.991c.245 1.665-.629 4.054-1.433 3.919-.358-.061-.716.205-.795.59-.2.976 1.365.928 1.892-.058.587-1.095.991-5.091.544-5.367-.215-.133-.304.26-.208.916m153.989-.191c.105.55.26 1 .345 1 .084 0 .153-.45.153-1s-.155-1-.345-1c-.189 0-.258.45-.153 1m111.744-.7c-.025.275-.541.525-1.146.554-.899.045-.941.086-.229.224.479.094 1.086.429 1.349.746.263.317.76.576 1.105.576.562 0 .561-.052-.015-.5-.353-.275-.727-.86-.83-1.3-.103-.44-.208-.575-.234-.3m-132.846.534c-.55.158-.707.304-.349.326.358.022.875.31 1.149.64s.78.6 1.125.6c.569 0 .569-.047-.003-.5-.346-.275-.696-.692-.776-.926-.088-.255-.546-.311-1.146-.14m-64.6.703c-.66.364-1.261.802-1.336.971-.224.508-2.364 1.492-3.244 1.492-.536 0-.82.261-.82.751 0 2.545-1.907 1.809-2.979-1.151l-.652-1.8.234 1.79c.388 2.953 1.85 3.979 3.36 2.358.741-.796 1.811-1.523 3.237-2.202.33-.157.744-.524.92-.816.176-.291.536-.531.8-.533.264-.001 1.02-.36 1.68-.797 1.44-.954.5-1.003-1.2-.063m126.055-.137c-.126.33-.484.6-.794.6-.311 0-1.306.72-2.213 1.6-.907.88-1.424 1.592-1.148 1.582.639-.024 5.455-4.38 4.843-4.381-.252-.001-.561.269-.688.599m49.345-.242c0 .54-3.204 2.015-3.843 1.77-.366-.14-.557.071-.557.615 0 .456-.339 1.01-.753 1.232-.414.221-.864.723-1.001 1.114-.235.675-.22.676.297.011.3-.385.731-.7.958-.7.228 0 .518-.273.646-.606.128-.333.642-.79 1.143-1.016 3.434-1.547 5.285-2.765 4.21-2.771-.605-.004-1.1.154-1.1.351m48.954.619c-.122.317-.151.902-.065 1.3.098.451.235.235.365-.577.217-1.362.076-1.704-.3-.723M208 179.876c0 .19.338.636.752.99.413.354.827.871.92 1.149.092.278.344.433.559.345.215-.088-.199-.761-.92-1.495-.721-.735-1.311-1.18-1.311-.989m132-.061c0 .173.519.78 1.154 1.349.635.57 1.244 1.396 1.354 1.836.178.715.204.703.246-.117.044-.877-.535-1.679-2.054-2.844-.385-.295-.7-.396-.7-.224M111.42 181.7c-.15.495-.333 3.51-.406 6.7-.073 3.19-.063 4.99.022 4 .085-.99.262-3.105.393-4.7.207-2.507.343-2.9 1.005-2.9.653 0 .766-.296.766-2 0-2.206-1.216-2.957-1.78-1.1m66.636.499c-.702.77-1.136 1.396-.966 1.39.466-.017 2.674-2.358 2.442-2.59-.111-.111-.775.429-1.476 1.2m48.472 1.001c0 1.43.073 2.015.161 1.3.089-.715.089-1.885 0-2.6-.088-.715-.161-.13-.161 1.3m142.572-1.533c-.533.558-.567.733-.143.733.307 0 .671-.296.81-.657.35-.912.153-.935-.667-.076m-177.7 1.466c-.833.189-1.239.546-1.328 1.17-.158 1.112.557 1.194.844.097.181-.691.546-.8 2.684-.8s2.503.109 2.684.8c.269 1.027 1.316 1.045 1.316.024 0-1.189-3.465-1.91-6.2-1.291m19.522.667c.067 1.029.249 1.211 1.278 1.278 1.099.072 1.117.054.215-.214-.555-.165-1.114-.724-1.279-1.279-.268-.902-.286-.884-.214.215m114.278-.738c-.33.133-.87.475-1.2.759-.33.284-1.23.576-2 .648-1.238.116-1.409.269-1.478 1.331-.074 1.123-.06 1.136.224.2.268-.887.514-.997 2.178-.975 1.312.018 1.876-.136 1.876-.51 0-1.329 3.6-1.715 4.8-.515.497.497 1.333.8 2.206.8 1.273 0 1.405.104 1.384 1.1-.012.605.157 1.82.376 2.7l.397 1.6-.178-1.6c-.097-.88-.224-2.14-.281-2.8-.087-1.003-.298-1.222-1.285-1.334-.65-.074-1.388-.417-1.64-.763-.478-.653-4.237-1.101-5.379-.641m39.728.735c.096 1.595 1.227 1.784 2.495.416 1.381-1.49 1.216-1.792-.226-.41-1.239 1.187-1.736 1.094-2.13-.403-.126-.48-.182-.321-.139.397m14.527-.239c-1.511.715-1.522.736-.5.931.575.11 1.045.051 1.045-.13 0-1.651 3.401-1.254 3.739.436.189.945.452 1.205 1.218 1.205.537 0 1.067.225 1.178.5.122.302.214.225.233-.192.02-.42-.363-.792-.968-.944-.55-.138-1-.488-1-.779 0-1.733-2.4-2.231-4.945-1.027m-229.998.242c-.33.33-1.018.618-1.528.64-.922.039-.921.042.071.36 1.674.536 2.297.437 2.516-.4.29-1.11 1.812-1.043 2.272.1.199.495.373.69.387.433.092-1.701-2.393-2.458-3.718-1.133m158.315 1.2c-.66.792-1.536 1.4-2.014 1.4-.677 0-.81.192-.665.953.1.524-.015 1.075-.255 1.224-.241.148-.438.554-.438.901 0 .444.235.331.8-.387.44-.56.8-1.174.8-1.365 0-.192.315-.652.7-1.023 1.014-.978 1.926-2.029 2.258-2.603.534-.924-.01-.511-1.186.9m-131.372-.694c0 .242-.36.554-.8.694-.44.14-.8.591-.8 1.003 0 .413-.18.861-.4.997-.22.136-.4.439-.4.673 0 .268.222.241.6-.073.33-.274.6-.814.6-1.2s.405-.975.9-1.307c.495-.333.765-.745.6-.916-.165-.171-.3-.112-.3.129m98.72.089c.726.172 1.367.378 1.423.459.057.08.651.866 1.322 1.746.67.88 1.321 1.87 1.445 2.2.169.447.235.405.258-.166.018-.422-.223-1.052-.534-1.4-2.56-2.868-3.028-3.232-4.103-3.193-1.106.04-1.102.048.189.354M144.545 185c-.127.33-.669.6-1.204.6-1.029 0-3.182 1.325-4.062 2.5-.288.385-.703.7-.921.7-.617 0-2.331 2.119-2.345 2.9-.007.385-.277.7-.599.7-.322 0-.801.401-1.063.892-.263.49-.719 1.133-1.014 1.428-.295.296-.537.862-.537 1.26 0 .397-.27.946-.6 1.22-.515.427-.595 2.584-.564 15.149.027 10.767.146 14.28.449 13.251.268-.906.337-5.868.195-14.049-.18-10.471-.12-12.838.351-13.746.313-.603.569-1.333.569-1.622 0-.289.246-.772.547-1.073.301-.301.668-.926.815-1.389.146-.463.71-.953 1.252-1.089s.986-.424.986-.64c0-.215.27-.392.6-.392.33 0 .6-.258.6-.573 0-.315.349-.684.775-.819.461-.146.826-.681.9-1.318.075-.643.499-1.257 1.059-1.534.513-.255 1.134-.664 1.38-.91.245-.245.95-.446 1.566-.446.616 0 1.12-.186 1.12-.413 0-.227.405-.576.9-.775l.9-.361-.913-.026c-.501-.014-1.016.245-1.142.575m41.855 0c-.274.33-.67.6-.88.6-.465 0-3.529 3.044-4.209 4.182-.269.45-.762 1.391-1.094 2.091-.333.7-.788 1.385-1.011 1.523-.223.138-.406.511-.406.828 0 .923 1.512-.789 1.668-1.889.094-.663.477-1.003 1.332-1.185.66-.14.975-.277.7-.303-1.007-.095-.457-1.565 1.2-3.205.943-.935 1.975-1.611 2.318-1.521.36.094.804-.232 1.063-.78.497-1.054.083-1.261-.681-.341m14.5-.195c.385.239.7.781.7 1.205 0 .642.199.73 1.2.53 1.02-.204 1.2-.117 1.2.577 0 .449.225.907.5 1.018.299.121.218.215-.2.233-.385.018-.7.296-.7.618s-.405.802-.9 1.065c-.495.264-1.092.74-1.326 1.058-.235.318-.775.509-1.2.426-.479-.095-.93.154-1.184.652-.226.443-.766.872-1.2.953-.435.08-1.112.487-1.506.903-.81.857-.239 1.054.606.21.301-.301.928-.668 1.393-.816.464-.147 1.063-.531 1.33-.852.267-.322.78-.585 1.14-.585.36 0 .879-.36 1.154-.8.275-.44.723-.806.996-.813 1.537-.039 3.423-3.187 1.91-3.187-.227 0-.413-.251-.413-.557 0-.754-1.178-1.159-1.82-.627-.396.329-.549.213-.649-.489-.079-.555-.448-.966-.931-1.038-.731-.108-.74-.081-.1.316m47.9.195c-.274.33-.672.6-.885.6-.451 0-2.715 2.065-2.715 2.476 0 .153.58-.251 1.289-.899.709-.647 1.566-1.177 1.904-1.177.338 0 .839-.36 1.114-.8.581-.929.028-1.086-.707-.2m3.407.065c.411.41.602 1.09.501 1.778-.09.613-.016 1.024.164.912.823-.508.192-3.355-.743-3.355-.483 0-.469.117.078.665m19.938-.065c-.127.33-.588.6-1.025.6-.436 0-1.251.36-1.811.8-1.923 1.513 1.053.395 3.48-1.307.787-.551.846-.693.287-.693-.385 0-.805.27-.931.6m70.315-.146c-.033.36-.329 1.17-.658 1.8-.376.722-.575 2.109-.537 3.746l.061 2.6.237-2.64c.13-1.452.475-2.926.766-3.276.291-.349.453-1.142.36-1.76-.093-.618-.196-.83-.229-.47m33.54.407c-.55.458-1.432 1.175-1.961 1.592-.529.417-.868.851-.754.965.114.114.636-.245 1.161-.799.525-.553 1.226-1.008 1.558-1.012.332-.004.828-.367 1.103-.807.642-1.027.166-1.001-1.107.061M160.934 187.6c0 1.65.071 2.325.157 1.5.087-.825.087-2.175 0-3-.086-.825-.157-.15-.157 1.5m126.302-1.874c-.02.62.15 1.475.378 1.9.488.911 1.986 1.042 1.986.174 0-.33-.354-.6-.789-.6-.546 0-.904-.4-1.163-1.3l-.376-1.3-.036 1.126m-184.341 14.899l-.095 15.625-1.235.912c-.95.703-1.641.881-3 .773-.971-.078-1.765-.004-1.765.162 0 .761 4.218.259 5.305-.63l1.104-.905-.109-15.781-.11-15.781-.095 15.625m214.851-14.11c-.249.267-1.014.933-1.7 1.481-.685.547-1.246 1.222-1.246 1.5 0 .277-.27.504-.6.504-.33 0-.6.248-.6.551 0 .303-.27.775-.6 1.049-.33.274-.6.83-.6 1.235 0 .405-.371.935-.824 1.178-.577.309-.787.758-.7 1.5.08.687-.192 1.373-.776 1.955-.678.674-.888 1.32-.85 2.614l.05 1.718.264-1.6c.323-1.958.694-2.6 1.504-2.6.491 0 .567-.288.362-1.378-.212-1.133-.113-1.457.556-1.814.448-.24.814-.678.814-.973 0-.295.27-.761.6-1.035.33-.274.6-.734.6-1.023 0-.721 3.195-4.177 3.862-4.177.296 0 .538-.201.538-.447 0-.249.353-.354.8-.237.44.115.8.046.8-.153 0-.531-1.724-.414-2.254.152m76.304.756c-.028.809.157 2.879.411 4.6.253 1.721.478 5.556.5 8.522.035 4.799.116 5.408.739 5.529.646.126.7-.422.7-7.093 0-6.008-.097-7.229-.573-7.229-.658 0-1.013-.937-1.431-3.786-.264-1.794-.302-1.853-.346-.543m-181.917.56c-.138.359.074.92.49 1.3.688.628.701.627.21-.026-.287-.382-.418-.967-.29-1.3.127-.333.142-.605.032-.605-.11 0-.309.284-.442.631m55.067-.031c-.274.33-.708.6-.966.6-.257 0-1.294.765-2.304 1.7-2.022 1.871-2.787 3.9-1.471 3.9.632 0 .675-.117.278-.752-.846-1.355 2.719-4.98 4.069-4.137.611.382.734.28.883-.734.199-1.358.179-1.382-.489-.577m-188.043.9c-1.401 3.636-.017 20.126 1.605 19.124.728-.451.514-2.111-.3-2.324-1.916-.501-1.792-16.7.128-16.7.336 0 .61-.27.61-.6 0-1.072-1.588-.684-2.043.5m93.943.567c-.385.403-.7 1.105-.7 1.559 0 1.301-.752 2.374-1.663 2.374-.699 0-.753.098-.335.603.617.743 2.398-.919 2.398-2.238 0-.436.294-1.242.654-1.792.799-1.219.599-1.505-.354-.506m198.356.412c-.656.792-.972 1.554-.831 2 .152.477.025.721-.374.721-.332 0-.695.147-.806.328-.112.18.333.249.988.152.911-.133 1.139-.337.971-.867-.243-.765.648-2.746 1.47-3.267.307-.195.342-.336.084-.34-.243-.003-.919.57-1.502 1.273m-130.407 2.484c-1.277 1.409-2.62 2.956-2.985 3.436-.365.48-1.069 1.378-1.564 1.995-.862 1.075-1.228 3.355-.6 3.745.165.102.3-.562.3-1.476 0-1.42.132-1.682.9-1.791.495-.07.9-.365.9-.654 0-1.15 1.29-2.93 4.693-6.472.711-.74 1.154-1.346.985-1.346-.17 0-1.353 1.153-2.629 2.563m37.826-1.505c-.668.714-.594.942.305.942.429 0 .964.315 1.188.7.388.667.408.667.42 0 .019-1.112-1.328-2.268-1.913-1.642m-67.595.222c-.264.264-.48.65-.48.858 0 .677-2.157 3.808-2.787 4.044-.983.37-2.5 1.314-2.767 1.722-.135.207-.775.549-1.421.761-.646.212-1.243.588-1.325.836-.173.518 2.921-.887 3.298-1.498.331-.536 1.697-.517 1.878.026.232.694 2.324-1.51 2.324-2.447 0-.523.315-.939.808-1.068.616-.161.705-.337.373-.737-.607-.732.211-2.177 1.233-2.177.432 0 .786-.18.786-.4 0-.557-1.339-.501-1.92.08m77.222 2.52c-.028 4.024.274 5.163 1.414 5.328.591.085.884-.081.884-.5 0-.345-.259-.628-.576-.628-.914 0-1.184-.782-1.451-4.2l-.249-3.2-.022 3.2m14.998-2.724c-.832.217-.941.924-.143.924.307 0 .661-.27.788-.6.126-.33.191-.579.142-.554-.048.026-.402.129-.787.23m-51.5 2.761c0 2.275.107 2.666.776 2.841.612.16.829.683 1.025 2.462.449 4.084.576 3.539.381-1.621-.217-5.714-.353-6.319-1.425-6.319-.666 0-.757.316-.757 2.637m81.091.463c-.124 1.705-.086 4.45.083 6.1.273 2.651.316 2.291.367-3.1.065-6.688-.103-7.803-.45-3m52.776-2.833c-.674.673-.287 7.796.415 7.66.813-.156 1.224-1.444 1.278-4.001.059-2.77-.777-4.576-1.693-3.659m-315.073 3.014c-.107 1.255-.048 2.135.13 1.956.179-.179.266-1.206.194-2.281l-.131-1.956-.193 2.281m232.052-1.194c-.025.378-.541.956-1.146 1.284-.986.535-1.012.599-.249.613 1.061.02 1.875-.913 1.628-1.865-.167-.644-.191-.648-.233-.032M152 193.172c0 .235.324.428.72.428.897 0 1.68.752 1.68 1.612 0 .527.416.646 2.159.62 1.187-.017 2.063-.188 1.947-.378-.115-.191-.952-.263-1.86-.16-1.525.172-1.694.093-2.247-1.054-.576-1.193-2.399-2.004-2.399-1.068m8.065.667a1.904 1.904 0 00-.818 1.684l.048 1.077.253-1.182c.177-.824.555-1.254 1.249-1.417.554-.131.804-.353.564-.501-.237-.147-.82.006-1.296.339M225.6 195.2c0 1.333.133 1.6.8 1.6.704 0 .8.267.8 2.227 0 2.045-.065 2.206-.8 1.973-.72-.228-.8-.072-.8 1.56 0 1.709.052 1.795.892 1.484 2.123-.785 2.021-10.444-.111-10.444-.645 0-.781.28-.781 1.6m142.7-.585c-.808 1.08-.997 2.312-.2 1.307.275-.346.701-.696.946-.776.246-.08.336-.443.2-.806-.212-.57-.342-.532-.946.275m-27.094.418c.003.642.178 1.437.389 1.767.26.409.304.09.137-1-.303-1.977-.534-2.314-.526-.767M193.6 195.4c-.274.33-.926.6-1.449.6s-.951.186-.951.413c0 .227-.405.576-.9.775-.644.258-.709.369-.229.387.37.014.942-.245 1.272-.575.33-.33.863-.6 1.184-.6.688 0 2.685-1.567 2.022-1.587-.248-.007-.675.257-.949.587m107.779.167c.642 1.038-.176 4.052-1.207 4.443-1.26.48-1.406 2.373-.175 2.28 1.285-.097 2.691-6.217 1.586-6.901-.34-.21-.407-.152-.204.178M170.674 197.3c-.231 1.116-.51 1.5-1.092 1.5-.43 0-.782.27-.782.6 0 .336.357.6.81.6.936 0 1.696-1.607 1.501-3.177-.108-.873-.172-.804-.437.477m6.94.274c-.496.926-.542 2.3-.086 2.581.18.112.254-.293.166-.899-.171-1.16.362-1.836 1.706-2.167.616-.151.551-.207-.286-.243-.697-.029-1.234.231-1.5.728m10.386-.031c0 1.015-1.892 1.679-2.407.846-.224-.363-.361-.229-.457.446-.155 1.101-1.821 1.59-2.385.7-.249-.394-.34-.319-.345.285-.003.451-.222 1.036-.486 1.3-.313.313-.33.48-.049.48.237 0 .655-.27.929-.6.274-.33.904-.6 1.4-.6.496 0 1.117-.258 1.379-.574.262-.316.991-.688 1.621-.826 1.567-.344 2.192-1.143 1.405-1.796-.507-.421-.605-.366-.605.339m179.029-.114c-.346.345-.615.84-.597 1.1.022.331.091.323.233-.029.111-.275.457-.5.768-.5.312 0 .567-.27.567-.6 0-.76-.188-.755-.971.029M280 198.624c0 .563.16.925.355.804.725-.448 1.407 1.124 1.694 3.905.287 2.788.291 2.765.173-.831-.12-3.672-.54-4.902-1.671-4.902-.324 0-.551.421-.551 1.024m86.336 1.158c.31.625.214.868-.474 1.209-.896.444-1.437 2.794-.791 3.44.181.182.329-.336.329-1.15 0-1.152.2-1.569.9-1.876 1.069-.469 1.093-.613.274-1.629-.619-.767-.621-.767-.238.006M200 200.2c-.274.33-.836.6-1.249.6-.413 0-1.111.36-1.551.8-.44.44-1.267.8-1.837.8-.714 0-1.106.259-1.255.83-.164.627-.436.774-1.117.604-1.063-.267-1.942.6-1.67 1.647.146.565.196.526.233-.181.046-.905.332-1.044 1.894-.923.552.043.922-.22 1.062-.755.143-.546.543-.822 1.191-.822.537 0 1.392-.36 1.899-.8.507-.44 1.181-.8 1.498-.8.317 0 1.033-.36 1.593-.8.677-.532.815-.8.412-.8-.333 0-.829.27-1.103.6m-22.8 1.2c-.606.73.094 1.8 1.177 1.8.865 0 2.567-1.885 1.902-2.107-.26-.087-.659.217-.888.675-.56 1.123-1.6 1.078-1.559-.068.037-1.066.013-1.077-.632-.3m84.934 1.227c-.824 2.148.339 9.373 1.509 9.373 1.035 0 .953-.972-.143-1.7-.83-.55-.9-.898-.9-4.447 0-3.954-.051-4.307-.466-3.226m-7.606 2.573c0 1.43.073 2.015.161 1.3.089-.715.089-1.885 0-2.6-.088-.715-.161-.13-.161 1.3m-84.808.4c0 1.21.075 1.705.167 1.1a8.899 8.899 0 000-2.2c-.092-.605-.167-.11-.167 1.1m164 .4c0 1.21.075 1.705.167 1.1a8.899 8.899 0 000-2.2c-.092-.605-.167-.11-.167 1.1m21.824 3.5c-.088 3.025-.05 6.94.082 8.7.16 2.122.264.269.308-5.5.074-9.76-.148-11.584-.39-3.2m-65.498-3.826c-.065 2.082.567 3.526 1.544 3.526.543 0 .81-.263.81-.8 0-.531-.267-.8-.792-.8-.499 0-.864-.334-.985-.9l-.361-1.7c-.093-.44-.19-.137-.216.674m-101.379-.207c-.147.146-.249.731-.227 1.3l.04 1.033.285-1c.197-.691.555-.99 1.16-.968.481.017.875-.118.875-.3 0-.395-1.75-.448-2.133-.065m175.347.507c-.228.425-.4 1.73-.382 2.9.035 2.38.184 2.228.561-.574.206-1.525.409-1.9 1.032-1.9.426 0 .775-.27.775-.6 0-.868-1.498-.737-1.986.174m-128.257.017c-1.022.413-1.38 1.952-1.293 5.559.035 1.457.126 2.02.201 1.25.418-4.254.573-4.8 1.36-4.8.594 0 .775-.279.775-1.2 0-.66-.045-1.189-.1-1.175-.055.014-.479.179-.943.366m-50.458 1.373c-.692.73-.773.999-.349 1.161.328.126.737-.198 1.012-.8.331-.729.682-.955 1.249-.806.434.113.789.043.789-.156 0-.729-1.825-.323-2.701.601m113.901.273c0 .9.218 1.295.797 1.446.506.133.933.74 1.17 1.663.205.8.467 1.814.582 2.254.115.44.114-.19-.002-1.4-.351-3.658-.873-5.2-1.762-5.2-.611 0-.785.275-.785 1.237m-228.7-.545c-.826.288-.599 1.708.273 1.708.908 0 1.176.707 1.643 4.328.341 2.635.343 2.624.162-.728-.263-4.871-.631-5.812-2.078-5.308m238.967.775c-.539.538-.246 3.775.461 5.094.624 1.164.786 1.265 1.139.705.32-.508.226-.746-.428-1.074-.705-.354-.839-.786-.839-2.707 0-1.258-.015-2.286-.033-2.286-.019.001-.154.121-.3.268m32 0c-.655.654-.269 5.331.503 6.103.497.497.697 1.101.563 1.7-.175.789-.11.756.43-.216.833-1.499.804-1.854-.155-1.854-.98 0-1.338-1.242-1.148-3.985.077-1.109.125-2.015.107-2.015-.019 0-.154.12-.3.267M182.4 208.6c-.274.33-.781.6-1.127.6-1.965 0-4.223 2.645-3.073 3.6.378.314.6.341.6.073 0-.234-.18-.537-.4-.673-.778-.481-.387-1.091.58-.906.765.146 1.006.003 1.1-.653.141-.986 1.846-1.401 2.369-.576.249.394.34.319.345-.285.003-.451.222-1.036.486-1.3.313-.313.33-.48.049-.48-.237 0-.655.27-.929.6m203.2 1.6c0 .604.228 1 .576 1 .896 0 1.083.588 1.44 4.529l.332 3.671-.154-4.2c-.184-4.987-.427-6-1.441-6-.537 0-.753.287-.753 1m-305.115.213c-.773 1.238-.566 3.539.527 5.848.956 2.021 2.134 2.798 2.745 1.809.112-.181-.187-.316-.664-.3-1.009.035-1.468-1.286-.632-1.816.392-.249.298-.343-.347-.348-1.526-.01-2.467-3.893-1.241-5.119.261-.261.389-.558.285-.662-.103-.104-.406.161-.673.588m314.824 1.187c0 .99.078 1.395.173.9a5.661 5.661 0 000-1.8c-.095-.495-.173-.09-.173.9m-226.009-.935c-.779.314-.588.935.289.935.546 0 .904.4 1.163 1.3l.376 1.3.036-1.271c.028-.983-.856-2.691-1.293-2.497-.039.017-.296.122-.571.233m111.9.735c0 .726.215 1 .782 1 .593 0 .841.362 1.027 1.5.434 2.662.497 2.735.545.626.059-2.657-.491-4.126-1.544-4.126-.597 0-.81.263-.81 1m10.134.027c-.824 2.148.339 9.373 1.509 9.373 1.012 0 1.002-1.443-.012-1.708-.918-.24-1.383-2.64-1.17-6.052.145-2.335.078-2.667-.327-1.613M226.554 216c0 2.75.064 3.875.142 2.5a53.448 53.448 0 000-5c-.078-1.375-.142-.25-.142 2.5m27.046-3.8c0 .604.228 1 .576 1 .929 0 1.158.748 1.465 4.784l.29 3.816-.112-4.6c-.123-5.088-.346-6-1.462-6-.541 0-.757.286-.757 1m79.2-.013c0 .673.175.921.548.777.919-.352 1.139 1.109.38 2.518-.39.725-.874 1.318-1.075 1.318-.201 0-.599.315-.885.7-.438.59-.648.621-1.344.197-.748-.457-.824-.41-.824.512 0 1.199-.995 1.711-2.048 1.054-1.009-.63-1.152-.589-1.152.329 0 .775-.391.962-2.8 1.342-.615.096-.375.178.624.212.892.029 1.972-.21 2.4-.533.427-.323 1.153-.593 1.614-.6.461-.007 1.164-.373 1.562-.813.398-.44.948-.8 1.222-.8 1.266 0 4.147-3.653 3.902-4.946-.424-2.247-2.124-3.26-2.124-1.267m-116.8-.174c0 .213-.301.387-.67.387-.568 0-.538.14.2.926.647.688.87 1.424.87 2.866 0 2.981.584 1.719.646-1.397.041-2.003-.094-2.804-.495-2.959-.303-.116-.551-.037-.551.177m-6.084 2.787c-1.023 1.1-2.069 2-2.325 2-.255 0-.922.36-1.482.8-.677.532-.815.8-.412.8.333 0 .829-.27 1.103-.6.274-.33.705-.6.959-.6.431 0 3.324-2.84 3.989-3.915.579-.937.009-.466-1.832 1.515m153.398.6c.003 1.1.081 1.503.173.895.092-.609.09-1.509-.005-2-.095-.492-.171.005-.168 1.105m32.322-.58c-.02.781.18 1.636.444 1.9.676.676 1.92.598 1.92-.12 0-.33-.354-.6-.789-.6-.546 0-.904-.4-1.163-1.3l-.376-1.3-.036 1.42m-94.483-.02c-.106.696.09 1.128.647 1.42.442.232.787.805.77 1.28-.016.473.119.769.3.657.582-.36.353-1.704-.415-2.441-.41-.394-.836-.986-.947-1.316-.131-.389-.256-.248-.355.4m-129.953.534c0 .319.27.684.6.811.33.126.6.585.6 1.019 0 .434.197.911.438 1.059.24.149.355.7.255 1.224-.139.73-.007.953.568.953.939 0 3.101 2.327 3.159 3.4.024.44.134.575.245.3.271-.671 1.525-.635 2.102.061.256.308.908.672 1.449.807.715.18.984.519.984 1.24 0 .545.192.992.427.992 1.028 0 .16-2.19-1.027-2.587-.66-.221-1.344-.63-1.52-.908-.176-.278-.498-.505-.716-.505-1.535 0-4.513-3.248-6.099-6.651-.662-1.419-1.465-2.086-1.465-1.215m139.6.22c0 1.494 4.387 4.638 5.026 3.603.185-.298-.004-.354-.578-.172-.587.186-.927.075-1.093-.357-.132-.346-.472-.628-.755-.628-.539 0-1.123-1.078-.835-1.543.091-.148-.268-.475-.799-.726s-.966-.33-.966-.177m-129.507.417c.085.315.504.765.931 1 .427.236.92.654 1.096.929.176.275.739.5 1.251.5.512 0 1.14.252 1.396.561.659.793 2.339 1.137 3.148.645.549-.334.474-.369-.38-.177-.77.174-1.297.009-1.9-.594-.459-.459-1.106-.835-1.436-.835-.776 0-3.426-1.418-3.897-2.086-.283-.401-.329-.388-.209.057m82 .829c0 .77.082 1.085.183.7.1-.385.1-1.015 0-1.4-.101-.385-.183-.07-.183.7m79.574.6c.1.569.485.821 1.336.872.698.042.863-.014.397-.134-.44-.113-1.041-.505-1.336-.872-.489-.608-.524-.596-.397.134m-258.33.777c.137 2.545 11.08 2.541 11.566-.004.123-.645.003-.973-.358-.973-.3 0-.545.341-.545.757 0 2.251-10.058 2.217-10.533-.035-.141-.671-.177-.602-.13.255m118.263-.201c0 .924-.493 1.273-2.386 1.689-1.199.263-1.126.283.477.132 2.178-.206 3.694-1.335 2.851-2.122-.714-.667-.942-.594-.942.301m31.654.498c-.076 2.074.556 3.526 1.536 3.526.453 0 .81-.264.81-.6 0-.331-.355-.6-.792-.6-.775 0-.962-.391-1.342-2.8-.109-.695-.174-.551-.212.474m49.255.326c0 .99.078 1.395.173.9a5.661 5.661 0 000-1.8c-.095-.495-.173-.09-.173.9M71.6 218c0 .22.357.4.792.4.915 0 1.433 1.461 1.001 2.821-.175.552-.129.786.125.63.588-.364 4.482 3.598 4.482 4.561 0 .683.126.749.774.402 1.178-.631 1.588-.506 1.857.566.209.832.355.911.976.523.547-.342 1.468-.341 3.668.001 2.103.326 3.785.339 5.918.043 1.639-.227 3.471-.34 4.072-.252.601.088 1.021.044.933-.098-.088-.142-3.453-.236-7.479-.209-6.751.046-7.362-.009-7.868-.706-.361-.498-.874-.694-1.5-.575-.54.103-.951-.01-.952-.262 0-.245-.72-1.122-1.6-1.95-.879-.828-1.599-1.683-1.599-1.9 0-.217-.27-.395-.6-.395-.403 0-.6-.403-.6-1.226 0-.675-.186-1.575-.414-2-.426-.796-1.986-1.089-1.986-.374m144.4.699c0 .53-2.645 3.301-3.15 3.301-.2 0-.478.295-.616.657-.206.535-.145.567.327.176.356-.296 1.105-.382 1.949-.223l1.371.257.25-2.11c.137-1.161.164-2.196.059-2.3-.104-.105-.19.004-.19.242m-24.328 1.001c.227 1.597 5.128 1.495 5.128-.108 0-.709-.275-.792-2.628-.792-2.496 0-2.621.045-2.5.9m110.495-.6c.285.286.445.334 1.48.45.254.029.364.48.255 1.05-.142.742-.02 1 .473 1 .366 0 .923.225 1.239.5.316.275.172.038-.32-.526-.492-.564-.894-1.31-.894-1.657s-.285-.741-.633-.874c-.889-.341-1.96-.303-1.6.057m14.287.557c-.061 1.19.564 1.567 2.479 1.497.772-.029.954-.113.467-.216l-1.672-.354c-.505-.107-.946-.564-1.046-1.085-.154-.8-.179-.783-.228.158m27.813-.59c-.482.481-.279 2.025.333 2.533.33.274.621.881.647 1.349.034.603.125.501.312-.349.211-.954.11-1.262-.493-1.504-.546-.219-.704-.583-.567-1.3.204-1.068.18-1.142-.232-.729m19.47 3.133c.002 1.76.072 2.43.156 1.489.085-.94.084-2.38-.002-3.2-.086-.819-.155-.049-.154 1.711m-100.039 2.2c-.013 3.915.071 4.727.388 3.743.269-.836.275-2.51.017-5l-.388-3.743-.017 5m-152.761-.6c.002 1.76.072 2.43.156 1.489.085-.94.084-2.38-.002-3.2-.086-.819-.155-.049-.154 1.711m275.863-1.373c0 .629.181.769.757.587.614-.195.833.045 1.159 1.273l.401 1.513.042-1.326c.053-1.714-.582-2.874-1.573-2.874-.528 0-.786.272-.786.827m10.12 2.373c0 1.21.075 1.705.167 1.1a8.899 8.899 0 000-2.2c-.092-.605-.167-.11-.167 1.1m-186.92-1c-.274.33-.848.6-1.275.6-1.332 0-2.325.775-2.325 1.814 0 .542.18.986.4.986.22 0 .4-.431.4-.957 0-.961.658-1.443 1.971-1.443.388 0 1.031-.36 1.429-.8.398-.44.538-.8.311-.8-.227 0-.637.27-.911.6m72.8-.047c0 .305.348.645.774.756.979.256 1.55 2.819.822 3.695-.41.495-.354.596.336.596 1.49 0 2.938.888 2.732 1.676-.15.576.049.724.973.724.88 0 1.163-.187 1.163-.767 0-.489.543-1.032 1.5-1.5 1.452-.71 1.501-.803 1.542-2.933.035-1.798.012-1.879-.125-.446-.218 2.275-3.831 5.079-4.711 3.656-.104-.169-.733-.415-1.398-.548-1.058-.212-1.208-.41-1.208-1.592 0-2.08-.758-3.87-1.639-3.87-.419 0-.761.249-.761.553m24.013-.43c-.022.538 2.523 2.677 3.176 2.67.336-.003-.019-.403-.789-.888-.77-.486-1.619-1.158-1.887-1.494-.268-.336-.493-.466-.5-.288M334 223.8c-.274.33-.816.6-1.205.6-1.392 0-2.451 1.293-1.783 2.176.563.744.588.731.588-.312 0-1.274.966-1.803 2.053-1.124.626.391.747.35.747-.257 0-.397.216-.939.48-1.203.313-.313.33-.48.049-.48-.237 0-.655.27-.929.6m4.117 1.992c1.476 1.426 2.697 2.911 2.715 3.3.018.419.114.504.233.208.111-.275.502-.503.868-.507.41-.004.127-.351-.731-.9-.769-.491-2.196-1.748-3.171-2.793-.975-1.045-1.959-1.9-2.185-1.9-.227 0 .795 1.167 2.271 2.592m17.241-1.192c-.398 1.27-.366 1.4.338 1.4.426 0 1.093.392 1.48.87.604.745 1.088.865 3.365.83 1.462-.022 2.659.126 2.659.33 0 .203.27.37.6.37.75 0 .787-1.347.053-1.956-.416-.345-.667-.309-1.049.151-.814.981-5.054.833-5.604-.195-.235-.44-.687-.8-1.004-.8-.427 0-.514-.311-.336-1.2.326-1.632.034-1.515-.502.2m-129.758-.338c0 .402.247.514.77.347 1.054-.334 1.686.83 1.123 2.067-.233.51-.349.998-.258 1.085.683.653 7.165.143 7.165-.563 0-.172-.687-.138-1.527.075-2.377.603-4.116-.018-4.672-1.67-.495-1.471-2.601-2.557-2.601-1.341m120.039 1.138c.013 1.396.068 1.49.431.741.29-.6.286-1.083-.015-1.6-.358-.616-.428-.472-.416.859m-89.938.4c.004.88.086 1.193.182.695.096-.497.092-1.217-.008-1.6-.1-.382-.179.025-.174.905m-154.675-.28c-.171.538-.555.686-1.527.587-.715-.072-1.528.022-1.808.21-.62.416-.994 2.083-.468 2.083.207 0 .377-.357.377-.792 0-.978 1.796-1.528 2.847-.872.976.61 4.009 1.278 3.726.821-.121-.196-.576-.357-1.011-.357-.623 0-.714-.148-.43-.7.198-.385.279-.925.181-1.2-.272-.756-1.628-.599-1.887.22m1.209 1.178c-.437.437-.736-.258-.423-.981.298-.685.32-.684.485.014.096.403.068.838-.062.967m132.624-.969c-.352.424-.202.495.751.355.654-.096 1.19-.334 1.19-.529 0-.549-1.449-.419-1.941.174m-51.806.584c-.106.173.288.308.877.3.734-.009 1.194.27 1.465.887.487 1.109 1.005 1.168 1.005.114 0-1.197-2.75-2.266-3.347-1.301m19.614-.046c-.147.146-.267.632-.267 1.08 0 .632-.107.706-.48.333-.539-.539-14.532-.708-14.859-.18-.102.165 3.122.263 7.165.218 4.329-.048 7.446.075 7.585.3.402.65.989.421.989-.385 0-.472.422-.921 1.1-1.168l1.1-.402-1.033-.031c-.569-.018-1.154.088-1.3.235m108.633.165c.385.224.7.759.7 1.188 0 .429.18.78.4.78.557 0 .501-1.339-.08-1.92-.264-.264-.759-.475-1.1-.468-.51.01-.496.084.08.42m16.8-.167c-.275.111-.475.682-.446 1.268.045.864.087.906.222.219.091-.467.562-1.04 1.045-1.273.88-.425.164-.612-.821-.214m61.1.859c0 .424 1.545 1.873 1.749 1.64.079-.09-.282-.575-.803-1.078-.52-.503-.946-.756-.946-.562m7.519-.039c-.606.092-1.185.494-1.319.914-.131.412-.544.83-.919.929-.517.136-.475.19.172.226.541.029.93-.247 1.063-.754.141-.541.546-.8 1.247-.8.57 0 1.037-.18 1.037-.4 0-.22-.045-.373-.1-.34-.055.033-.586.134-1.181.225m-286.495.889c-.584.644-1.233.826-2.953.826-1.212 0-2.07.134-1.906.299.469.468 6.239.388 6.207-.087-.103-1.506-.587-1.879-1.348-1.038m20.405-.145c-.367.366-.564.769-.439.895.126.126.529-.072.896-.438.366-.367.564-.77.438-.896-.126-.125-.529.072-.895.439m185.122-.129c1.357.282 2.011.633 2.147 1.153.293 1.121 5.113 1.112 5.407-.011.261-1 2.481-1.506 3.411-.777.623.488.633.47.107-.199-.586-.744-3.347-.677-4.773.116-.303.168-1.833.061-3.4-.238-1.568-.298-3.3-.522-3.85-.496-.58.027-.18.217.951.452m28.878.129c-.865.864-.788 1.077.171.478.44-.275.8-.636.8-.803 0-.461-.279-.368-.971.325m-89.829 1.343c0 .205.39.43.866.5.573.085 1.037.603 1.37 1.528.277.77.517 1.175.534.9.018-.297.64-.519 1.53-.546.825-.026 1.14-.125.7-.221-1.451-.316-2.53-1.021-2.729-1.783-.202-.772-2.271-1.117-2.271-.378m7.463 1.628c-.588.66-.919 1.2-.736 1.2.469 0 2.253-1.954 2.008-2.199-.111-.111-.684.339-1.272.999M243.4 263.6c-.163.263-16.387.4-47.374.4-25.919 0-47.69.113-48.379.251l-1.253.25.103 23.023.103 23.024 1.4.112c.77.061 1.175.013.9-.108-.392-.171-.5-5.196-.5-23.185V264.4h47.154c41.051 0 47.303-.077 48.3-.598.725-.378.898-.598.47-.6-.372-.001-.788.178-.924.398m3.4.361c0 1.28 4.347 2.296 5.038 1.177.182-.295.109-.353-.202-.16-.921.569-3.236-.143-3.236-.996 0-.515-.273-.782-.8-.782-.52 0-.8.267-.8.761m6.073 1.539c.113.981.353 1.143 2.207 1.5 1.144.22 2.305.625 2.58.9.275.275.751.5 1.057.5.306 0 1.014.36 1.574.8.559.44 1.331.8 1.714.8s.921.27 1.195.6c.274.33.814.6 1.2.6s.926.27 1.2.6c.757.912 1.18.716.69-.32-.332-.704-.69-.883-1.522-.761-.803.118-1.152-.038-1.329-.595-.159-.503-.603-.75-1.33-.74-.892.013-1.138-.202-1.352-1.184-.144-.66-.284-.963-.31-.673-.089.997-2.191.377-2.448-.723-.157-.672-.333-.835-.54-.5-.718 1.163-3.859.253-3.859-1.118 0-.432-.192-.786-.427-.786-.234 0-.369.495-.3 1.1m16.107 6.461c-.209.199-.723.424-1.142.5-.641.117-.577.233.4.731.639.325 1.837 1.3 2.662 2.166.825.866 1.588 1.487 1.696 1.379.108-.107-.342-.711-1-1.341-.658-.63-1.196-1.472-1.196-1.871s-.174-.725-.387-.725c-.214 0-.284-.27-.158-.6.254-.661-.278-.806-.875-.239m4.22 5.006c0 .11 1.497 1.692 3.326 3.516 1.83 1.824 3.444 3.632 3.588 4.017.143.385.469.7.722.7.517 0 .079-.652-1.73-2.576-.608-.647-1.106-1.341-1.106-1.544 0-.462-1.687-2.264-2.129-2.273-.18-.004-.579-.232-.886-.507-1.253-1.124-1.785-1.521-1.785-1.333m-170.4 5.019c0 .892-1.103 1.613-2.474 1.617-.509.001-1.466.36-2.126.797-.66.437-1.611.796-2.113.797-.501.002-1.016.273-1.142.603-.127.33-.543.6-.926.6-.382 0-1.021.36-1.419.8-.398.44-.947.8-1.219.8-.273 0-.599.27-.726.6-.126.33-.506.6-.842.6-.337 0-.613.186-.613.413 0 .226-.315.533-.7.68-1.117.428-6.1 5.748-6.1 6.512 0 1.039-2.229 3.599-3.171 3.641-.678.031-.79.109-.329.23.838.219.939 1.828.155 2.478-.299.249-.651 1.355-.782 2.459-.295 2.49-.476 2.787-1.697 2.787-1.206 0-1.313 1.584-.357 5.274.559 2.157.559 2.597 0 4.519-.881 3.033-.829 5.007.132 5.007 1.06 0 1.572.767 1.885 2.82.149.979.539 2.089.867 2.466.341.393.513 1.119.402 1.7-.13.68-.016 1.014.345 1.014.297 0 .808.585 1.137 1.3.716 1.56 1.327 2.491 2.469 3.766.47.525 1.254 1.535 1.741 2.245.487.709 1.947 2.069 3.244 3.023 1.298.953 2.359 1.898 2.359 2.1 0 .201.248.366.551.366.303 0 .775.27 1.049.6.274.33.834.6 1.246.6.411 0 .972.36 1.247.8.294.471.933.8 1.554.8.58 0 1.279.27 1.553.6.274.33 1.004.6 1.623.6 1.831 0 3.177.686 3.177 1.619 0 .805.146.831 3.5.633 4.273-.253 3.927-.253 8.2 0 3.354.198 3.5.172 3.5-.633 0-.933 1.346-1.619 3.177-1.619.619 0 1.349-.27 1.623-.6.274-.33.997-.6 1.606-.6.61 0 1.205-.251 1.322-.558.118-.306 1.054-.977 2.081-1.489 3.263-1.63 9.328-7.4 10.916-10.386 1.422-2.674 1.748-3.167 2.097-3.167.208 0 .378-.518.378-1.151s.247-1.356.549-1.607c.303-.251.674-1.393.826-2.539.31-2.336.773-3.103 1.874-3.103.706 0 .751-.419.751-7v-7h-.957c-1.102 0-1.443-.654-1.443-2.771 0-.997-.27-1.749-.8-2.229-.44-.398-.8-1.227-.8-1.842s-.229-1.262-.508-1.438c-.28-.176-.739-.77-1.02-1.32-1.259-2.463-1.741-3.2-2.094-3.2-.208 0-.378-.232-.378-.515 0-.862-5.569-6.285-6.454-6.285-.204 0-.475-.27-.601-.6-.127-.33-.453-.6-.726-.6-.272 0-.821-.36-1.219-.8-.398-.44-1.037-.8-1.419-.8-.383 0-.799-.27-.926-.6-.126-.33-.641-.601-1.142-.603-.502-.001-1.453-.36-2.113-.797-.66-.437-1.749-.796-2.42-.797-1.379-.003-2.18-.622-2.18-1.683 0-.668-.548-.72-7.6-.72-7.288 0-7.6.032-7.6.786m178.812 3.665c-.007.358.258.875.588 1.149.33.274.6.718.6.987s.36.815.8 1.213c.44.398.8.527.8.286 0-.242-.197-.561-.438-.709-.24-.149-.355-.7-.255-1.224.138-.72.005-.953-.543-.953-.398 0-.908-.315-1.132-.7-.357-.614-.409-.62-.42-.049m2.788 4.908c0 .366.27.77.6.896.33.127.6.498.6.825 0 .761 1.413 2.574 1.747 2.24.458-.458.265-.824-.547-1.036-.44-.115-.8-.513-.8-.883 0-.371-.36-1.132-.8-1.692-.606-.771-.8-.856-.8-.35m2.832 4.954c-.018.281.238.616.568.742.346.133.6.731.6 1.414 0 1.606.665 2.731 1.614 2.731.432 0 .786-.18.786-.4 0-.22-.357-.4-.792-.4-.985 0-1.527-1.797-.863-2.86.402-.644.335-.74-.508-.74-.534 0-1.061-.225-1.172-.5-.158-.392-.209-.389-.233.013m2.8 7.967c-.018.484.212 1.024.509 1.2.298.176.614.547.702.824.105.332.332.227.666-.307.447-.716.393-.854-.459-1.178-.531-.202-1.061-.604-1.176-.893-.116-.289-.225-.13-.242.354m1.401 4.92c.318 3.303.564 4 1.41 4 1.039 0 1.024-1.829-.02-2.388-.439-.235-.956-1.153-1.189-2.114-.41-1.684-.411-1.679-.201.502M170.8 311.063l1.2.399c.76.253-1.441 2.133-2.5 2.136-.385.001-.7.182-.7.402 0 .22-.251.4-.557.4-.706 0-1.052.879-.77 1.957.142.545-.006.919-.428 1.081-.355.136-.645.458-.645.716 0 .257-.315.752-.7 1.099-.385.348-1.51 1.589-2.5 2.759s-2.149 2.456-2.575 2.858c-.427.401-.64.73-.474.73.348 0 2.924-2.634 6.649-6.798 1.43-1.598 2.87-3.185 3.2-3.525 2.785-2.874 3.246-4.505 1.257-4.445-.581.017-.787.121-.457.231m26.844.284c-.345.416-.309.667.151 1.049 1.477 1.225.377 2.892-6.528 9.896-1.613 1.636-2.861 3.047-2.774 3.134.088.088 1.459-1.192 3.047-2.845 1.588-1.652 3.691-3.395 4.674-3.873.982-.477 1.786-1.012 1.786-1.188 0-.176.27-.32.6-.32.789 0 .802-2.342.023-4.206-.52-1.246-.511-1.419.1-1.775.608-.355.611-.396.026-.407-.358-.007-.855.234-1.105.535m40.756-.208c.913.17 1.537.574 1.795 1.161.242.552.745.9 1.3.9.638 0 .905.236.905.8 0 .579.267.8.967.8.531 0 1.057.225 1.168.5.146.362.211.368.233.023.018-.263-.295-.713-.694-1-.4-.288-.852-.859-1.005-1.269-.199-.531-.559-.692-1.254-.559-.76.145-1.001.001-1.095-.654-.1-.701-.42-.851-1.92-.902-1.651-.057-1.684-.04-.4.2m5.689 5.904c-.766.82-.577 1.357.479 1.357 1.032 0 1.043.048 1.586 6.8.08.99.1-.123.045-2.474-.108-4.608-.963-6.911-2.11-5.683m48.412 1.557c.004.88.086 1.193.182.695.096-.497.092-1.217-.008-1.6-.1-.382-.179.025-.174.905m.305 2.476c-.003.482.186.995.421 1.14.655.405.69.082.112-1.016-.506-.959-.527-.964-.533-.124m1.207 2.203c.006.287.456.844 1 1.24 1.258.916 1.254.686-.013-.681-.55-.594-.994-.845-.987-.559m3.198 2.621c.913.646 2.713.701 23.389.715l22.4.014-22.367-.214c-17.384-.167-22.404-.326-22.533-.715-.092-.275-.552-.5-1.022-.5-.824 0-.819.026.133.7m-139.228 1.766c-.871.916-1.513 1.737-1.426 1.824.182.182 2.243-1.806 2.243-2.164 0-.131.315-.477.7-.769.385-.292.558-.537.384-.544-.174-.007-1.029.737-1.901 1.653m26.202 2.186a224.88 224.88 0 01-3.685 4.007c-.715.746-1.3 1.442-1.3 1.548 0 .106-.72.913-1.6 1.793-.88.88-1.597 1.825-1.594 2.1.005.38.087.373.34-.026.402-.634 2.328-1.674 3.1-1.674.305 0 .554-.281.554-.624 0-.343.161-.524.358-.402.409.253.842-.675.842-1.807 0-.422.184-.767.41-.767.225 0 .581-.45.79-1 .209-.55.565-1 .79-1 .226 0 .41-.18.41-.4 0-.22.315-.733.7-1.141 1.532-1.621 2.813-3.259 2.549-3.259-.154 0-1.353 1.193-2.664 2.652M245.2 330c0 .22.366.4.813.4.469 0 .966.381 1.175.9.341.849.363.854.387.08.014-.451-.191-1.036-.455-1.3-.581-.581-1.92-.637-1.92-.08m-89.6.333c0 .257-.261.467-.58.467-.319 0-.724.244-.9.542-.366.619-2.165 1.672-2.631 1.539-.171-.049-.416.183-.543.515-.127.332-.482.604-.789.604-.543 0-.744.677-.625 2.1.032.385-.209.7-.537.7a.606.606 0 00-.595.613c0 .336-.27.716-.6.842-.33.127-.6.421-.6.654 0 .233-.273.709-.607 1.057a182.26 182.26 0 00-2.233 2.434c-.894.99-2.438 2.655-3.432 3.7-.993 1.045-1.702 1.9-1.576 1.9.229 0 5.448-5.164 5.448-5.391 0-.066.945-1.109 2.1-2.317a122.203 122.203 0 003.9-4.312 77.6 77.6 0 013.552-3.863c.963-.96 1.638-1.86 1.5-1.998-.139-.139-.252-.042-.252.214m91 4.467c.136.22.577.4.981.4 1.125 0 1.812 3.186.819 3.8-.683.422-.442.938.5 1.072.659.094.9.396.9 1.128 0 .595.323 1.166.796 1.41.972.5 1.28 1.769.543 2.236-.393.249-.301.343.341.348.484.003 1.064.321 1.288.706.357.614.409.62.42.049.007-.358-.258-.875-.588-1.149-.33-.274-.6-.748-.6-1.053 0-.305-.36-.863-.8-1.24-.44-.377-.8-1.073-.8-1.547s-.27-1.086-.6-1.36c-.33-.274-.6-1.094-.6-1.823 0-2.187-.639-3.377-1.814-3.377-.587 0-.926.173-.786.4m-72.515 5.858c-.504.575-.849 1.112-.767 1.194.082.082.631-.392 1.219-1.052.588-.66.933-1.197.766-1.193-.167.004-.715.477-1.218 1.051m-5.385 5.778c-1.265 1.325-2.3 2.468-2.3 2.542 0 .073-.945 1.117-2.1 2.319-1.155 1.203-2.64 2.876-3.3 3.718-.66.842-1.695 1.988-2.3 2.547-.605.559-1.095 1.201-1.088 1.427.007.226.178.128.381-.219.202-.346 1.097-.87 1.987-1.164.891-.294 1.62-.775 1.62-1.07 0-.295.36-.536.8-.536.643 0 .8-.267.8-1.357 0-.838.23-1.446.6-1.588.33-.126.6-.422.6-.656 0-.234.54-.954 1.2-1.599.66-.645 1.2-1.319 1.2-1.498 0-.178.315-.609.7-.958 1.542-1.396 4.037-4.378 3.624-4.33-.068.008-1.159 1.098-2.424 2.422m84.5.666c0 .22.27.624.6.898.335.278.6.321.6.098 0-.22-.27-.624-.6-.898-.335-.278-.6-.321-.6-.098m-114.705 1.564c-.277.112-.692.593-.922 1.069-.357.741-.34.779.123.265.297-.33.793-.825 1.102-1.1.589-.524.531-.569-.303-.234m115.905.318c0 .165.54.983 1.2 1.816.66.833 1.2 1.714 1.2 1.958 0 .243.18.442.4.442.22 0 .4.45.4 1 0 .668.222 1 .669 1 .367 0 1.023.315 1.458.7.762.676.774.671.353-.133-.24-.458-.716-1.065-1.058-1.349-.342-.284-.622-.655-.622-.826 0-.291-1.011-1.563-3.1-3.901-.495-.554-.9-.872-.9-.707m-118.392 2.006c-.278.336-.754.61-1.057.61-.303 0-.551.18-.551.4 0 .22-.36.4-.8.4-.44 0-.8.249-.8.553 0 .305-.36.648-.8.763-.548.143-.8.546-.8 1.275 0 .586-.225 1.304-.5 1.596-.275.291-.95 1.112-1.5 1.824-1.496 1.937-3.551 4.248-5.909 6.645-1.159 1.179-1.978 2.144-1.819 2.144.338 0 5.573-5.393 9.328-9.609 1.43-1.605 2.915-3.2 3.3-3.544.385-.343.7-.773.7-.955 0-.182.495-.756 1.1-1.277.605-.521.991-1.057.857-1.191-.134-.134-.471.031-.749.366m-85.144 5.681c-.038.748.223 1.559.633 1.969.384.384.884 1.07 1.111 1.525.226.456.763.896 1.192.978.429.083.995.444 1.257.804.424.579 2.264.676 16.21.853L87 363l.103 23.096.103 23.095-16.503.111-16.503.111 16.6-.006 16.6-.007.103-23.174c.082-18.275-.003-23.242-.4-23.494-.277-.176-7.193-.323-15.37-.326-15.645-.006-16.133-.044-16.133-1.249 0-.578-.29-.757-1.225-.757-.945 0-1.198-.16-1.107-.7.066-.385.032-.715-.075-.732-1.053-.177-1.966-1.161-2.104-2.269l-.161-1.299-.064 1.271m211.191 1.383c.361.3.777 1.239.926 2.086.261 1.489.314 1.531 1.589 1.292.93-.174 1.468-.068 1.824.36.277.335.674.608.882.608.208 0 .972.63 1.698 1.4.726.77 1.604 1.4 1.95 1.4.346 0 .742.183.88.406.138.223.913.709 1.723 1.079s1.653.757 1.873.859c.22.102.163-.102-.128-.453-.29-.352-1.04-.752-1.666-.89-.627-.137-1.239-.509-1.36-.825-.122-.317-.677-.576-1.233-.576-.634 0-1.013-.225-1.013-.6 0-.33-.173-.6-.384-.6-.212 0-.707-.325-1.1-.722-1.342-1.354-4.03-3.278-4.579-3.278-.301 0-.725-.393-.942-.874-.217-.481-.665-.952-.995-1.046-.48-.138-.469-.063.055.374M156 360.272c-.887.938-.903 1.006-.147.604.469-.25.958-.729 1.087-1.065.314-.817.228-.775-.94.461M4.528 363.2c0 1.43.073 2.015.161 1.3.089-.715.089-1.885 0-2.6-.088-.715-.161-.13-.161 1.3m148.346.353a361.024 361.024 0 00-5.074 5.473c-1.76 1.935-3.873 4.251-4.695 5.146-.822.895-1.497 1.853-1.5 2.128-.003.275-.166.5-.364.5-.475 0-2.841 2.087-2.841 2.505 0 .18.495-.144 1.1-.72.996-.948 2.6-1.865 3.415-1.951.173-.019.443-.227.6-.463.157-.236.6-.546.985-.688.456-.168.7-.681.7-1.47 0-.667.18-1.213.4-1.213.22 0 .4-.23.4-.511s.315-.797.7-1.147c.385-.349 1.24-1.318 1.9-2.152 1.414-1.788 2.415-2.916 4.867-5.49.996-1.045 1.691-1.9 1.546-1.9-.146 0-1.108.879-2.139 1.953M4.4 368.116c1.152.581 1.502 2.021.731 3.006-.478.61-.46.623.169.129 1.364-1.07.767-3.654-.843-3.645l-1.057.006 1 .504m114.772 1.223c-.984.942-2.369 1.97-3.08 2.284-.711.315-1.292.708-1.292.875 0 .166-.36.302-.8.302-1.036 0-1.059 1.246-.034 1.886.654.408.862.33 1.429-.534.364-.557 1.832-2.187 3.26-3.622 2.897-2.911 3.313-3.871.517-1.191m157.596-.971c.422.422 1.186.827 1.697.9.655.093.99.461 1.132 1.245.193 1.06.226 1.075.696.317.504-.815-.532-2.03-1.733-2.03-.254 0-.686-.27-.96-.6-.274-.33-.746-.6-1.049-.6-.393 0-.33.221.217.768m6.532 2.497c.678.247 1.1.696 1.1 1.168 0 .422.18.767.4.767.557 0 .501-1.339-.08-1.92-.264-.264-.939-.466-1.5-.448l-1.02.031 1.1.402m2.545 1.063c-.112.18.307.252.93.161 1.341-.197 2.825.499 2.825 1.325 0 .322.18.586.4.586.878 0 .37-1.631-.626-2.01-1.249-.475-3.252-.51-3.529-.062M4.8 372.4c0 .22.351.4.78.4.429 0 .964.315 1.188.7.445.764.579.149.189-.867-.263-.685-2.157-.89-2.157-.233m336.8.666c-2.233.352-2.8.575-2.8 1.099 0 .302.27.653.6.78 1.606.616.644 2.264-4.408 7.547-2.818 2.947-2.958 3.511-.273 1.096.375-.337 1.221-.877 1.881-1.2.66-.324 1.438-.813 1.729-1.088.29-.275.656-.5.812-.5.157 0 .324-.477.372-1.06.048-.582.288-1.3.532-1.594.399-.481.363-2.12-.081-3.746-.114-.419.199-.64 1.036-.731.66-.072 1.371-.297 1.58-.5.209-.203.299-.344.2-.315-.099.03-.63.126-1.18.212m-29.7.434c10.607.091 12.9.209 12.9.66 0 .637-1.69 1.84-2.586 1.84-.338 0-.614.249-.614.553 0 .305-.359.648-.798.762-.654.172-.753.431-.55 1.447.196.978.111 1.238-.402 1.238-.357 0-.65.256-.65.569 0 .314-.855 1.498-1.9 2.633l-3.595 3.903c-.932 1.011-1.61 1.924-1.505 2.028.104.104.572-.298 1.04-.893.468-.594 2.09-2.331 3.605-3.858 1.515-1.527 2.755-2.868 2.755-2.979 0-.112.315-.537.7-.945 2.229-2.364 3.3-3.623 3.3-3.878 0-.158.466-.721 1.037-1.249 2.179-2.02 1.418-2.141-12.786-2.037l-12.851.095 12.9.111M7.2 376.119c0 .353.244.785.541.961.298.176.644.59.769.92.193.51.232.504.258-.039.018-.351-.328-1.054-.768-1.561-.617-.712-.8-.776-.8-.281m108.4.681c.675.66 1.327 1.2 1.448 1.2s-.29-.54-.913-1.2c-.623-.66-1.274-1.2-1.447-1.2-.174 0 .237.54.912 1.2m1.6 1.962c0 .215.18.502.4.638.22.136.4.597.4 1.024 0 .427.18.776.4.776.22 0 .4.27.4.6 0 .419.422.6 1.4.6s1.4.181 1.4.6c0 .33.341.6.757.6.417 0 .861.27.988.6.126.33.406.6.622.6.216 0 1.346.9 2.511 2 2.594 2.448 3.371 2.498 5.151.33.754-.919 1.686-1.999 2.071-2.4.385-.402.556-.73.381-.73-.175 0-1.21.99-2.299 2.2-2.348 2.608-2.659 2.656-4.576.7-.809-.825-2.419-2.31-3.577-3.3-1.158-.99-2.398-2.115-2.756-2.5-.358-.385-.862-.7-1.119-.7-.258 0-.567-.258-.689-.574-.272-.709-1.865-1.618-1.865-1.064M9.338 379.787c.254.543.524.807.6.587.196-.569-.243-1.574-.688-1.574-.209 0-.171.435.088.987m127.162 1.269c-.495.535-.9 1.081-.9 1.214s-.315.481-.7.773c-.385.292-.571.537-.414.544.298.014 2.109-1.7 3.063-2.898.829-1.041-.02-.744-1.049.367m-126.5.557c0 .213.18.387.4.387.22 0 .4.528.4 1.173 0 .841.238 1.249.842 1.44.682.217.798.488.61 1.427-.165.823-.075 1.16.309 1.16.298 0 .765.27 1.039.6 1.028 1.239 1.251.543.247-.773-.576-.756-1.047-1.555-1.047-1.778 0-.222-.38-.669-.843-.994-.464-.325-.734-.769-.599-.987.134-.218.14-.668.012-1.001-.269-.702-1.37-1.228-1.37-.654m321.6 4.308c0 .285-1.862 2.318-7.819 8.539-.98 1.023-1.781 1.96-1.781 2.082 0 .123-.718.996-1.595 1.941-.877.944-1.592 1.897-1.587 2.117.004.22.247.085.539-.3.292-.385.826-.7 1.187-.7.361 0 .656-.18.656-.4 0-.22.36-.4.8-.4.622 0 .8-.267.8-1.2 0-.66.186-1.2.413-1.2.226 0 .528-.301.669-.669.141-.369.541-.971.887-1.34.347-.368 1.441-1.626 2.431-2.795s2.34-2.69 3-3.381c1.92-2.008 2.349-2.615 1.849-2.615-.247 0-.449.144-.449.321m-316.4 2.776c0 .197.63 1.065 1.4 1.93.77.865 1.4 1.708 1.4 1.873 0 .394 1.022 1.391 3.107 3.034.931.733 1.693 1.159 1.693.947 0-.212-.675-.894-1.5-1.515-.825-.622-1.759-1.487-2.076-1.924a14.991 14.991 0 00-1.2-1.428c-.343-.35-1.119-1.229-1.724-1.955s-1.1-1.159-1.1-.962m295.76 1.443c-2.052 2.143-4.547 3.86-5.606 3.86-.349 0-.554.444-.554 1.2 0 .66-.18 1.2-.4 1.2-.22 0-.4.36-.4.8 0 .44-.168.8-.373.8s-.771.56-1.259 1.245l-.886 1.244 3.059 2.943c1.682 1.618 3.059 2.825 3.059 2.682 0-.144-1.27-1.489-2.822-2.99l-2.822-2.728 1.148-1.098c.632-.604 1.765-1.908 2.517-2.898.752-.99 2.435-2.835 3.74-4.1 1.304-1.266 2.297-2.373 2.205-2.46-.091-.088-.364.048-.606.3M25.761 400.549c.125.468.231.986.234 1.151.008.457 1.205.358 1.205-.1 0-.565 1.337-.497 1.97.1.428.404.495.384.349-.1-.1-.33-.573-.658-1.05-.728-.478-.07-.869-.274-.869-.453s-.465-.415-1.034-.523c-.896-.172-1.003-.085-.805.653m289.339 3.474c-1.705 1.757-3.1 3.351-3.1 3.54 0 .565-1.717.838-2.289.363-.292-.242-.642-.329-.778-.192-.136.136.048.361.41.499.361.139.657.683.657 1.21 0 .526.18.957.4.957.22 0 .4-.273.4-.608 0-.557 1.259-2.019 5.9-6.852 1.487-1.549 1.957-2.174 1.6-2.127-.055.007-1.495 1.452-3.2 3.21m-285.31-1.207c-.167.271.112.323.801.151.862-.217 1.099-.108 1.28.583.16.614.537.85 1.352.85.621 0 1.241.18 1.377.4.136.22.444.4.686.4.241 0 .115-.357-.28-.794-.476-.525-1.018-.718-1.608-.57-.669.168-.943.018-1.106-.606-.233-.891-2.024-1.187-2.502-.414m7.108 3.282c.627.627 1.375.898 2.484.9 1.287.002 1.682.19 2.096 1.002.475.93.511.941.516.149.009-1.235-.974-1.862-2.616-1.671-1.085.127-1.526-.007-1.819-.555-.213-.398-.651-.723-.973-.723-.422 0-.335.251.312.898m8.802 2.334c.385.224.7.759.7 1.188 0 .429.18.78.4.78.657 0 .452-1.894-.233-2.157-1.016-.39-1.631-.256-.867.189"/></g></svg>