<svg xmlns="http://www.w3.org/2000/svg" width="400" height="400"><g fill-rule="evenodd"><path d="M121.777 42.073a5.574 5.574 0 001.758 0c.484-.094.088-.17-.879-.17s-1.362.076-.879.17m-4.199.462c0 .191-.22.339-.488.329-1.74-.065-2.658.146-2.406.552.193.313-.023.373-.718.198-.713-.179-1.062-.073-1.233.375-.137.355-.49.527-.822.4-.557-.214-.651-.084-.739 1.021-.022.269-.918.997-1.992 1.618-1.075.621-3.088 2.027-4.475 3.125-1.387 1.097-2.689 1.995-2.893 1.995-.204 0-.419.331-.478.735-.128.869-.795 1.609-1.451 1.609a.544.544 0 00-.518.488c-.027.269-.071.675-.097.902-.027.228-.205.318-.396.2-.19-.118-.322.092-.293.465.03.374-.16.638-.42.587-.299-.059-.38.158-.22.586.231.616.185.625-.503.093-.689-.534-.712-.529-.255.056.583.745-.511 3.62-1.212 3.187-.219-.136-.264-.04-.103.219.388.629-.518 3.246-1.017 2.938-.256-.158-.213-.364.118-.569.285-.176.403-.435.263-.576-.381-.381-.968.097-1.197.975-.119.453-.021.739.236.69.241-.047.495.355.563.892.096.76.037.847-.268.394-.94-1.4-1.507.373-1.75 5.465-.066 1.397-.05 1.617.037.489.265-3.465 1.29-2.767 1.29.879 0 2.912-.198 3.357-1.094 2.46-.365-.364-.469-.364-.469 0 0 .258.172.469.383.469.211 0 .317.568.236 1.262l-.147 1.262.741-.915.74-.914v1.257c0 .871-.156 1.197-.508 1.062-.337-.129-.508.152-.51.837-.003 1.213.818 2.258 1.239 1.577.148-.24.767.842 1.375 2.405 1.084 2.784 1.154 3.766.233 3.249-.311-.175-.303-.088.027.267.268.29.488.805.488 1.146 0 .341.352.647.782.679.866.065.475-1.231-.465-1.545-.303-.101-.33-.246-.074-.404.219-.136 1.122.853 2.006 2.198 1.321 2.009 8.298 9.221 8.298 8.577 0-.104.605.185 1.344.642.739.457 2.337 1.235 3.549 1.728 1.999.813 2.149.955 1.596 1.507-.692.692.028 1.249 1.089.842.3-.115.662-.022.804.208.39.631 1.774.499 1.774-.169 0-.38.377-.584 1.074-.58.764.004.919.105.536.347-.296.188-.417.536-.27.775.395.638 1.395.529 1.395-.151 0-.47.589-.586 2.962-.586 3.898 0 3.852.876-.063 1.2l-2.704.224 2.613.069c1.438.038 2.712-.089 2.832-.283.119-.193.833-.294 1.585-.224.753.07 1.368-.046 1.368-.257 0-.212.196-.264.435-.116.609.376 1.206-.703.619-1.121-.326-.232-.291-.28.118-.157.322.097.542.374.488.616-.053.242.249.439.672.439.827 0 .705-1.148-.127-1.199-.246-.015-.095-.178.334-.363 1.08-.464 1.687-.46.977.006-.845.554.236 1.198 1.332.793.847-.313 1.378-1.58.662-1.58-.224 0-.291.301-.15.67.229.595.187.606-.362.098-.729-.673.094-1.441.962-.898.738.46 1.462.496 1.462.072 0-.209.156-.283.346-.165.508.314 1.333-.835.995-1.383-.173-.28-.124-.366.12-.215.226.14.507.002.625-.305.117-.306.596-.762 1.064-1.013.502-.268.749-.29.602-.052-.137.221-.051.525.192.675.439.271 1.122-.455 1.122-1.195 0-.215-.17-.127-.378.195-.209.322-.382.388-.385.145-.003-.242.268-.667.602-.945.334-.277.577-.343.54-.145-.212 1.113.047 1.453.566.743.299-.408.469-.936.378-1.172-.091-.237.642-1.299 1.629-2.36.987-1.062 2.424-2.853 3.193-3.981 1.345-1.97 1.733-2.388 1.633-1.758-.198 1.256.199 1.22.992-.09.896-1.48.971-2.156.24-2.156-.182 0-.247.396-.145.879.162.769.131.794-.248.202-.326-.51-.298-.935.111-1.716.348-.663.644-.877.82-.592.152.245.061.446-.203.446-.263 0-.373.105-.244.234.505.505 1.069-.283.698-.976-.553-1.033-.098-2.33.74-2.111.663.174 1.462-.914 1.006-1.37-.113-.112-.205.001-.205.252 0 .25-.263.455-.586.455-.322 0-.583-.307-.58-.683.004-.447.107-.526.296-.229.22.346.439.345.915-.002.721-.527.746-2.663.034-2.9-.258-.087-.457-.714-.442-1.394.017-.767.129-1.014.293-.651.68 1.5 1.085.564 1.113-2.565.027-3.146-.636-4.633-1.164-2.611-.098.376-.199.113-.224-.586-.042-1.176.757-1.813 1.225-.976.09.161.084.029-.014-.293-.098-.323-.227-1.026-.288-1.563l-.148-1.315c-.022-.186-.401-.244-.843-.128-.513.134-.745.045-.641-.248.089-.251.457-.432.817-.401.521.045.562-.056.199-.493-.322-.387-.599-.43-.942-.146-.359.298-.549.171-.724-.483-.147-.553-.024-1.046.326-1.309.485-.362.471-.52-.103-1.129-.367-.389-.447-.585-.179-.434.269.15.489.087.489-.141a.415.415 0 00-.414-.413c-.228 0-.305-.176-.172-.391.132-.215.044-.391-.196-.391s-.335-.163-.212-.363a.434.434 0 00-.148-.594c-.214-.133-.296.188-.194.754.101.554-.005.985-.242.985-.232 0-.313-.176-.18-.391.132-.215.059-.391-.163-.391s-.676-.527-1.009-1.171c-.333-.645-.539-1.172-.457-1.172.082 0-.482-.709-1.255-1.575-.772-.866-1.406-1.876-1.409-2.246-.002-.369-.197-.637-.433-.594-.8.146-3.089-2.058-2.51-2.416.327-.202.427-.17.269.085-.285.462.658 1.4 1.032 1.027.391-.391-.482-1.703-1.133-1.703-.328 0-.497-.161-.375-.357.121-.196-.089-.304-.466-.241-.377.064-.641.312-.587.552.138.618-.112.542-.734-.225-.364-.449-.379-.566-.048-.367.269.161.489.201.489.089 0-.113-.373-.405-.829-.648-.636-.341-.761-.335-.539.025.159.257-.422.058-1.292-.443-1.141-.656-1.474-1.041-1.194-1.378.416-.501-.658-1.304-1.743-1.304-.313 0-.679-.284-.812-.63-.153-.4-.525-.556-1.019-.427-.427.111-.678.043-.558-.151.121-.195-.011-.368-.292-.385a11.01 11.01 0 01-1.168-.156c-.361-.07-.751.119-.867.42-.323.844-1.368.68-1.143-.18.129-.491-.058-.792-.573-.927-.596-.156-.721-.039-.572.532.149.568-.016.726-.733.705-.794-.024-.822-.068-.203-.312.588-.231.624-.361.196-.7-.731-.579-1.894-.501-1.894.128 0 .387-.748.52-2.929.52-1.612 0-2.93-.157-2.93-.348 0-.41-1.194-.932-1.479-.647-.107.107.027.463.299.791.415.5.368.595-.298.595-.6 0-.743-.19-.588-.781.112-.43.095-.781-.037-.781s-.241.156-.241.347m14.453 1.41c0 .323-.285.586-.634.586-.519 0-.545-.106-.147-.586.267-.322.553-.586.634-.586.081 0 .147.264.147.586m-23.719 2.246c-.647.836-1.001 1.726-.392.983.306-.373.641-.592.745-.488.104.104.189-.075.189-.397 0-.712-.059-.722-.542-.098m-1.626.782a.75.75 0 01-.729.689c-.58.005-.595.062-.101.375.739.467 1.305-.078 1.062-1.023-.166-.645-.192-.649-.232-.041m41.882 9.472c0 .335.159.555.355.49a.554.554 0 00.354-.49.552.552 0 00-.354-.489c-.196-.065-.355.155-.355.489m2.604 6.055c0 .215.264.391.586.391.322 0 .586-.176.586-.391 0-.215-.264-.391-.586-.391-.322 0-.586.176-.586.391m-56.641 5.312c0 .475-.097.488-.545.074-.299-.277-.463-.638-.363-.803.27-.446.908.065.908.729m58.233 10.49c.576-.356.417.071-.225.604-.499.414-.579.32-.541-.636.027-.669.118-.844.225-.433.099.378.342.588.541.465M98.225 89.871c-.146.237-.094.604.117.814.25.25.462.175.613-.217.273-.712-.346-1.218-.73-.597m47.636 1.993c-.409.467-.524.72-.256.563.308-.18.489-.051.489.346 0 .348.178.522.397.387.218-.135.303-.397.189-.582-.115-.185.185-.613.666-.95.853-.597.855-.612.067-.612-.444 0-1.142.381-1.552.848m-46.045-.086c-.233.377.002.551.632.469.139-.018.168.293.064.691-.104.398-.036.819.152.935.188.116.376-.197.417-.696.085-1.027-.853-2.065-1.265-1.399m2.918 4.08c0 .08.461.448 1.025.817.582.382.892.457.717.174-.223-.361-.114-.423.398-.227.548.211.611.158.284-.237-.374-.451-2.424-.897-2.424-.527m3.561 2.091c-.026.519.181.879.508.879.305 0 .656.22.782.488.182.39.274.39.456-.002.126-.27.417-.375.646-.233.241.149.305.075.15-.175-.148-.239-.555-.324-.906-.19-.423.163-.543.093-.358-.208.18-.289.074-.373-.292-.233-.347.134-.644-.06-.756-.492-.148-.572-.193-.539-.23.166m32.517.357a.427.427 0 01-.235.631c-.27.096-.356.319-.192.495.165.176.508.113.762-.142.356-.356.341-.574-.064-.95-.338-.314-.435-.326-.271-.034m-28.775 1.553c-.138.138-.157.401-.042.586.284.46 1.333.426 1.333-.042 0-.208-.292-.266-.65-.129-.437.168-.557.1-.367-.208.303-.49.136-.617-.274-.207m.705 8.323c-.43.173-.913.238-1.074.145-.161-.094-.293.016-.293.244 0 .227-.282.413-.628.413-.412 0-.546.213-.39.619.151.394.06.557-.251.448-.269-.094-.438-.458-.375-.808.077-.434-.079-.563-.489-.406-.331.127-.601.359-.601.515 0 .155-.396.248-.879.205-.484-.043-1.187.189-1.563.516-.376.327-.683.49-.683.362s-.471.012-1.047.31c-.575.299-1.19.454-1.367.345-.176-.109-.321-.001-.321.241 0 .256.314.341.749.203.923-.293 1.447.399.56.739-.352.135-.923.001-1.268-.299-.701-.608-1.754-.424-1.346.235.167.27.024.333-.392.173-.414-.159-.821.017-1.11.481-.251.402-.688.642-.97.534-.282-.108-.621.084-.753.427-.131.344-.386.534-.565.423-.179-.11-.507.11-.728.491-.222.38-.408.534-.415.342-.006-.193-.476.151-1.043.763-1.19 1.283-.594 1.84.761.711.471-.392-.462.537-2.073 2.066-2.386 2.263-3.039 2.696-3.516 2.334-.514-.391-.518-.359-.032.259.488.621.456.802-.274 1.533-.824.823-.827.823-.618.022.116-.442.041-.909-.166-1.037-.219-.136-.33.295-.266 1.03.119 1.368-.441 2.382-1.092 1.979-.244-.151-.289-.061-.113.224.161.262.031.772-.29 1.135-.32.362-1.173 1.714-1.893 3.003-.721 1.289-1.531 2.361-1.799 2.382a9.49 9.49 0 00-.794.098c-.446.086-.535 2.012-.093 2.012.206 0 .262-.293.125-.65-.183-.475-.109-.563.274-.327.396.245.454.142.238-.424-.197-.518-.16-.624.123-.343.283.28.193.969-.294 2.254-.386 1.017-.779 1.773-.873 1.679-.094-.094-.187.298-.208.871-.131 3.71-1.034 7.13-1.597 6.045-.751-1.448-.832-1.493-.785-.439.022.497-.07 1.871-.203 3.053-.134 1.181-.159 1.85-.055 1.486.108-.383.424-.571.748-.446.486.186.562 9.877.562 71.504 0 61.24-.078 71.259-.552 71.077-.452-.173-.523.296-.396 2.595.086 1.544.164 3.334.175 3.979l.018 1.172.652-1.333.652-1.332.677 2.699c.373 1.485.582 3.03.465 3.433-.137.474-.06.638.22.465.588-.363.549.281-.056.921-.394.418-.375.483.098.337 1.012-.313 2.852 3.367 1.855 3.709-.268.093-.182.123.192.067.674-.101 2.969 3.452 2.728 4.224-.059.189.061.24.267.113.205-.127.627.131.936.573.819 1.17 3.76 4.227 6.178 6.423 1.156 1.05 1.855 1.763 1.553 1.584-.373-.221-.458-.178-.266.133.156.252.44.36.633.241.743-.459 3.508 1.807 3.11 2.549-.287.538-.203.737.376.889.425.111.836-.036.953-.341.313-.815 1.274-.245 1.241.735-.023.661.223.893 1.045.987.609.07 1.074-.066 1.074-.316 0-.241-.174-.331-.388-.2-.213.132-.675.079-1.026-.118-.386-.216-.481-.456-.239-.605.478-.295 2.944.671 2.597 1.018-.132.132.156.137.641.01.57-.149.79-.084.624.185-.162.262.032.34.525.211.941-.246.992.011.168.836-.52.52-.527.614-.042.614.315 0 .673-.264.797-.586.124-.323.428-.586.675-.586.333 0 .337.137.016.524-.337.407-.226.621.494.949.822.374.907.336.733-.33-.143-.546.003-.751.532-.747.484.004.572.106.261.304-.272.173-.335.51-.152.808.249.403.366.38.553-.108.154-.401.689-.608 1.52-.588.705.017 1.062.119.793.228-.552.222-.672 1.304-.145 1.304.188-.001.561-.264.829-.586.413-.498 2.32-.586 12.701-.586 10.778 0 12.243-.073 12.452-.618.131-.34.237-6.809.237-14.375 0-10.436.117-13.874.485-14.242.31-.31.345-.585.098-.762-.675-.483-.695-2.035-.026-2.035.537 0 .619 1.858.713 16.114l.106 16.113.094-17.062c.097-17.918.058-18.37-1.595-18.259-.322.022-.313.091.03.229.27.109.375.386.233.615-.153.248-.074.304.195.138.535-.331 1.03.706.64 1.338-.189.305-.461.263-.914-.143-.526-.471-2.184-.577-9.043-.576-12.13.002-11.954.01-11.406-.538.566-.567.625-1.236.078-.898-.215.132-.391.074-.391-.131 0-.204-.242-.464-.537-.578-.621-.238-.662.936-.049 1.386.241.177.202.29-.103.293-.272.004-1.151-.636-1.953-1.421-.803-.785-1.094-1.136-.646-.78.447.355.958.514 1.136.353.179-.162.182-.031.009.292-.246.457-.207.486.177.131.593-.547.209-1.303-.661-1.303-.345 0-.522-.106-.393-.236.13-.129.054-.7-.167-1.269-.272-.698-.391-23.336-.364-69.687.035-60.891-.027-68.652-.548-68.652-.324 0-.588-.186-.588-.414 0-.227.186-.298.415-.157.547.339 2.009-1 1.77-1.622-.102-.266.067-.694.377-.951.309-.257.563-.35.563-.206 0 .143.458-.198 1.019-.759.561-.561 1.264-.926 1.563-.811.298.114.543.048.543-.148s.374-.284.831-.196c.457.088 1.181-.027 1.609-.256.562-.301.705-.298.513.012-.189.306 1.625.428 6.301.424 4.384-.004 6.371-.132 5.98-.385-.45-.29-.313-.378.586-.378s1.035.088.586.378c-.387.25 2.74.372 9.18.358 5.811-.013 9.449-.158 8.984-.358-.659-.283-.586-.34.465-.363.686-.015 1.341.125 1.456.311.305.495 13.544.559 14.826.071.687-.261.985-.267.83-.017-.146.237.456.389 1.541.389 1.322 0 1.78-.151 1.78-.586 0-.476-.606-.581-3.222-.558-2.164.018-2.966.137-2.442.363.746.32.741.337-.097.363-.484.015-.879-.148-.879-.363s-.362-.391-.805-.391c-.442 0-.695.176-.562.391.132.215.055.39-.173.39a.41.41 0 01-.413-.404c0-.274-.252-.27-.782.014-.529.283-.781.288-.781.013a.41.41 0 00-.414-.404c-.227 0-.305.176-.172.391.147.237-.418.388-1.442.384-1.23-.004-1.525-.107-1.097-.384.44-.284.244-.379-.781-.379s-1.221.095-.781.379c.471.304.409.38-.316.384-.503.004-.796-.166-.661-.384.141-.228-.256-.391-.953-.391-.658 0-1.195.182-1.195.404 0 .279-.235.279-.756 0-1.163-.622-23.937-.545-24.614.084-.396.368-.46.37-.257.011.206-.365-1.095-.506-5.509-.597-3.178-.066 11.932-.159 33.577-.206l39.356-.086v-32.813h-82.722l-.213-.814c-.229-.875-2.498-1.001-3.095-.171-.182.253-.289.221-.293-.089-.006-.55-.25-.571-1.373-.119m88.339.208c-.601 1.565-.272 33.667.344 33.667.695 0 .832-27.008.139-27.437-.196-.121-.167-.552.068-.99.228-.426.362-1.837.298-3.136-.118-2.371-.44-3.17-.849-2.104m-107.533 9.491c.144.234.083.535-.135.67-.219.135-.397.02-.397-.255 0-.276-.276-.107-.613.374-.337.481-.761.783-.942.671-.345-.213-.309.8.04 1.15.11.11.775-.392 1.478-1.117.918-.947 1.14-1.401.791-1.617-.301-.186-.385-.139-.222.124m-12.804 21.041c-.195.507-.134.549.287.199.293-.243.649-.327.79-.185.141.141.257.052.257-.199 0-.691-1.054-.545-1.334.185m96.386 4.266c0 .534.882.594 7.162.488 3.939-.067 7.161-.033 7.161.074-.001.107 1.141.136 2.538.064 1.397-.072 2.54-.291 2.54-.488 0-.196.274-.357.609-.357.335 0 .495.185.355.411-.168.272.421.381 1.735.321 4.015-.183 2.432-1.16-1.74-1.073-2.127.044-3.511.215-3.223.398.31.197-.101.309-1.056.288-1.356-.028-1.433-.074-.586-.345.796-.255.633-.32-.879-.352-1.02-.021-1.855.137-1.855.352 0 .215-.352.39-.782.39-.429 0-.781-.175-.781-.39 0-.612-10.04-.516-10.288.097-.158.391-.203.391-.228 0-.045-.712-.682-.599-.682.122m-60.677 4.101c0 .202-.264.367-.586.367-.604 0-.776-.461-.336-.901.312-.312.922.041.922.534M77.851 150c0 1.182.074 1.665.163 1.074.09-.591.09-1.557 0-2.148-.089-.591-.163-.108-.163 1.074m34.942 102.02c-.056 18.977-.102 3.566-.102-34.247 0-37.812.046-53.339.102-34.503.056 18.835.056 49.773 0 68.75m-34.878-80.731c0 10.313.051 14.475.112 9.25.062-5.224.062-13.662 0-18.75-.062-5.087-.112-.812-.112 9.5m-.074 20.899c0 .966.076 1.362.169.878a5.567 5.567 0 000-1.757c-.093-.484-.169-.088-.169.879m.014 6.054c.003 1.289.076 1.77.162 1.067.087-.702.086-1.756-.004-2.343-.089-.587-.16-.013-.158 1.276m-.03 6.055c0 .752.08 1.059.179.683a3.215 3.215 0 000-1.367c-.099-.376-.179-.068-.179.684m.046 5.078c0 1.826.067 2.573.149 1.66.083-.913.083-2.407 0-3.32-.082-.913-.149-.166-.149 1.66m.017 10.742c.001 3.008.062 4.187.137 2.62.074-1.567.074-4.028-.001-5.469-.075-1.441-.136-.159-.136 2.849m103.047 1.182c.306.306 6.135.355 6.436.054.142-.143-1.294-.259-3.191-.259-1.898 0-3.358.092-3.245.205m10.184.075c.593.09 1.472.087 1.953-.005.48-.093-.006-.166-1.08-.164-1.074.003-1.467.079-.873.169m7.611-.005a5.515 5.515 0 001.758 0c.484-.093.088-.169-.879-.169-.966 0-1.362.076-.879.169m8.204 0a5.509 5.509 0 001.757 0c.484-.093.088-.169-.878-.169-.967 0-1.363.076-.879.169m21.289-.006c.376.098.991.098 1.367 0s.068-.179-.684-.179-1.059.081-.683.179m8.612-.022c.136.135 1.131.267 2.212.292 1.081.026 2.01.222 2.065.437.065.257-10.478.458-30.76.586l-30.86.196-.102 16.457-.102 16.457.884.252c.485.139 4.351.241 8.591.228 6.9-.022 7.683.041 7.469.598a.665.665 0 01-.872.404c-.463-.16-.433-.064.11.357.784.608.607.777-1.134 1.079-.486.084-.757.411-.717.866.058.656-9.929 11.88-10.922 12.275-.201.08-.501-.075-.667-.343-.166-.269-.5-.366-.743-.216-.242.15-.339.436-.216.636.124.2.039.364-.189.364-.227 0-.413.362-.413.804 0 .531.166.71.488.527.269-.152-.117.365-.858 1.149-1.329 1.408-2.135 1.976-1.193.84.395-.476.378-.586-.092-.586-.359 0-.562.349-.536.923.061 1.335-3.374 4.948-4.498 4.732-.461-.089-.729-.052-.594.083s.03.525-.233.867c-.276.358-.076.291.471-.16.523-.429.091.23-.96 1.465-1.738 2.044-2.553 2.822-1.973 1.883.124-.2.046-.474-.172-.609-.218-.135-.397-.097-.397.084s-.547.652-1.215 1.047c-.9.532-1.081.801-.697 1.039.296.183.775.125 1.118-.134.329-.25.172.024-.348.608-1.056 1.184-1.583 1.441-.78.379.446-.59.439-.614-.05-.176-.312.28-.567.641-.567.804 0 .662-2.147 2.79-2.815 2.79-.703 0-1.906.988-3.091 2.539-.329.43-.486.562-.35.293.428-.846-.072-.53-.715.452-.77 1.173.002 1.186 1.386.022.594-.499.524-.342-.207.464-.767.846-1.345 1.156-1.89 1.014-.605-.158-.756-.037-.662.533.19 1.152-.393 1.853-1.073 1.289-.738-.613-2.162.588-1.823 1.536.127.356.089.518-.084.361-.377-.341-1.762 1.159-1.762 1.908 0 .713.751.669 1.03-.059.273-.71.923-.779.924-.098 0 .268 1.042 1.517 2.316 2.774 1.273 1.258 2.245 2.488 2.159 2.735-.22.631 1.077 2.076 1.864 2.076.361 0 .565-.15.452-.332-.113-.183-.413-.213-.667-.068-.253.145-.329.119-.167-.06.161-.178-.014-.685-.391-1.126-.376-.441.305.072 1.513 1.14 1.482 1.31 2.082 2.088 1.842 2.39-.226.284-.127.675.272 1.074.873.873 1.087.785.806-.334-.234-.932.94-2.107 1.845-1.846.178.051.206-.096.063-.327-.142-.231 1.471-2.206 3.584-4.389 4.629-4.781 4.883-5.001 5.504-4.783.269.095.488.014.488-.18 0-.193.364-.467.809-.608.717-.228.738-.308.189-.71-.537-.393-.32-.769 1.633-2.826 1.239-1.305 4.162-4.424 6.496-6.93 2.334-2.506 4.426-4.443 4.65-4.305.224.139.295.07.158-.151-.137-.222 1.166-1.875 2.895-3.674s3.053-3.08 2.94-2.847c-.112.232.049.423.359.423.414 0 .452-.132.144-.504-.705-.85 15.719-17.91 17.201-17.866 1.527.045 2.339-1.549 1.348-2.644-.645-.713-.351-.731 11.704-.731 10.522 0 12.365.084 12.365.565 0 .378-.546.616-1.66.723-.913.087-.386.12 1.172.072 1.557-.047 2.832.034 2.832.18 0 .625 1.691 2.01 2.21 1.811.453-.174.544.119.449 1.438-.078 1.069-.293 1.622-.608 1.559-.326-.065-.489.423-.489 1.465 0 1.837 1.013 2.219 1.296.488.096-.591.152-.196.123.879-.035 1.333-.207 1.922-.54 1.855-.566-.113-.666.918-.122 1.255.202.124.53-.064.729-.419.286-.512.418-.332.636.87.152.834.37 1.912.486 2.396.12.498.029.879-.209.879-.232 0-.32-.264-.196-.586.142-.371-.006-.586-.403-.586-.783 0-.785-.036.131 2.286.417 1.059.652 2.032.521 2.163-.131.131-.042.238.198.238.24 0 .589-.272.775-.605.279-.498.424-.418.819.45.373.818.376 1.152.015 1.484-.342.314-.399.307-.213-.024.334-.596-.12-1.753-.577-1.471-.196.121-.239.411-.094.644.17.275.076.31-.266.098-.291-.179-.161.189.287.819.448.629.849 1.32.891 1.535.041.215.143.458.226.541.083.083.079-.221-.009-.675-.221-1.148.441-1.431.982-.421.301.564.318.962.05 1.23-.577.577-.107 1.603.502 1.097.349-.289.83.102 1.789 1.455.722 1.018 1.449 1.946 1.615 2.063.166.116.215.687.11 1.269-.194 1.068.322 1.441.837.607.156-.252.109-.346-.107-.212-.212.131-.386-.017-.386-.328 0-.316.965.347 2.181 1.497 1.2 1.135 2.928 2.658 3.841 3.383.913.726 1.66 1.5 1.66 1.72 0 .22-.255.059-.566-.358-.544-.728-.557-.722-.336.155.183.726.431.876 1.205.728 1.251-.239 3.84 1.208 3.238 1.81-.526.526-.545 1.167-.025.845.215-.133.391-.055.391.172 0 .228.219.37.488.316.268-.053.434.152.368.457-.092.43.002.454.42.107.363-.301.668-.318.933-.053.266.265.395.204.395-.187 0-.32-.103-.52-.228-.445-.125.075-.455-.108-.732-.408-.657-.711-.544-.695 2.003.28 1.486.568 2.09.992 1.946 1.367-.124.324.044.543.42.543.345 0 .633.219.64.488.007.298.214.222.531-.195.285-.376.753-.684 1.039-.684.321 0 .23.212-.238.554-.417.305-.627.684-.468.844.16.159.613-.002 1.007-.359 1.044-.944 1.943-.859 1.074.102-.654.723-.642.746.33.64.555-.061 1.009.07 1.009.291 0 .221.113.289.251.151.138-.138.029-.519-.243-.846-.423-.51-.333-.595.628-.59.825.005.973.1.561.361-.763.483.11 1.557 1.197 1.475.683-.051.704-.114.17-.505-1.067-.78-.678-.948 2.026-.876 2.189.059 2.321.096.781.217-1.02.08-1.855.291-1.855.468 0 .548 2.291 1.303 3.02.996.38-.161 1.657-.339 2.839-.396 1.182-.057 2.429-.218 2.772-.357.342-.14 1.087-.17 1.654-.067.566.103 1.124.036 1.238-.149.114-.185-.191-.412-.678-.506-.486-.093-.137-.194.776-.223 1.26-.04 1.66.092 1.66.551 0 .48.3.554 1.465.361 1.09-.18 1.315-.136.879.172-.679.479-.008.609 2.302.445 1.101-.078 1.283.018 1.073.565-.418 1.087.15 1.478 1.032.71.482-.419.347-.111-.329.752-.748.958-1.363 1.391-1.783 1.258-.614-.195-1.09.425-1.356 1.766-.221 1.11-3.283 3.282-3.283 2.328 0-.227-.186-.298-.414-.158-.267.165-.192.419.211.713.548.401.443.624-.856 1.817-.814.748-1.26 1.106-.992.795 1.096-1.269.453-1.694-.73-.484-.67.686-1.373 1.247-1.562 1.247-.19 0-.344.361-.344.804 0 .445.177.695.396.559.219-.135.279-.453.133-.707-.145-.254-.12-.331.056-.172.175.16.599.079.941-.178.342-.257.016.184-.724.98-1.267 1.363-2.17 2.04-1.263.946.288-.347.292-.677.011-1.074-.336-.474-.369-.457-.19.099.118.369.044.776-.165.905-.209.13-.29.381-.181.558.381.615-1.195 2.113-1.927 1.832-.586-.224-.614-.368-.183-.944.28-.373.026-.225-.565.33-1.331 1.25-1.855 3.607-.762 3.422 1.265-.214 6.36 4.14 5.661 4.838-.218.218-.311.619-.206.891.118.31.857-.218 1.97-1.408.979-1.047 1.911-1.822 2.071-1.723.16.098.622-.212 1.027-.69l.735-.87-.976.768c-1.169.919 1.694-2.192 7.896-8.581 2.503-2.578 5.731-5.918 7.175-7.421 1.443-1.504 2.306-2.338 1.917-1.854-.825 1.029-.568 1.589.32.7.333-.332.718-.604.856-.604s.485-.235.772-.521c.593-.593.6-2.6.009-2.61-.215-.003-.127-.177.196-.385.352-.227.4-.381.12-.385-.256-.003-.569.163-.696.368-.127.206-.517.264-.867.13-.534-.206-.5-.295.212-.558l.849-.314-.102-15.839-.102-15.839-14.258-.149c-7.842-.082-14.698-.232-15.235-.333-.537-.101-1.108-.207-1.269-.234-.161-.028-.293-.209-.293-.404 0-.195.395-.257.879-.138.483.119.78.107.66-.027-.462-.515-2.143-.511-2.52.005-.335.458-.507.459-1.126.007-.624-.457-.638-.535-.093-.535.35 0 .637.176.637.391 0 .215.095.296.21.181.116-.116.001-.669-.255-1.231-.418-.917-.512-.954-.939-.37-.826 1.129-1.359-.639-1.359-4.502 0-2.859.115-3.544.63-3.741.528-.203.547-.342.116-.861-.465-.56-.541-.551-.798.102-.26.66-.286.652-.312-.092-.037-1.109.368-1.425 1.084-.843.51.413.552.37.283-.297a8.099 8.099 0 01-.427-1.638c-.186-1.419-.567-1.785-1.262-1.213-.543.448-.583.377-.34-.599.17-.682.13-1.018-.102-.874-.48.296-.971-1.18-.595-1.787.165-.267.111-.35-.129-.201-.559.345-1.009-.944-.505-1.448.631-.631.474-1.42-.28-1.413-.533.004-.567.08-.154.341.329.208.381.429.137.579-.47.291-2.15-2.767-1.817-3.306.128-.206-.001-.326-.285-.267-.287.06-.494-.196-.464-.572.029-.373-.059-.613-.196-.532-.136.081-.854-.668-1.594-1.664-.74-.997-1.077-1.595-.749-1.33.483.39.597.374.597-.08 0-.31-.14-.476-.312-.37-.502.31-6.147-5.062-5.76-5.481.567-.614.39-.996-.461-.996-.509 0-.702.166-.526.451.18.29.106.344-.206.151-.349-.216-.366-.419-.061-.724.534-.534.559-1.179.035-.855-.215.133-.391.061-.391-.16s-.263-.3-.584-.177c-.321.123-.471.425-.333.671.138.247.007.221-.292-.057-.462-.43-.457-.558.035-.862.452-.279.393-.343-.269-.293-.466.035-.75.221-.631.412.242.393-.866-.169-1.989-1.008-.513-.383-.604-.641-.293-.833.247-.153.45-.454.45-.669 0-.214-.176-.282-.391-.149-.215.133-.391.061-.391-.16s-.292-.289-.65-.152c-.472.181-.562.108-.33-.268.213-.344.169-.424-.131-.238-.248.153-.451.065-.451-.196 0-.301-.273-.228-.748.202-.697.631-.822.634-1.855.036-.61-.352-.8-.547-.424-.433.721.22.861-.067.384-.786-.158-.238-.594-.386-.97-.328-.376.058-.684-.055-.684-.25 0-.196-.132-.319-.293-.274-.161.046-.681-.132-1.156-.395-.475-.264-1.002-.449-1.172-.412-.17.037-.616-.067-.992-.232-.84-.367-1.995.024-1.662.563.138.223-.147.38-.659.363-.496-.017-.682-.12-.414-.228.962-.388.531-1.26-.528-1.068-.559.101-1.262-.02-1.563-.27-.308-.256-1.052-.353-1.703-.223-.636.127-1.261.061-1.389-.146-.129-.208-1.307-.378-2.62-.378-1.312 0-2.274.111-2.139.247m-26.679.497c0 .318 3.09.13 3.483-.212.09-.078-.657-.142-1.66-.142-1.002 0-1.823.159-1.823.354m-31.771 2.641c-.362.363-.328 7.162.037 7.162.163 0 .353-1.67.422-3.711.122-3.627.074-3.984-.459-3.451m-.052 8.448c-.168.385-.195.81-.061.944.397.397.716-.161.534-.93-.162-.683-.183-.683-.473-.014m88.696-.174c-.112.182.297.811.911 1.399 1.333 1.278 1.918.744.776-.708-.831-1.057-1.334-1.263-1.687-.691M77.894 240.82c0 3.653.058 5.199.131 3.437.072-1.761.072-4.75.001-6.64-.072-1.891-.131-.449-.132 3.203m100.231-3.167c0 1.885.155 3.313.347 3.195.38-.236.286-5.97-.104-6.361-.134-.133-.243 1.292-.243 3.166m-29.297-2.278c0 .274.22.586.488.694.269.109.112.211-.348.228-.461.017-.94-.237-1.066-.564-.259-.676-1.281-.58-3.447.325-.782.327-1.525.492-1.65.367-.393-.393-.246.505.164.997.284.341.263.362-.078.078-.702-.585-1.526-.473-2.154.293-.337.411-.446.45-.273.098.158-.323-.225-.147-.85.39-.626.537-1.189.999-1.252 1.026-.063.027.166.157.509.289.406.156.527.084.347-.208-.17-.275-.103-.339.175-.167.248.153.451.121.451-.07 0-.192.263-.349.586-.349.806 0 .787.023-.979 1.192-.861.57-1.543.901-1.516.736.126-.783-.082-1.3-.436-1.081-.216.134-.294.635-.174 1.115.174.693-.259 1.328-2.118 3.101-1.285 1.226-2.257 2.229-2.16 2.229.097 0-.099.533-.436 1.184-.356.688-.795 1.072-1.047.917-.246-.152-.326-.093-.184.137.341.552-.507 2.894-.949 2.621-.194-.12-.353-.394-.353-.608 0-.215.174-.284.386-.152.225.139.285-.026.144-.394-.142-.37-.387-.488-.591-.285-.469.47-.769 2.125-.336 1.857.552-.341.833.462.553 1.578-.171.68-.36.869-.554.554a.566.566 0 00-.78-.179c-.366.226-.328.387.151.656.35.196.625.742.612 1.215-.024.815-.045.809-.416-.117-.38-.947-.405-.953-.832-.195-.625 1.109-.623 6.529.003 6.738.351.117.488-.44.488-1.986 0-1.3-.181-2.209-.46-2.301-.508-.17-.1-1.084.483-1.084.717 0 .44 6.306-.3 6.848-.554.405-.592.656-.222 1.468.246.539.356 1.325.246 1.747-.142.545.035.828.612.979.447.117.813.054.813-.141 0-.195-.264-.354-.586-.354-.741 0-.765-.629-.036-.909.358-.137.64.146.807.809.366 1.46 2.467 5.862 2.936 6.152.773.477.407 1.013-.397.583-.436-.234-.689-.591-.563-.795.126-.204.032-.371-.208-.371s-.311-.203-.158-.451c.186-.3.106-.344-.238-.132-.365.225-.451.147-.293-.265.13-.34.005-.585-.301-.585-.414 0-.389.255.118 1.205.353.662.616 1.307.584 1.432-.033.125.151.247.408.27 1.214.11 1.788.484 3.787 2.469 1.181 1.173 2.763 2.622 3.515 3.219.752.597 1.104.96.781.805-.338-.161-.45-.132-.265.07.176.193.601.353.943.356.342.003.705.251.806.553.132.394-.049.486-.651.329-.458-.12-.735-.059-.615.136.307.496 1.736.444 1.736-.063 0-.461.853-.25 3.318.818 1.384.599 1.44.672.49.627-.59-.028-1.074-.198-1.074-.377 0-.745-.98.071-1.021.85-.03.564.102.741.39.525.609-.455 2.259-.496 1.983-.049-.224.363.562.501 2.652.466.591-.01 1.074.14 1.074.332 0 .469 1.455.449 1.747-.023.127-.206.489-.275.805-.154.315.121.573.026.573-.212 0-.539-1.04-.571-1.367-.042-.373.604-1.367.461-1.367-.195 0-.461.542-.586 2.539-.586 1.996 0 2.539.125 2.539.586 0 .331-.35.586-.805.586-.508 0-.701-.166-.525-.451.18-.291.106-.345-.206-.152-.968.598.235 1.101 1.767.739 1.703-.403 2.171-1.171.865-1.42-.679-.13-.588-.186.369-.226.76-.032 1.23.123 1.171.387-.053.241.149.528.45.638.397.144.488-.03.33-.635-.252-.961.528-1.143 1.238-.288.516.622 2.1.365 1.862-.302-.087-.241-.577-.403-1.091-.36-.513.043.385-.556 1.997-1.33 1.611-.775 3.167-1.37 3.457-1.322.29.047.427-.076.304-.274-.122-.199.519-.951 1.426-1.671.907-.721 1.42-1.025 1.141-.677-.35.437-.377.714-.088.893.231.142.394.114.364-.063a1.525 1.525 0 01.039-.615c.052-.161.117-.454.144-.65.168-1.23 2.755-3.899 3.338-3.444.523.407.547.391.158-.111-.478-.614 1.806-6.134 2.324-5.617.127.127.137-.126.023-.562-.174-.665-.059-.762.71-.598.798.17.829.139.234-.241-1.006-.643-.873-1.537.195-1.311.774.163.798.133.195-.252-.466-.298-.669-.896-.638-1.882.025-.795.126-1.138.224-.762.223.851.742.883 1.056.066.375-.978.282-1.335-.349-1.335-.39 0-.585-.391-.585-1.172 0-.696.204-1.172.502-1.172.279 0 .543-.523.592-1.172.108-1.406-.946-1.662-1.209-.293-.107.554-.189.345-.223-.563-.06-1.633.482-2.236 1.083-1.203.548.942.531.373-.026-.849-.351-.771-.569-.895-.976-.557-.396.329-.526.304-.53-.101-.002-.294-.634-1.942-1.403-3.661-.769-1.718-1.411-3.337-1.427-3.596-.016-.259-.167-.386-.335-.282-.169.104-.508-.188-.755-.65-.312-.582-.318-.758-.02-.574.275.17.42-.128.402-.832-.022-.873-.085-.949-.312-.373-.263.669-5.52-3.115-5.52-3.973 0-.125.211-.017.469.241.645.645 1.094.587 1.094-.14 0-.335-.161-.51-.358-.388-.196.121-.416.088-.489-.075-.073-.162-.644-.735-1.268-1.272-.625-.537-1.007-.713-.849-.39.158.322.011.244-.328-.173-.338-.417-.614-.567-.614-.334 0 .232-.268.526-.595.651-.501.193-.523.091-.139-.641l.457-.871-.878.78c-.847.753-.872.754-.74.033.173-.946-2.316-1.78-2.83-.948-.171.277-.434.381-.583.231-.15-.149-.056-.533.208-.852.406-.489.339-.552-.431-.404-.502.097-.971.354-1.044.571-.237.713-1.173.425-.983-.302.225-.861-1.254-1.099-1.578-.254-.148.385-.841.56-2.222.56-1.445 0-1.955-.137-1.821-.489.121-.315-.21-.503-.935-.53-.669-.024-1.121.159-1.121.456m123.345 2.829c-.124.472-.078.949.102 1.06.497.307.708-.305.398-1.157-.263-.723-.287-.719-.5.097m-102.802 3.536c-.113.184.228.742.758 1.24.869.816.965.835.965.187 0-.395-.116-.603-.257-.462-.354.353-1.349-.522-1.083-.952.118-.191.126-.347.019-.347-.108 0-.288.15-.402.334m8.793 4.038c.068 2.955.659 3.978.703 1.218.022-1.33-.137-2.527-.351-2.66-.24-.148-.376.41-.352 1.442m-46.133-.303c0 .305-.219.638-.488.742-.269.103-.119.17.333.149.591-.028.77-.237.638-.742-.219-.839-.483-.921-.483-.149m41.602 1.167c0 .517.162.84.359.718.206-.128.238.097.075.525-.206.541-.167.63.143.323.299-.296.309-.739.033-1.465-.488-1.284-.61-1.304-.61-.101m-95.754 5.702c0 2.256.064 3.178.143 2.051a35.528 35.528 0 000-4.102c-.079-1.128-.143-.205-.143 2.051M175 249.616c-.425.27-.445.374-.075.378.295.003.395.213.236.494-.211.374-.161.382.216.034.687-.634.375-1.384-.377-.906m1.031 2.608c-.44.44-.268.901.336.901.322 0 .586-.165.586-.368 0-.492-.61-.845-.922-.533m2.354 1.161c-.406.407-.305 2.791.131 3.06.238.148.39-.451.39-1.539 0-1.811-.058-1.983-.521-1.521m.187 4.08c.291.185 1.76.324 3.264.311 3.335-.031 2.942-.231-.92-.469-1.679-.104-2.653-.038-2.344.158m11.569.233c.486.094 1.189.09 1.563-.008.373-.098-.024-.174-.884-.17-.859.005-1.165.085-.679.178m3.177.643c-.345.461-.753 1.237-.907 1.723-.154.487-.443.784-.642.661-.318-.196-.518.297-.424 1.045.017.136-.27.224-.638.196-.367-.029-.673.212-.678.534-.006.322-.163.85-.349 1.172-.186.322.545-.266 1.624-1.307 1.315-1.268 1.902-2.123 1.78-2.591-.11-.422.151-.932.661-1.289.464-.325.699-.679.522-.787-.177-.107-.604.182-.949.643m25.53-.635c.805.085 2.124.085 2.929 0 .806-.084.147-.153-1.464-.153-1.612 0-2.271.069-1.465.153m9.968-.001c.702.087 1.756.085 2.343-.004.587-.089.013-.16-1.276-.158-1.289.002-1.77.075-1.067.162m50.167 1.893c.073 1.39.309 2.317.616 2.419.373.123.468-.4.379-2.089-.073-1.386-.31-2.317-.616-2.419-.373-.125-.467.398-.379 2.089m-201.142.558c0 .967.076 1.363.169.879a5.574 5.574 0 000-1.758c-.093-.483-.169-.088-.169.879m135.598.433c-.409.453-.692 1.137-.629 1.52.117.707-1.726 2.481-2.244 2.16-.154-.095-1.057.654-2.005 1.665-.949 1.011-1.484 1.632-1.189 1.381.295-.251.822-.366 1.172-.255.55.174.556.144.05-.22-.323-.232-.41-.445-.196-.473.215-.028.567-.076.782-.107.884-.128 4.214-3.683 3.992-4.263-.262-.682.984-1.992 1.473-1.549.178.162.198.074.043-.194-.365-.634-.375-.631-1.249.335m-135.53 14.216c0 6.875.053 9.632.118 6.127.065-3.504.064-9.129-.001-12.5-.064-3.37-.118-.502-.117 6.373m51.618-9.67c-.42.42-.643-.169-.349-.919.277-.704.298-.705.435-.025.079.393.04.817-.086.944m168.813-.005c.913.082 2.407.082 3.32 0 .913-.082.166-.15-1.66-.15-1.826 0-2.573.068-1.66.15m5.864-.01c.486.093 1.189.09 1.562-.008.374-.098-.024-.174-.883-.17-.86.005-1.165.085-.679.178m10.73 2.068c0 .751.081 1.059.179.683a3.215 3.215 0 000-1.367c-.098-.376-.179-.068-.179.684m-129.81.413c-1.328 1.348-.675 2.012.683.695.716-.694 1.302-1.277 1.302-1.297 0-.324-1.53.14-1.985.602m-10.241 2.58c.181.472.108.563-.268.331-.344-.213-.424-.169-.238.131.44.712 1.014.526 1.014-.33 0-.43-.171-.782-.379-.782s-.266.293-.129.65m-.922 2.233c-.034.67.033.955.15.633.117-.322.369-.785.561-1.029.216-.275.16-.514-.15-.633-.332-.127-.519.218-.561 1.029m28.556-.091c-.632.68-.945 1.119-.695.977.25-.142.529-.125.62.037.09.163.116.089.056-.164-.059-.253.178-.692.528-.976.557-.453.6-.42.346.264-.275.743-.256.748.399.1.465-.46.559-.809.292-1.076-.268-.268-.769.004-1.546.838m112.425 1.7c.005.86.085 1.165.178.679.093-.485.09-1.189-.008-1.562s-.174.024-.17.883m-135.284-.683c-.017.161-.091.61-.164.998-.106.556-.021.612.397.265.292-.243.435-.692.317-.999-.231-.603-.502-.734-.55-.264m-7.813.953c-.241.975-.233 1.488.023 1.488.489 0 .799-1.119.381-1.377-.206-.127-.387-.177-.404-.111m-37.593 1.351c-.498.498-.271 1.003.344.767.469-.18.554-.053.364.545-.176.556-.069.778.377.778.344 0 .726.264.85.586.288.751.792.759.792.014 0-.719-2.366-3.052-2.727-2.69m41.529 2.481c0 .24-.176.328-.39.195-.215-.132-.391.043-.391.391 0 .348-.156.536-.346.418-.191-.118-.586.092-.879.465-.475.606-.463.625.113.175.446-.349.69-.372.789-.075.079.238.546.002 1.044-.528.574-.612.748-1.052.48-1.218-.231-.143-.42-.063-.42.177m20.535.752c-.647.714-.647.746.005.651.376-.056.727-.394.78-.752.121-.827.045-.817-.785.101m-29.286.359c-.135.219-.056.515.177.659.601.371.988-.137.487-.639-.281-.28-.499-.287-.664-.02m-29.499.366c-.037.602.938 1.038 1.519.679.229-.141.309-.429.179-.639-.15-.245-.422-.229-.749.043-.377.312-.567.292-.716-.079-.163-.406-.208-.407-.233-.004m28.332 1.027c.238.624.145.71-.563.525-.551-.144-.847-.042-.847.291 0 .322.293.436.787.307 1.037-.271 1.364-.852.797-1.415-.35-.346-.391-.277-.174.292m-2.191 1.035c0 .227-.176.305-.391.172-.215-.133-.39-.061-.39.16s-.308.293-.684.161c-.531-.187-.583-.132-.235.246.561.608 2.091.174 2.091-.593 0-.308-.088-.56-.196-.56-.107 0-.195.186-.195.414m-21.504.586c-.381.459-.318.563.339.563.984 0 1.448-.62.683-.913-.305-.117-.765.04-1.022.35m108.644-.109c-.017.383.248.803.588.933.34.131.751.596.913 1.034.29.783.298.783.517-.055.122-.468.105-.778-.039-.69-.358.222-1.443-.618-1.72-1.332-.18-.463-.235-.439-.259.11m-60.993 3.659c-.523.575-.688.889-.366.7.322-.19.822-.381 1.11-.425.791-.119 1.032-.496.597-.93-.258-.259-.709-.039-1.341.655m65.389.76c0 .947 1.755 2.727 2.225 2.257.248-.248-.075-.823-.922-1.644-.969-.939-1.303-1.096-1.303-.613m-66.731 1.721c.132.215.055.391-.173.391-.227 0-.413.197-.413.438 0 .303.181.288.586-.047.68-.565.769-1.172.172-1.172-.228 0-.305.175-.172.39m-23.555.469c-.258.258-.458.741-.444 1.074.015.36.171.24.387-.298.218-.544.544-.792.817-.624.283.175.349.111.176-.17-.345-.558-.361-.557-.936.018m20.067 2.237c-1.767 1.794-2.051 2.932-.437 1.752.455-.333.55-.551.24-.551-.418 0-.42-.112-.011-.605.403-.486.573-.505.866-.098.266.371.306.326.149-.164-.118-.369-.062-.766.125-.881.187-.116.4-.032.473.186.072.219.348.052.611-.37.957-1.532-.199-1.113-2.016.731m74.336-1.046c.614.783.366.862-.855.272-.824-.398-.827-.392-.095.195.864.692 1.252.757 1.559.261.117-.19-.092-.586-.466-.879-.614-.482-.628-.467-.143.151m-179.637 1.856c0 1.476-.144 1.953-.586 1.953-.657 0-.799-.994-.196-1.367.215-.133.391-.759.391-1.39 0-.632.088-1.149.195-1.149.108 0 .196.879.196 1.953m99.598 5.285c-.499.531-.742.965-.542.965.201 0 .601-.378.889-.839.423-.677.59-.733.869-.293.224.354.348.382.351.081.012-.904-.672-.866-1.567.086m-22.091 1.102c-.135.352-.412.537-.614.412-.22-.136-.181-.454.096-.789.572-.688.849-.486.518.377m-1.726 3.337c0 .192.275.454.61.583.342.131.488.434.331.688-.18.291-.11.348.196.159.358-.221.309-.479-.196-1.037-.748-.826-.941-.907-.941-.393m18.351 1.417c-1.075 1.145-1.366 2.193-.517 1.867a.602.602 0 00.359-.77c-.14-.362.018-.512.459-.437.457.077.686-.166.721-.766.063-1.084.099-1.087-1.022.106m-89.913 5.283c.365.347.906.632 1.203.632.408.001.386-.112-.091-.461-.348-.254-.555-.538-.461-.632.094-.094-.164-.171-.572-.171-.698 0-.703.039-.079.632m220.455 2.064c-1.49 1.518-1.553 1.662-.748 1.701.483.024.657-.041.387-.145-.269-.104-.396-.342-.28-.529.116-.187.499-.23.852-.094.471.181.578.082.404-.371-.135-.352.07-.895.478-1.264.559-.506.759-.535.919-.134.137.343.215.359.236.047.069-1.05-.712-.776-2.248.789m-4.135 5.385c-.577.454-.972.903-.877.998.095.095.657-.277 1.25-.826 1.304-1.209 1.078-1.313-.373-.172m-207.784 1.42c-.366.592.444 1.507.917 1.035.304-.304.263-.556-.145-.895-.312-.259-.659-.322-.772-.14m203.951 1.616c-.488.548-.579.761-.203.473.785-.602.924-.073.196.744-.416.465-.387.47.195.03.376-.285.684-.858.684-1.274 0-.416.163-.655.363-.532.2.124.456.076.569-.107.488-.789-1-.24-1.804.666m-200.496 1.216c-.155.252-.107.634.108.849.26.261.485.238.674-.068.156-.252.107-.634-.107-.849-.261-.261-.486-.238-.675.068m1.2.737c-.512.828.364 1.337.985.572.302-.373.345-.555.095-.405-.25.15-.526.06-.612-.199-.119-.357-.233-.349-.468.032m31.911 6.184c.594.09 1.473.087 1.953-.006.481-.092-.005-.166-1.079-.163-1.074.003-1.467.079-.874.169" fill="#939393"/><path d="M119.141 42.111c0 .073.251.383.558.69.831.832 6.082.788 6.082-.051 0-.335.176-.5.391-.367.215.133.391.086.391-.104 0-.189-1.67-.334-3.711-.322-2.041.012-3.711.081-3.711.154m-1.281.842c-.16.609-.022.797.584.797.693 0 .727-.085.269-.684a14.825 14.825 0 01-.584-.796c-.034-.063-.155.245-.269.683m9.888-.163c.312.376.24.55-.286.687-.555.144-.518.192.175.228.519.026.879-.181.879-.508 0-.305.219-.631.488-.725.268-.094.002-.175-.593-.179-.84-.006-.988.105-.663.497m1.803.657c-.139.533-.012.704.456.614.813-.156 1.089-1.353.311-1.353-.315 0-.66.333-.767.739m1.793-.284c.16.176.094.556-.145.844-.334.402-.287.524.198.524.747 0 .85-1.001.146-1.407-.269-.154-.358-.137-.199.039m3.422 1.378c0 .209.275.381.611.381 1.121 0 2.208.794 1.785 1.304-.28.337.053.722 1.194 1.378.87.501 1.451.7 1.292.443-.222-.36-.097-.366.539-.025.456.243.829.535.829.648 0 .112-.22.072-.489-.089-.331-.199-.316-.082.048.367.568.701 1.032.912.653.298a.433.433 0 01.145-.593c.203-.125.48-.05.615.169.135.218.424.397.641.397.489 0-.235-.72-1.904-1.893-1.223-.86-2.342-.843-1.804.027.16.259.08.311-.208.134-.349-.216-.357-.427-.032-.818.342-.412.177-.661-.76-1.146-2.022-1.045-3.155-1.398-3.155-.982m-25.899.808c-.817.431-1.547.995-1.623 1.252-.498 1.693-.598 1.814-1.272 1.548-.658-.258-.659-.282-.015-.412.376-.076.684-.307.684-.514 0-.221-.338-.195-.818.062-.539.288-.752.694-.623 1.186.107.411.009.862-.219 1.003-.234.145-.3.072-.152-.168a.498.498 0 00-.16-.684c-.556-.344-1.987.967-1.667 1.528.136.24.104.306-.071.146-.438-.396-1.421.474-1.109.98.139.224.068.294-.157.155-.224-.139-1.051.493-1.837 1.404-2.142 2.483-2.172 2.53-2.172 3.438 0 .228-.158.316-.352.196-.194-.12-.537.309-.761.953-.225.645-.323 1.172-.218 1.172.104 0-.131.345-.524.766-.892.957-2.204 4.529-1.866 5.077.138.224.066.407-.162.407-.227 0-.414.274-.414.609 0 .347.187.493.435.34.239-.147.587-.026.775.27.269.425.342.393.347-.15.003-.379-.209-1.034-.473-1.455-.506-.811.143-2.034.754-1.422.159.158.055.432-.23.608-.331.205-.374.411-.118.569.224.138.61-.398.876-1.221.261-.808.897-2.31 1.413-3.339.515-1.028.83-2.043.699-2.255-.132-.213-.006-.338.278-.279.287.06.494-.196.464-.572-.029-.373.067-.605.215-.513.148.091.492-.193.766-.631.378-.605.382-.726.018-.501-.31.192-.38.135-.197-.161.155-.251.434-.363.619-.249.403.249 1.611-1.364 1.345-1.794-.102-.165.02-.427.271-.583.302-.186.353-.112.149.217-.17.275.99-.556 2.576-1.847 1.587-1.29 3.764-2.85 4.839-3.466 3.032-1.74 2.743-3.283-.313-1.67m-.013.94c0 .322-.085.501-.189.397-.104-.104-.439.115-.745.488-.609.743-.255-.147.392-.983.483-.624.542-.614.542.098m34.85 3.59c.246.479.286.949.091 1.07-.464.287-1.289-.739-.921-1.145.16-.176.039-.174-.268.004-.617.359 1.643 2.569 2.473 2.418.236-.043.431.225.433.594.003.37.637 1.38 1.409 2.246.773.866 1.337 1.575 1.255 1.575-.082 0 .124.527.457 1.172.333.644.787 1.171 1.009 1.171.222 0 .295.176.163.391-.133.215-.074.391.13.391.481 0 .873-1.015.526-1.362-.252-.252-.295-.4-.412-1.399-.028-.237-.391-.308-.84-.166-.827.263-.96-.503-.186-1.071.242-.178.205-.29-.097-.293-.269-.004-.488-.189-.488-.413 0-.825-1.51-2.041-2.225-1.791-.658.23-.66.212-.037-.274.609-.476.511-.672-1.121-2.247-1.047-1.01-1.607-1.372-1.351-.871m7.314 12.163c-.418.677.224 2.058.753 1.619.307-.255.592-.274.731-.049.125.203-.035.469-.356.593-.852.327-.715.991.158.762.431-.112.689-.465.616-.842a11.31 11.31 0 01-.156-1.1c-.017-.256-.369-.363-.811-.248-.43.113-.781.021-.781-.203s.307-.488.683-.586c.617-.161.619-.183.024-.224-.364-.025-.751.1-.861.278m-57.596 5.239c-.249.249-.451.638-.447.864.003.225.179.146.39-.176.342-.521.428-.521.77 0 .332.505.385.495.39-.075.008-.874-.539-1.177-1.103-.613m59.919.016c.178.464.064.672-.37.672-.457 0-.615.345-.582 1.269.025.699.126.962.224.586s.394-.683.656-.683c.527 0 .626-1.704.128-2.202-.172-.173-.197-.011-.056.358m-60.453 5.066c-.143 2.319.149 3.418.91 3.418.188 0 .343-1.318.343-2.929 0-3.885-1.02-4.282-1.253-.489m60.794-.058c-.016 1.267.115 2.304.293 2.304.402 0 .43-4.184.029-4.43-.161-.098-.306.858-.322 2.126m-1.311 3.337c-.017.788.199 1.314.603 1.469.528.203.547.342.116.861-.465.56-.541.55-.798-.102-.223-.567-.29-.481-.311.4-.022.896.078 1.035.496.687.289-.239.668-.304.844-.145.176.159.201.082.056-.172-.146-.253-.098-.564.105-.689.455-.282.317-1.948-.169-2.043-.194-.038-.479-.39-.634-.781-.209-.531-.287-.399-.308.515m-58.405 1.593c-.197.513-.331.554-.568.172-.196-.318-.321-.064-.343.695-.019.657.14 1.195.354 1.195.213 0 .28-.174.148-.386-.136-.222.02-.287.368-.154.468.18.606-.044.606-.981 0-1.362-.183-1.537-.565-.541m57.627 2.895c-.017.351.283.72.667.821.478.125.698-.038.698-.519 0-.497-.135-.589-.465-.316-.314.261-.529.223-.666-.119-.137-.34-.213-.296-.234.133m-57.984 1.315c.123.323.36.586.525.586.165 0 .302.396.304.879.007 1.161 2.082 5.707 2.318 5.078.276-.734.819-.589 1.323.352.383.716.356.805-.182.599-.397-.153-.631-.039-.631.308 0 .716.655 1.116.976.597.363-.587.982-.077.723.596-.12.314-.407.455-.638.312-.23-.142.086.374.702 1.146 1.024 1.283 1.168 1.348 1.661.75.489-.594.522-.571.348.239-.256 1.194 1.18 2.801 2.6 2.908.604.045 1.265.283 1.468.528.263.317.086.414-.612.338-.564-.062-.882.055-.746.274.13.211.325.294.434.185.109-.109.57.149 1.026.573.782.728.842.733 1.102.074.259-.654.277-.653.303.029.02.516.224.657.711.487.555-.193.536-.12-.097.389-.77.618-.769.624.097.366.655-.196.879-.103.879.363 0 .528.138.553.879.158.795-.423.828-.406.347.177-.537.65 2.084 2.217 3.709 2.217.315 0 1.135.272 1.823.605 1.146.555 1.185.553.471-.015-.67-.533-.697-.673-.196-.99.321-.203.4-.372.174-.375-.225-.003-.647.214-.936.482-.43.399-.482.363-.286-.195.136-.386.051-.684-.194-.684-.24 0-1.726-.62-3.303-1.379-1.577-.758-2.986-1.418-3.131-1.465-.913-.297-7.104-6.708-8.44-8.74-1.187-1.805-1.737-2.347-2.089-2.055-.328.272-.568.249-.768-.074-.177-.287-.125-.368.134-.208.882.545.8-.496-.249-3.195-.834-2.142-1.193-2.683-1.547-2.329-.354.354-.46.352-.46-.008 0-.258-.171-.469-.379-.469s-.277.264-.153.586m57.421.695c-.115.439-.041 1.111.163 1.493.371.693-.193 1.481-.698.976-.129-.129-.019-.234.244-.234.264 0 .355-.201.203-.446-.464-.752-1.425 1.497-.988 2.313.235.44.231.973-.013 1.463-.367.741-.359.743.204.048.431-.532.489-.98.22-1.687-.319-.84-.273-.933.367-.73.499.158.798.01.933-.462.11-.382.32-.987.468-1.344.183-.444.043-.707-.444-.833-.571-.148-.538-.193.166-.23 1.073-.055 1.159-.662.132-.931-.521-.136-.811.047-.957.604m-3.491 7.02c-.769 1.128-2.2 2.913-3.18 3.966-.979 1.053-1.794 2.02-1.811 2.148-.016.129-.089.541-.161.917-.188.985.526.842 1.001-.199.221-.486.921-1.181 1.554-1.545.676-.387 1.152-.986 1.152-1.448 0-.506.191-.714.535-.581.295.113.65-.094.79-.459.208-.54.152-.577-.305-.198-.316.262-.656.31-.78.109-.311-.504.144-.854 1.108-.854 1.019 0 2.274-1.931 1.777-2.734-.186-.302-.253-.69-.147-.861.106-.171.119-.312.03-.312-.09 0-.793.923-1.563 2.051m-6.482 7.08c-.245.295-.327.846-.181 1.225.189.492.107.631-.286.489-.303-.11-.504-.405-.448-.656.149-.655-1.449.239-1.728.967-.118.307-.352.474-.52.37-.168-.104-.282.062-.252.37.029.307-.122.551-.337.542-.215-.008-.344-.181-.288-.384.058-.204-.247-.181-.683.053-.92.492-1.056.863-.197.533.411-.158.522-.047.364.364-.236.615-.805.666-1.635.148-.868-.543-1.691.225-.962.898.549.508.591.497.362-.098-.141-.369-.1-.67.093-.67.192 0 .406.256.476.57.174.787 3.446-.664 3.446-1.528 0-.333.186-.605.414-.605.227 0 .302-.22.166-.488-.136-.269.03-.147.368.27.338.417.615.59.615.385 0-.205.395-.546.879-.758.586-.257.892-.744.918-1.46.045-1.235.017-1.262-.584-.537m-30.746 3.826c-.19.308-.07.376.367.208.358-.137.65-.079.65.129 0 .468-1.049.502-1.333.042-.115-.185-.096-.448.042-.586.41-.41.577-.283.274.207m21.256.98c-.61.161-.612.229-.023.917.427.498.785.62 1.086.37.247-.205.594-.243.769-.084.176.16.198.078.05-.181-.149-.259-.529-.372-.844-.251-.316.121-.574.04-.574-.18s.22-.489.489-.597c.592-.239-.039-.235-.953.006m-1.521.766c.209.106.282.444.164.752-.119.309-.036.561.182.561.552 0 .312-1.304-.26-1.414-.255-.05-.294-.004-.086.101m-12.581.922c-.221.847.313 1.093.636.293.157-.39.203-.39.228 0 .016.269.217.489.444.489.228 0 .293-.196.145-.435-.147-.239-.026-.587.27-.775.386-.245.248-.343-.49-.347-.703-.004-1.093.241-1.233.775m2.848.163c0 .304-.176.612-.391.684-.215.071 1.279.13 3.32.13s3.711-.151 3.711-.335c0-.184-.255-.237-.566-.117-.378.145-.494.029-.349-.349.178-.464-.32-.566-2.754-.566-2.303 0-2.971.124-2.971.553m-5.567 4.927c.483.195.879.623.879.952 0 .534 4.474.599 41.406.599h41.407v32.813l-39.356.086c-21.645.047-36.755.14-33.577.206 4.414.091 5.715.232 5.509.597-.203.359-.139.357.257-.011.86-.798 23.733-.692 24.887.117.779.545.84.545.631 0-.18-.469.051-.605 1.03-.605 1.02 0 1.177.102.819.533-.358.431-.25.495.574.338.742-.142.874-.284.492-.527-.346-.219-.059-.332.843-.332 1.025 0 1.221.095.781.379-.428.277-.133.38 1.097.384 1.024.004 1.589-.147 1.442-.384-.133-.215-.055-.391.172-.391a.41.41 0 01.414.404c0 .275.252.27.781-.013.53-.284.782-.288.782-.014a.41.41 0 00.413.404c.228 0 .305-.175.173-.39-.133-.215.12-.391.562-.391.443 0 .805.176.805.391 0 .215.395.378.879.363.838-.026.843-.043.097-.363-.523-.225.298-.345 2.487-.363 3.083-.026 3.257.017 3.064.753-.112.43-.045.782.15.782.328 0 .51-.576.4-1.27-.077-.491.657-.326.867.195.158.391.203.391.228 0 .039-.616 10.187-.713 10.187-.097 0 .215.352.39.781.39.43 0 .782-.175.782-.39 0-.215.835-.373 1.855-.352 1.512.032 1.675.097.879.352-.847.271-.77.317.586.345.955.021 1.366-.091 1.056-.288-.288-.183 1.096-.354 3.223-.398 2.362-.05 3.729.07 3.729.327 0 .222.188.404.419.404.231 0 .352-.307.27-.683-.082-.376-.367-.637-.632-.58-.377.08-.47-3.656-.429-17.188l.053-17.291-42.516-.074c-25.737-.044-42.17.066-41.638.281m-6.714.997c-.609.609-.51 1.335.182 1.335.195 0 .254-.263.13-.586-.142-.371.006-.586.403-.586.346 0 .628-.175.628-.39 0-.582-.643-.473-1.343.227m-6.006 1.747c-.552.221-.793.542-.62.823.199.323.061.376-.463.178-.681-.258-.693-.228-.133.338.379.384.885.517 1.324.349.685-.263.685-.291-.005-.795-.619-.452-.629-.523-.078-.523.35 0 .746-.176.879-.391.28-.454.281-.454-.904.021m-10.011 6.206c-.633.66-1.006 1.395-.878 1.729.123.319-.003.768-.278.996-.7.581-1.112.037-.524-.69.937-1.158-.617.03-1.658 1.268-1.238 1.471-1.447 3.804-.233 2.59.658-.658.682-.836.196-1.454-.486-.618-.482-.65.032-.259.477.362 1.13-.071 3.516-2.334 1.611-1.529 2.564-2.476 2.117-2.106-1.15.954-1.873.896-1.336-.108.573-1.072.337-.981-.954.368m-6.004 6.257c-.47.636-.855 1.339-.855 1.563 0 .223-.209.406-.465.406s-.124.266.293.592c.417.325.582.568.368.539-1.446-.192-2.128.475-2.308 2.259a1.423 1.423 0 01-.397.782c-.202.185-.229.073-.063-.266.157-.322.006-.239-.337.184-.343.424-.542.984-.442 1.245.1.26-.027.551-.284.646-.356.131-.351.294.022.689.686.727.611 1.34-.093.756-.653-.542-.51-.778-1.758 2.889-.941 2.763-.955 2.966-.2 2.966.322 0 .586.166.586.368 0 .203-.334.304-.742.226-.518-.1-.71.054-.637.51.058.36 0 .83-.129 1.045-.129.215-.263.897-.297 1.515-.041.749.048.948.266.596.248-.402.412-.3.678.42.348.939 1.306-3.344 1.41-6.307.021-.573.114-.965.208-.871.481.481 1.546-3.526 1.088-4.091-.393-.484-.367-.547.15-.354.449.168.82-.171 1.309-1.196.374-.787 1.193-2.191 1.819-3.119.626-.929 1.021-1.879.877-2.111-.15-.243-.08-.311.163-.161.562.347 1.057-.472 1.088-1.802.033-1.372-.256-1.354-1.318.082m35.373 20.361c-.378.22-.889.276-1.135.123-.276-.17-.341-.104-.169.175.367.594.709.569 1.623-.123.873-.661.689-.762-.319-.175m12.6-.27c0 .38 1.101.522 1.598.207.401-.253.258-.35-.523-.354-.591-.004-1.075.063-1.075.147m20.065.435c1.523.795 2.471.794 1.81-.002-.267-.323-1.036-.585-1.708-.584l-1.221.003 1.119.583m-36.46.568c-.316.2-.479.459-.362.576.117.117.552-.043.966-.357.823-.623.323-.804-.604-.219m-2.318 1.729c-.277.334-.316.653-.097.789.203.125.48-.06.615-.412.331-.863.054-1.065-.518-.377m-37.159.74c-.066 2.466-.161 144.726-.097 144.662.047-.047.127-.629.178-1.292.061-.804.261-1.141.598-1.012.413.158.506-12.884.506-71.095 0-63.008-.068-71.315-.586-71.514-.322-.124-.592-.011-.599.251m35.451.129c-.475.475-.314.933.327.933.335 0 .493.188.351.418-.141.229-.503.322-.804.207-.3-.115-.546-.039-.546.169 0 .208.258.378.573.378.35 0 .486.229.349.586-.124.322-.135.586-.026.586.11 0 .378-.513.597-1.14.405-1.164-.204-2.753-.821-2.137m-.872 71.05c0 37.813.046 53.224.102 34.247.056-18.977.056-49.915 0-68.75-.056-18.836-.102-3.309-.102 34.503m65.738 4.074c-.615.602-.676 2.107-.709 17.433-.025 11.366-.162 16.552-.426 16.083-.584-1.038-1.129-.425-1.069 1.203.034.908.116 1.117.223.563.172-.898 1.109-1.215 1.361-.461.174.522 6.594 1.026 12.035.944 4.626-.07 5.096.036 3.901.873-.516.362-.772.865-.658 1.299.19.729-1.343 2.533-1.78 2.095-.333-.332.114-1.369.49-1.137.306.189.927-.961.662-1.226-.449-.449-1.911 1.834-1.496 2.335.348.419.324.652-.103 1.007-.399.33-.631.34-.821.033-.19-.308-.419-.301-.812.025-.3.25-.448.614-.326.81.121.196.075.313-.102.26-.444-.131-4.036 3.22-4.021 3.75.007.235.227.164.488-.158.262-.322.801-.613 1.197-.646.604-.051.545.123-.359 1.067-.826.862-1.202 1.026-1.6.696-.477-.396-.683-.198-.566.543.026.161-.089.249-.254.196-.611-.199-2.008 1.475-1.677 2.01.178.29.489.461.69.381.993-.395 10.98-11.619 10.922-12.275-.04-.455.231-.782.717-.866 1.741-.302 1.918-.471 1.134-1.079-.543-.421-.573-.517-.11-.357a.665.665 0 00.872-.404c.214-.557-.569-.62-7.469-.598-4.24.013-8.106-.089-8.591-.228l-.884-.252.102-16.457.102-16.457 30.86-.196c20.282-.128 30.825-.329 30.76-.586-.154-.604-33.414-.956-56.542-.598-1.289.02-3.047-.036-3.906-.124-1.105-.113-1.759.033-2.235.499m63.252-.322c.309.309.636.312 1.152.012.633-.368.58-.421-.431-.431-.84-.009-1.035.104-.721.419m-28.042.101c-.393.342-3.483.53-3.483.212 0-.195.821-.354 1.823-.354 1.003 0 1.75.064 1.66.142m31.133.323c.104.168.611.27 1.127.227.516-.043.845-.172.73-.287-.333-.333-2.065-.277-1.857.06m2.494.479c0 .305-.22.642-.489.751-.268.108-.063.211.456.228.519.017.828-.085.687-.227-.141-.141-.061-.492.178-.781.334-.402.287-.524-.199-.524-.348 0-.633.249-.633.553m-68.422 5.502c-.069 2.041-.259 3.711-.422 3.711-.365 0-.399-6.799-.037-7.162.533-.533.581-.176.459 3.451m76.095-3.121c.167.435.035.531-.501.366-.4-.124-.232.062.373.412 1.403.812 2.748.095 1.541-.821-.931-.707-1.692-.684-1.413.043m2.19.867c-.269.094-.488.367-.488.607 0 .32.116.319.438-.002.241-.241.68-.346.976-.232.296.113.539.119.539.011 0-.32-.94-.567-1.465-.384m2.275 1.438c-.353.424-.341.62.05.85.279.165.94.576 1.468.914.529.338.849.431.711.207-.141-.229.119-.435.596-.471.662-.05.721.014.269.293-.492.304-.497.432-.035.862.32.298.438.318.287.05a.454.454 0 01.236-.655c.331-.135.173-.46-.486-1.001-1.171-.962-2.135-1.075-1.804-.213.138.361.07.506-.169.358-.222-.137-.296-.586-.165-.997.278-.875-.298-.993-.958-.197m4.684 3.129c-.346.417-.342.616.016.837.298.184.368.126.191-.16-.176-.285.017-.451.526-.451.851 0 1.028.382.461.996-.387.419 5.258 5.791 5.76 5.481.172-.106.312.06.312.37 0 .454-.114.47-.597.08-.328-.265.009.333.749 1.33.74.996 1.458 1.745 1.594 1.664.137-.081.225.159.196.532-.03.376.177.632.464.572.284-.059.413.061.285.267-.333.539 1.347 3.597 1.817 3.306.244-.15.192-.371-.137-.579-.399-.252-.337-.338.252-.347.578-.009.645-.098.259-.343-.287-.182-.531-.487-.542-.678-.057-.938-.812-2.468-1.123-2.276-.194.12-.352-.155-.352-.61 0-.455-.176-.718-.391-.586-.215.133-.39-.11-.39-.539 0-.43-.188-.898-.417-1.039-.231-.143-.363-.022-.296.27.067.29-.053.589-.267.665-.213.075-.341-.364-.284-.977.118-1.269-2.713-4.487-3.223-3.662-.409.662-1.383-.291-1.087-1.064.184-.479.075-.562-.469-.353-.556.213-.617.161-.281-.244.325-.391.174-.751-.628-1.498-1.537-1.43-1.893-1.573-2.398-.964m-85.343 3.642c-.426.426-.719-.252-.412-.958.29-.669.311-.669.473.014.093.393.066.817-.061.944m-29.136.926c0 .24.339.348.752.24.528-.138.69-.035.545.345-.161.418.248.542 1.799.542 1.457 0 2.071-.167 2.24-.609.129-.334.484-.512.79-.395.308.118.449.041.317-.173-.131-.212-.59-.386-1.02-.386-.43 0-.68.164-.555.366.14.226-.258.226-1.049 0-1.739-.499-3.819-.461-3.819.07m29.105 2.871c.057 1.623-.052 3.048-.242 3.166-.192.118-.347-1.31-.347-3.195 0-4.124.443-4.103.589.029m-30.951-2.11c.259.416.825.742 1.257.725.431-.017.565-.119.296-.228-.268-.108-.488-.408-.488-.667 0-.259-.346-.496-.769-.528-.665-.05-.705.044-.296.698m8.743.056c-.22.841.367.914 1.139.142.751-.751.703-.967-.199-.899-.416.032-.839.372-.94.757m-10.508.375c.103.393.474.713.825.71.514-.005.534-.072.1-.347-.296-.188-.436-.507-.311-.71.126-.203-.003-.37-.287-.37-.307 0-.439.29-.327.717m12.7-.025c-.059.788.516 1.03.753.317.265-.795 2.874.185 2.721 1.022-.118.65-.059.667.562.162.618-.503.666-.492.445.099-.178.474-.087.602.317.446.944-.362.648-.806-1.094-1.642-2.463-1.182-3.636-1.31-3.704-.404m-15.507.306c-.258.419.867 1.429 1.21 1.086.133-.133-.062-.359-.433-.501-.534-.205-.566-.327-.153-.589.355-.226.373-.332.056-.337-.256-.003-.562.15-.68.341m-4.408 2.299c-1.682 1.311-1.012 2.523.75 1.357 1.679-1.111 1.7-1.138.897-1.138-.323 0-.586.157-.586.349 0 .191-.185.234-.41.095-.28-.173-.265-.427.048-.804.609-.734.358-.683-.699.141m26.842-.577c0 .074.439.516.977.983.537.467.976.695.976.506 0-.188-.439-.631-.976-.983-.538-.351-.977-.579-.977-.506m-30.8 4.052c-1.967 2.024-2.442 2.745-2.3 3.492.156.814.095.876-.45.462-.346-.263-.501-.326-.343-.139.158.186-.018.569-.39.851-.613.463-.589.496.254.344.512-.093.805-.042.651.112-.267.267-.423.314-1.429.427-.238.027-.328.322-.2.655.128.334.077.511-.113.393-.19-.117-.449.059-.577.391-.127.332-.076.508.114.391.19-.118.449.058.577.39.132.346.066.502-.155.366-.212-.132-.386-.063-.386.152 0 .214.159.488.353.608.442.273 1.29-2.069.949-2.621-.142-.23-.062-.289.184-.137.252.155.691-.229 1.047-.917.337-.651.533-1.184.436-1.184-.097 0 .857-.986 2.119-2.19 1.865-1.778 2.281-2.402 2.217-3.32l-.078-1.103c0 .015-1.116 1.174-2.48 2.577m33.144-2.042c0 .658-.397.782-1.012.316-.213-.161.499.546 1.582 1.57 2.593 2.454 3.336 2.886 3.336 1.938 0-.802-2.303-3.215-3.069-3.215-.271 0-.392-.164-.268-.364.124-.2.046-.474-.172-.609-.219-.135-.397.029-.397.364m1.785 1.737c-.266.43.729 1.305 1.083.952.141-.141.257.067.257.462 0 .648-.096.629-.965-.187-.827-.777-1.008-1.574-.356-1.574.107 0 .099.156-.019.347m2.512 2.778c0 .502-.169.723-.43.562-.298-.184-.292-.008.02.574.247.462.586.754.755.65.168-.104.319.023.335.282.016.259.658 1.878 1.427 3.596.769 1.719 1.401 3.367 1.403 3.661.004.416.128.434.553.082.421-.349.595-.338.751.05.128.32.213.255.233-.179.02-.443-.257-.684-.783-.684-.486 0-.742-.197-.635-.488.099-.269.359-.451.578-.404.268.056.263-.357-.014-1.259-.377-1.23-.458-1.287-.964-.67-.304.37-.442.453-.306.184.136-.268.018-.493-.264-.5-.315-.007-.249-.164.173-.41.631-.368.637-.488.073-1.578-.437-.845-.743-1.07-1.078-.792-.346.287-.466.066-.464-.852.003-.763-.178-1.203-.47-1.146-.261.051-.381-.151-.267-.449.115-.298.02-.657-.209-.799-.246-.152-.417.082-.417.569m6.601 2.465c-.029 1.802-.118 2.169-.351 1.442-.465-1.451-.465-4.389 0-4.102.214.133.373 1.33.351 2.66m97.402-1.693c-.512.819.502 4.074 1.145 3.677.2-.124.233.26.076.89-.238.955-.195 1.04.313.622.324-.267.705-.37.846-.228.471.47.266-.713-.374-2.158l-1.093-2.476c-.431-.981-.492-1.002-.913-.327m-147.188 5.976c-.134.35-.113.848.046 1.106.184.298.125.368-.16.191-.27-.166-.451-.025-.451.354 0 .364.184.518.434.363.239-.147.567-.053.73.21.193.313.388.107.565-.597.326-1.301-.725-2.77-1.164-1.627m49.825 3.627c0 1.088-.152 1.687-.39 1.539-.672-.415-.445-3.32.26-3.32.072 0 .13.801.13 1.781m99.382-1.252c-.13.339-.146.843-.035 1.118.119.298.213.204.232-.23.025-.605.132-.647.617-.245.326.271.586.313.586.096 0-.804-1.143-1.407-1.4-.739m-150.157.907c.005.593.067.616.371.136.298-.472.438-.401.771.391l.407.967-.094-.973c-.111-1.154-1.464-1.638-1.455-.521m150.873.776c-.633.255-.671 6.874-.046 8.04.599 1.121 1.537-.056 1.458-1.831-.043-.956-.088-1.015-.226-.293-.322 1.686-1.087.63-1.207-1.666-.097-1.852-.015-2.225.449-2.047.429.165.568-.11.568-1.122 0-1.345-.093-1.446-.996-1.081m-151.122 1.156c.031.801.215 1.155.536 1.032.355-.136.488.42.488 2.045 0 1.714-.122 2.185-.527 2.03-.364-.14-.538.146-.56.921-.029 1.016.041 1.079.723.653.988-.617 1.174-7.168.193-6.792-.326.125-.632-.061-.731-.447-.094-.364-.149-.113-.122.558m88.69.506c.552.609.595.918.234 1.66-.422.869-.415.876.165.153.334-.417.607-.884.607-1.037 0-.154 4.175-.235 9.277-.18 10.88.116 13.77-.054 13.77-.813 0-.438-2.195-.532-12.365-.532-12.162 0-12.354.012-11.688.749m-38.831.618a2.108 2.108 0 00-.053.684c.026.161-.217.293-.54.293-.39 0-.585.39-.585 1.172 0 .781.195 1.172.585 1.172.631 0 .724.357.349 1.335-.313.817-.83.785-1.071-.066-.106-.376-.163.018-.126.876.131 3.037 1.321 2.262 1.632-1.064.233-2.477.099-5.541-.191-4.402m63.861.194c1.017.439 1.367.462 1.367.087 0-.168-.484-.333-1.074-.365-.927-.052-.968-.014-.293.278m-37.837 12.697c-11.75 12.467-12.442 13.252-12.055 13.68.155.172.082.198-.162.059-.257-.147-2.235 1.669-4.687 4.302a1316.924 1316.924 0 01-6.496 6.93c-1.953 2.057-2.17 2.433-1.633 2.826.549.402.528.482-.189.71-.445.141-.809.415-.809.608 0 .194-.219.275-.488.18-.621-.218-.875.002-5.504 4.783-2.422 2.502-3.736 4.143-3.552 4.44.159.258.126.368-.074.245-.718-.444-2.098 1.025-1.849 1.968.232.878.248.874 1.526-.376.71-.694 1.203-1.406 1.095-1.58-.108-.175-.029-.27.176-.211.451.13 2.811-2.255 2.811-2.841 0-.23.15-.325.334-.211.531.328 2.042-1.523 2.162-2.651.06-.564.241-1.158.402-1.319.161-.161.257-.116.213.098-.204 1.014.015 1.581.385.996.197-.312.269-.712.16-.889-.109-.177-.054-.275.124-.218.748.239 4.914-4.347 4.698-5.173-.166-.632-.101-.721.29-.397.369.306.647.24 1.043-.248.303-.373.338-.544.079-.389-.253.152-.549.134-.656-.039-.108-.174.171-.344.62-.378 1.289-.097 3.899-2.857 3.7-3.913-.133-.708-.061-.795.367-.44.412.342.532.299.532-.192 0-.348.213-.59.474-.536.261.054.654-.298.874-.781.22-.484.544-.879.721-.879.177 0 .194-.206.039-.457-.187-.302-.075-.377.33-.222.342.131.864-.056 1.177-.422.849-.99 1.177-1.666.75-1.546a.32.32 0 01-.42-.283c-.021-.215.269-.393.645-.396.938-.009 1.722-.556 1.442-1.008-.127-.205-.086-.33.091-.278.178.052 1.444-1.043 2.815-2.432 3.303-3.348 3.775-3.907 3.66-4.323-.054-.194.04-.308.209-.254 1.082.345 4.733-4.418 4.417-5.762-.051-.215.118-.184.376.069.546.537 5.711-4.208 5.302-4.871-.131-.211.025-.6.345-.866.32-.265.581-.351.581-.191 0 .16.268.068.596-.203.327-.272.509-.581.403-.686-.105-.105.257-.544.804-.974.623-.49.926-1.047.81-1.489-.108-.414.161-.996.652-1.411.822-.693.825-.692.204.075-1.202 1.485-.351 1.919 1.067.544 1.581-1.533 1.619-1.716.352-1.716-.766 0-3.148 2.31-11.279 10.938m40.427-8.217c.036 1.942.122 2.371.293 1.463.133-.707.417-1.234.632-1.172.215.062.443-.596.507-1.463.1-1.366.009-1.577-.684-1.577-.735 0-.795.223-.748 2.749m36.416 1.66c.034.423-.174.657-.53.594-.415-.073-.369.066.155.476 1.226.957 2.063-.319.863-1.315-.433-.359-.533-.309-.488.245m-151.43.265c-.159.407-.198.832-.086.944.357.356.67-.227.521-.969-.137-.68-.158-.679-.435.025m116.591.335c-.036.591-.292 1.074-.569 1.074-.294 0-.527.525-.562 1.27-.033.698.033 1.048.146.778.112-.27.367-.39.565-.268.537.332.817-.724.641-2.423-.108-1.045-.176-1.177-.221-.431m-35.047.326c-.126.204-.367.285-.536.18-.169-.104-.697.226-1.173.733-.477.508-.722 1.001-.545 1.096.176.095.123.128-.12.073-.242-.056-.681.105-.976.356-.295.251.24-.37 1.189-1.381 1.458-1.553 2.905-2.261 2.161-1.057m-82.571.092c-.028.775.84 1.828 1.509 1.828.23 0 .418.17.418.378s-.264.277-.586.154c-.371-.143-.586.005-.586.403 0 .345.186.627.414.627.227 0 .305.176.172.391-.133.215-.045.391.196.391.24 0 .328.175.195.39-.133.215-.045.391.195.391s.33.172.2.382c-.265.431.451 1.977.886 1.911.779-.117 1.277.094 1.059.448-.135.218-.41.295-.61.171-.2-.123.005.401.456 1.165.451.765.979 1.292 1.172 1.173.194-.12.353.077.353.439 0 .503.122.555.521.224.394-.327.52-.291.52.148 0 .319-.156.58-.348.58-.192 0-.224.202-.071.449.193.312.44.229.805-.27.289-.396.539-.642.556-.547.016.095.089.48.161.856.071.376-.04.683-.249.683-.208 0-.267.181-.131.401.136.221.538.353.893.293.355-.059.657.156.672.478.015.323.238.542.497.489.259-.054.471.099.471.34 0 .316.155.31.551-.019.379-.315.63-.329.806-.045.14.227-.03.522-.378.656-.859.329 1.262 1.652 2.243 1.399 1.075-.277.851-.594-1.804-2.543-1.368-1.004-3.16-2.571-3.983-3.481-.822-.91-1.747-1.692-2.055-1.737-.308-.046-.757-.292-.998-.548-.338-.36-.237-.363.442-.014.864.445 1.297-.052.484-.554-.469-.29-2.57-4.692-2.936-6.152-.148-.586-.462-.941-.74-.835-.266.102-.677-.217-.914-.709-.357-.741-.436-.773-.458-.184m154.133.079c.122.317.334.599.473.627.138.027.69.133 1.227.234.537.101 7.393.251 15.235.333l14.258.149.102 15.839.102 15.839-.884.355c-.485.195-.663.388-.395.428.269.041.664.118.879.171.215.054.561.12.769.147.208.027.284.295.169.595-.115.301-.033.656.184.79.816.504.944-34.761.129-35.577-.808-.808-32.558-.739-32.248.07m-106.423.505c.157.818 1.483 1.122 1.483.342 0-.313-.362-.664-.804-.78-.6-.157-.772-.045-.679.438m125.799-.423c-.913.082-2.407.082-3.32 0-.913-.082-.166-.15 1.66-.15 1.826 0 2.573.068 1.66.15m4.106-.018c-.373.098-1.076.101-1.562.008s-.181-.173.679-.178c.859-.004 1.257.072.883.17m-130.245 2.141c.114.436.104.689-.023.562-.518-.517-2.802 5.003-2.324 5.617.388.501.365.518-.153.115-.517-.403-.847-.169-2.123 1.504-.831 1.09-2.177 2.516-2.99 3.17-.813.653-1.378 1.35-1.256 1.549.123.198-.014.321-.304.274-.29-.048-1.846.561-3.457 1.354-1.612.793-2.6 1.344-2.197 1.226.403-.119.974-.015 1.269.229.576.478 2.654-.139 3.145-.933.142-.23.055-.281-.204-.121-.262.162-.451.039-.451-.294 0-.395.263-.504.847-.351.703.184.803.095.585-.525-.253-.722-.243-.721.325.012.323.417.587.549.587.293 0-.256.192-.465.427-.465.709 0 3.857-3.218 3.596-3.676-.133-.234-.095-.292.084-.129.399.362 2.143-1.207 2.143-1.927 0-.285.176-.518.391-.518.214 0 .39-.45.39-1s.164-.898.364-.775c.2.124.491.019.646-.232.167-.27.114-.354-.127-.204-.226.139-.504.01-.617-.286-.149-.389.031-.484.642-.34.844.199.845.196.069-.464-.43-.365-.532-.534-.227-.375.406.211.488.114.305-.362-.137-.357-.079-.65.129-.65.208 0 .386.308.394.684.009.384.264.11.584-.626.313-.721.471-1.468.352-1.661-.119-.192-.03-.35.197-.35.743 0 .435-.684-.406-.904-.673-.177-.783-.073-.612.579m70.454.853c-.147.381-.443.584-.66.45-.442-.273-.497.351-.147 1.659.144.538.537.879 1.013.879.531 0 .706.186.553.586-.124.322-.047.586.171.586.379 0 .216-1.549-.408-3.892-.22-.825-.294-.863-.522-.268m-42.934 4.062c-.327.376-.544.908-.48 1.182.063.274.025.316-.085.095-.109-.222-.404-.286-.654-.142-.25.143-.029-.207.492-.779 1.039-1.14 1.687-1.457.727-.356m-22.702-.033c-.144.144-.261.593-.261 1 0 .407-.142.651-.317.543-.366-.226-5.152 4.507-5.152 5.096 0 .216-.706.96-1.57 1.654-.864.694-1.476 1.414-1.361 1.6.114.186-.115.44-.51.566-.839.266-3.038 2.463-2.752 2.749.108.108.578-.161 1.046-.597.774-.721 1.024-.688.897.117-.087.551.196.292 2.118-1.934 1.058-1.226 1.719-2.102 1.469-1.947-.25.154-.559.111-.687-.096-.13-.21.119-.309.563-.223.883.17 4.541-3.411 4.445-4.351-.03-.287.074-.443.231-.346.156.096.884-.459 1.616-1.235.732-.776 1.112-1.286.843-1.134-.319.181-.488.01-.488-.495 0-.424.219-.86.488-.968.273-.11.301-.211.065-.228-.233-.017-.54.086-.683.229m65.968 1.791c.146.483.426 1.05.623 1.26.196.21.159-.185-.083-.879-.494-1.419-.951-1.741-.54-.381m-66.669.932c-.465.494-1.026.788-1.246.652-.22-.137-.008-.393.473-.571.48-.178.781-.471.669-.652-.111-.181.056-.329.373-.329.429 0 .361.229-.269.9m-7.236.35c-.482 1.255-.917.54-.557-.915.017-.066.198-.016.404.111.205.127.274.488.153.804m75.352.171c-.349.559-.357.828-.029 1.03.261.162.335.101.181-.15-.145-.233-.102-.523.094-.644.457-.282.911.875.577 1.471-.191.34-.133.342.229.008.383-.353.373-.655-.048-1.459-.51-.973-.55-.983-1.004-.256m-49.475 2.416c.167.269.108.345-.145.189-.416-.258-1.046.386-1.058 1.08-.003.195-.334.402-.736.461-.602.088-.537-.094.366-1.037 1.257-1.312 1.205-1.289 1.573-.693m50.777-.113a.548.548 0 01-.743.179c-.254-.152-.205.039.107.424.313.385.602.923.642 1.196.128.87 1.401 2.552 1.762 2.329.191-.119.348.04.348.352 0 .522 1.027 1.23 1.62 1.116.139-.026.162.298.052.722-.272 1.038.529 1.918 1.576 1.73.78-.14.795-.109.178.357-.629.476-.609.573.291 1.419.532.5 1.081.795 1.22.656s-.036-.364-.389-.499c-.782-.3-.855-.906-.095-.795.963.141 1.747 1.05 1.593 1.846-.101.524.156.912.797 1.204.52.237.841.598.715.803-.127.205.186.15.696-.121.873-.466.892-.453.34.229-.53.653-.522.699.077.475.498-.186.603-.09.422.382-.161.419-.089.535.215.347.252-.155.458-.119.458.08 0 .517 3.084 2.489 3.495 2.235.189-.117.409-.016.489.224.095.283.316.231.63-.148.645-.777-1.695-2.238-3.14-1.962-.774.148-1.022-.002-1.205-.728-.221-.877-.208-.883.336-.155.311.417.566.578.566.358 0-.22-.747-.994-1.66-1.72-.913-.725-2.7-2.293-3.972-3.483-1.272-1.19-2.168-1.917-1.991-1.615.219.373.176.458-.135.266-.252-.156-.344-.466-.206-.69.139-.224.089-.52-.111-.657s-.954-1.082-1.676-2.1c-.959-1.353-1.44-1.744-1.789-1.455-.336.279-.544.223-.702-.187-.123-.321-.055-.687.15-.814.507-.314.47-.685-.153-1.537-.37-.506-.61-.584-.808-.263m-73.312 1.459c-.483.514-.928.883-.99.821-.276-.275.371-1.806.681-1.614.19.117.346.017.346-.223s.189-.32.42-.177c.269.166.104.596-.457 1.193m-7.873.774c-.372.373-1.119-.23-.841-.679.165-.267.383-.26.664.02.23.23.31.527.177.659m-25.683 1.699c0 .23-.308.431-.684.448-.43.019-.497.106-.182.232.276.111.721.019.989-.203.275-.228.717-.264 1.011-.083.422.261.402.389-.101.671-.553.31-.538.402.134.821.618.386.719.374.549-.068-.239-.622.59-1.282.964-.767.137.188.689.377 1.226.419.757.059.626-.081-.588-.627-2.397-1.077-3.318-1.311-3.318-.843m21.875.196c0 .767-1.53 1.201-2.091.593-.348-.378-.296-.433.235-.246.376.132.684.06.684-.161s.175-.293.39-.16c.215.133.391.055.391-.172 0-.228.088-.414.195-.414.108 0 .196.252.196.56m-5.202 1.744c.166.634.752.778 1.686.414.107-.042.34-.051.517-.02.177.031.209-.127.071-.351-.138-.224-.403-.313-.588-.199-.185.115-.447.03-.582-.189-.441-.713-1.31-.442-1.104.345m-2.288-.071c.589.112.834.368.696.728-.142.37.058.555.604.555.639 0 .722-.114.381-.525-.239-.288-.319-.639-.178-.781.142-.141-.343-.233-1.077-.204-.969.039-1.086.101-.426.227m-6.182.697c0 .322.307.616.683.653 1.369.136 5.743.147 5.078.013-.376-.076-.683-.388-.683-.695 0-.425-.601-.557-2.539-.557-1.997 0-2.539.125-2.539.586m2.734.171c0 .201-.339.341-.754.309-.415-.031-.668-.196-.563-.366.268-.433 1.317-.388 1.317.057m15.831 1.96c-.127.206-.498.271-.824.146-.746-.286-2.602 1.403-2.328 2.119.112.29.027.419-.187.286-.214-.132-.552.166-.752.664-.199.497-.373.648-.387.336-.034-.775-3.022 2.176-3.292 3.251-.207.821-.202.822.339.051 1.029-1.464 2.324-2.539 3.115-2.583.679-.038 5.421-4.643 4.781-4.643-.129 0-.338.168-.465.373m-54.02 3.675c.802.781 1.681 1.418 1.953 1.414.305-.003.344-.116.103-.293-.215-.158-.39-.55-.39-.873 0-.334-.352-.586-.819-.586-.451 0-1.154-.243-1.563-.541-.409-.297-.087.098.716.879m72.206-.37c-.018.125-.164.243-.326.261-.161.018-.556.235-.878.482-.323.246-.251.054.16-.427.672-.787 1.131-.927 1.044-.316m-107.918 1.497c-.067.699-.298 1.241-.513 1.205-.424-.071-.469 1.437-.088 2.995.131.537.342 1.624.469 2.416.187 1.166.377 1.412.999 1.292.423-.081.768.018.768.22 0 .203-.282.368-.627.368-.445 0-.546.2-.347.684.155.376.37.991.478 1.367.108.376.363.684.565.684.202 0 .259.176.127.39-.134.216.163.401.66.414.798.02.827.074.25.467-1.16.788 1.061 4.471 2.398 3.977.316-.116.45-.088.299.064-.151.151.009.482.357.736.58.425.58.462-.006.462-.351 0-.638-.146-.638-.325 0-.179-.177-.326-.394-.326-.233 0-.195.318.094.781.268.43.704.782.968.782.263 0 .389.235.279.523-.117.303 1.386 2.152 3.571 4.394 2.074 2.13 3.672 3.57 3.55 3.201-.122-.369-.026-.792.213-.94.281-.173.322-.088.117.244-.222.359-.164.417.196.195.36-.223.417-.165.195.195-.228.369-.163.42.233.181.467-.282.469-.233.012.33-.463.571-.447.661.121.661.361 0 .556.163.433.363-.124.199.13.474.563.612.432.137.787.447.787.688 0 .242.276.098.614-.319.339-.417.487-.511.331-.209-.197.379-.133.454.208.244.368-.228.423-.071.215.623-.271.906-.263.91.336.146.58-.737.865-.452.686.684-.083.526.645.308.862-.258.236-.615-2.657-2.747-3.239-2.387-.193.119-.477.011-.633-.241-.192-.311-.107-.354.266-.133.302.179-.397-.534-1.553-1.584-2.418-2.196-5.359-5.253-6.178-6.423-.309-.442-.731-.7-.936-.573-.206.127-.326.076-.267-.113.241-.772-2.054-4.325-2.728-4.224-.374.056-.46.026-.192-.067.997-.342-.843-4.022-1.855-3.709-.473.146-.492.081-.098-.337.605-.64.644-1.284.056-.921-.28.173-.357.009-.22-.465.324-1.116-1.076-6.372-1.443-5.418-.244.637-.348.666-.654.182-.521-.824-.46-1.161.211-1.161.442 0 .586-.477.586-1.953 0-2.201-.278-2.611-.464-.684m38.809-.055c-.542.868-1.361.81 11.264.808 7.032-.001 8.508.098 9.074.604.61.547.698.545.913-.015.309-.806-.145-1.53-.737-1.175-.322.193-.315.096.024-.323.433-.536-.607-.601-9.796-.619-9.675-.019-10.307.024-10.742.72m66.733.544c-.391.47-.385.586.026.586.31 0 .215.218-.24.551-1.146.837-1.525.272-.529-.788.963-1.025 1.521-1.288.743-.349m-46.412 2.636c.068.484.297 1.004.51 1.156.247.177.212.452-.098.762-.368.368-.485 3.806-.485 14.242 0 7.566-.106 14.035-.237 14.375-.209.545-1.671.618-12.422.618-11.87 0-13.122.115-13.122 1.206 0 .513 26.158.314 26.676-.203.794-.794.461-33.035-.342-33.035-.4 0-.561.295-.48.879m23.178-.107c-.72.796-1.591.707-1.129-.115.142-.254-.466.229-1.351 1.073-1.245 1.186-1.512 1.653-1.178 2.056.615.74 1.48-.07 1.204-1.127-.18-.688-.079-.793.596-.616.564.147 1.141-.132 1.892-.915.594-.62.987-1.128.872-1.128-.114 0-.522.348-.906.772m105.999.753c.301.191.408.551.242.819-.165.268-.059.628.243.819.812.514 1.122.425 1.151-.331.022-.569.093-.546.426.141.403.832 3.063 1.95 3.063 1.288 0-.195-.282-.354-.627-.354-.376 0-.544-.219-.42-.543.144-.375-.46-.799-1.946-1.367-2.276-.871-3.024-1.037-2.132-.472m5.744 2.633c-.342.891-.15.913.651.074.52-.545.554-.716.139-.716-.299 0-.655.289-.79.642m-117.513.992c-.806.647-1.465 1.362-1.465 1.589 0 .227.325.037.723-.422.398-.458.837-.72.977-.58.139.139.253.038.253-.226 0-.263.157-.381.35-.262.311.192 1-.906.733-1.169-.058-.058-.766.423-1.571 1.07m118.847-.657c-.267.322-.42.599-.34.615 1.186.244 1.545.264 1.356.075-.125-.125-.032-.464.207-.752.332-.399.295-.524-.15-.524-.323 0-.805.263-1.073.586m2.435.586c.268.429.632.781.807.781.176 0 .199-.196.052-.435-.148-.238-.026-.587.27-.775.382-.242.226-.343-.54-.347-.98-.005-1.033.065-.589.776m1.862 0c0 .214.186.39.414.39.227 0 .328.139.223.308-.104.169.281.332.856.362.576.029.827-.036.558-.145-1.029-.42-.413-.879 1.367-1.019 1.54-.121 1.408-.158-.781-.217-1.544-.041-2.637.092-2.637.321m12.408-.115c.487.094.792.321.678.506-.114.185-.672.252-1.238.149-.567-.103-1.312-.073-1.654.067-.343.139-1.631.291-2.863.337-5.189.194-2.231.614 4.03.573 3.742-.025 6.47-.131 6.063-.235-.604-.155-.64-.26-.195-.57.373-.261.084-.304-.92-.138-1.165.193-1.465.119-1.465-.361 0-.459-.4-.591-1.66-.551-.913.029-1.262.13-.776.223m-136.115 2.801c-.482.771 1.07 2.782 2.147 2.782.256 0 .467.17.467.377 0 .553 2.315 3.098 3.276 3.601.81.425.812.418.103-.381-.397-.447-.622-.975-.5-1.173.123-.197-.827-1.395-2.109-2.661s-2.332-2.522-2.332-2.79c-.001-.718-.528-.595-1.052.245m145.178-.131c-.347.418-.625.478-.907.196-.416-.417-7.586 6.315-9.344 8.772-.951 1.33.011.777 1.36-.781.538-.623.678-.658.689-.176.007.333-.207.86-.476 1.171-.268.311.178-.047.992-.795 1.299-1.193 1.404-1.416.856-1.817-.403-.294-.478-.548-.211-.713.228-.14.414-.069.414.158 0 .833.727.361 3.169-2.055 3.037-3.006 4.461-4.562 4.173-4.562-.118 0-.44.271-.715.602m-143.967.921c.505.558.554.816.196 1.037-.306.189-.376.132-.196-.159.157-.254.011-.557-.331-.688-.335-.129-.61-.391-.61-.583 0-.514.193-.433.941.393m153.504 2.141c-1.263 1.371-6.076 6.402-10.695 11.18-8.202 8.486-8.901 9.337-7.924 9.663 1.099.366 5.961-5.216 5.372-6.168-.107-.174-.017-.427.202-.562.218-.135.397.062.397.437 0 .553.217.474 1.153-.423.634-.608 1.118-1.292 1.074-1.52-.043-.229.126-.424.377-.433.25-.01.602-.178.781-.374.191-.208.083-.242-.26-.083-.323.15-.235.046.195-.23 2.19-1.41 5.757-5.378 5.549-6.174-.176-.673-.115-.737.341-.358.515.428.727.234.592-.543-.031-.177.106-.222.305-.099.391.242 2.783-2.281 2.783-2.936 0-.22.148-.309.329-.197.414.256 3.026-2.401 2.69-2.737-.136-.136-.54.046-.898.404-.906.906-1.235.405-.365-.556.39-.431.617-.783.504-.783-.113 0-1.239 1.121-2.502 2.492m-135.966-.656c-.257.092-.378.397-.271.677.108.281-.06.609-.374.729-.338.13-.539.007-.493-.3.109-.744 1.085-1.837 1.367-1.531.13.142.027.333-.229.425m-12.229 3.4c.322.408.588 1.024.592 1.367.008.878.566 1.654.997 1.388.2-.124.368-.083.373.091.004.174.372.755.817 1.293.451.543.72.694.608.34-.111-.35-.059-.789.116-.976.174-.188-.675-1.22-1.886-2.294-1.212-1.074-1.94-1.618-1.617-1.209m143.666 2.869c-.328.376-.507.931-.398 1.234.136.378.001.475-.429.31-.345-.132-.721-.087-.837.1-.116.187.011.425.28.529.27.104.096.169-.386.146-.818-.041-.78-.143.568-1.523 1.464-1.5 2.293-2.049 1.202-.796m-16.66 1.976c-.029.496-.212.804-.407.683-.195-.12-1.118.697-2.051 1.815-.933 1.118-1.433 1.872-1.111 1.675.322-.197.865-.365 1.206-.373.342-.008 1.573-1.069 2.735-2.358 1.163-1.289 1.834-2.126 1.492-1.859-.342.267-.766.355-.941.195-.176-.159-.201-.082-.056.172.146.254.098.564-.105.689-.203.126-.445-.17-.539-.656l-.17-.885-.053.902m-4.871 4.632c-.928.928 2.475 5.801 3.439 4.924.183-.166.211-.091.063.167-.157.274.095.664.605.936.481.258 1.145.757 1.476 1.11.331.353.56.563.508.467-.052-.097.09-.398.316-.67.677-.816-4.272-5.14-5.621-4.912-.592.1-.68-.082-.522-1.081.197-1.256.165-1.37-.264-.941m12.63 2.596c0 .067-.571.639-1.269 1.27l-1.27 1.147 1.148-1.269c1.069-1.184 1.391-1.45 1.391-1.148m-196.641 2.9c-.418.418-.246 1.186.314 1.401.322.124.626-.09.738-.519.185-.708-.582-1.352-1.052-.882m1.566.817c-.272.439.838.954 1.361.631.195-.12.355-.046.355.166 0 .212-.308.465-.684.563-.42.11-.27.197.391.224.591.025 1.074.232 1.074.459 0 .228.164.313.364.189a.439.439 0 01.598.156c.313.506 1.263.114 1.553-.64.174-.454.036-.552-.556-.397-.497.13-.693.052-.531-.21.165-.266-.046-.336-.586-.195-.464.121-.757.081-.651-.09.105-.17-.115-.397-.488-.505a15.08 15.08 0 01-1.323-.461c-.355-.147-.749-.097-.877.11m5.492 1.89c-.511.512-.248 1.302.423 1.271.435-.019.5-.104.179-.233-.387-.155-.399-.33-.05-.75.448-.54-.044-.796-.552-.288m1.597.847c-.116.443.021.716.361.716.303 0 .464-.223.359-.496-.104-.273.02-.581.277-.685.27-.11.197-.203-.172-.221-.351-.017-.722.292-.825.686m1.528-.066c-.409.41-.304 1.303.153 1.303.228 0 .295-.194.148-.43-.186-.302-.019-.298.563.014.668.357.829.333.829-.124 0-.312.219-.656.488-.764.269-.109-.054-.211-.716-.228-.663-.017-1.322.086-1.465.229" fill="#737272"/></g></svg>